<?xml version="1.0" encoding="utf-8" standalone="no"?>
<!DOCTYPE svg PUBLIC "-//W3C//DTD SVG 1.1//EN"
  "http://www.w3.org/Graphics/SVG/1.1/DTD/svg11.dtd">
<svg xmlns:xlink="http://www.w3.org/1999/xlink" width="1008pt" height="648pt" viewBox="0 0 1008 648" xmlns="http://www.w3.org/2000/svg" version="1.1">
 <metadata>
  <rdf:RDF xmlns:dc="http://purl.org/dc/elements/1.1/" xmlns:cc="http://creativecommons.org/ns#" xmlns:rdf="http://www.w3.org/1999/02/22-rdf-syntax-ns#">
   <cc:Work>
    <dc:type rdf:resource="http://purl.org/dc/dcmitype/StillImage"/>
    <dc:date>2024-05-26T16:41:05.269757</dc:date>
    <dc:format>image/svg+xml</dc:format>
    <dc:creator>
     <cc:Agent>
      <dc:title>Matplotlib v3.8.0, https://matplotlib.org/</dc:title>
     </cc:Agent>
    </dc:creator>
   </cc:Work>
  </rdf:RDF>
 </metadata>
 <defs>
  <style type="text/css">*{stroke-linejoin: round; stroke-linecap: butt}</style>
 </defs>
 <g id="figure_1">
  <g id="patch_1">
   <path d="M 0 648 
L 1008 648 
L 1008 0 
L 0 0 
z
" style="fill: #ffffff"/>
  </g>
  <g id="axes_1">
   <g id="patch_2">
    <path d="M 55.772054 601.816734 
L 863.087155 601.816734 
L 863.087155 26.88 
L 55.772054 26.88 
z
" style="fill: #ffffff"/>
   </g>
   <g id="line2d_1">
    <path d="M 241.236334 601.816734 
L 241.236334 26.88 
" clip-path="url(#p48aad7ca55)" style="fill: none; stroke: #f6f6f6; stroke-width: 105; stroke-linecap: square"/>
   </g>
   <g id="line2d_2">
    <path d="M 459.429605 601.816734 
L 459.429605 26.88 
" clip-path="url(#p48aad7ca55)" style="fill: none; stroke: #f6f6f6; stroke-width: 105; stroke-linecap: square"/>
   </g>
   <g id="line2d_3">
    <path d="M 677.622875 601.816734 
L 677.622875 26.88 
" clip-path="url(#p48aad7ca55)" style="fill: none; stroke: #f6f6f6; stroke-width: 105; stroke-linecap: square"/>
   </g>
   <g id="matplotlib.axis_1">
    <g id="xtick_1">
     <g id="line2d_4">
      <defs>
       <path id="m52e2857c19" d="M 0 0 
L 0 3.5 
" style="stroke: #221f20; stroke-width: 0.8"/>
      </defs>
      <g>
       <use xlink:href="#m52e2857c19" x="132.139699" y="601.816734" style="fill: #221f20; stroke: #221f20; stroke-width: 0.8"/>
      </g>
     </g>
     <g id="text_1">
      <!-- 1ro -->
      <g style="fill: #221f20" transform="translate(123.956105 616.415171) scale(0.1 -0.1)">
       <defs>
        <path id="DejaVuSans-31" d="M 794 531 
L 1825 531 
L 1825 4091 
L 703 3866 
L 703 4441 
L 1819 4666 
L 2450 4666 
L 2450 531 
L 3481 531 
L 3481 0 
L 794 0 
L 794 531 
z
" transform="scale(0.015625)"/>
        <path id="DejaVuSans-72" d="M 2631 2963 
Q 2534 3019 2420 3045 
Q 2306 3072 2169 3072 
Q 1681 3072 1420 2755 
Q 1159 2438 1159 1844 
L 1159 0 
L 581 0 
L 581 3500 
L 1159 3500 
L 1159 2956 
Q 1341 3275 1631 3429 
Q 1922 3584 2338 3584 
Q 2397 3584 2469 3576 
Q 2541 3569 2628 3553 
L 2631 2963 
z
" transform="scale(0.015625)"/>
        <path id="DejaVuSans-6f" d="M 1959 3097 
Q 1497 3097 1228 2736 
Q 959 2375 959 1747 
Q 959 1119 1226 758 
Q 1494 397 1959 397 
Q 2419 397 2687 759 
Q 2956 1122 2956 1747 
Q 2956 2369 2687 2733 
Q 2419 3097 1959 3097 
z
M 1959 3584 
Q 2709 3584 3137 3096 
Q 3566 2609 3566 1747 
Q 3566 888 3137 398 
Q 2709 -91 1959 -91 
Q 1206 -91 779 398 
Q 353 888 353 1747 
Q 353 2609 779 3096 
Q 1206 3584 1959 3584 
z
" transform="scale(0.015625)"/>
       </defs>
       <use xlink:href="#DejaVuSans-31"/>
       <use xlink:href="#DejaVuSans-72" x="63.623047"/>
       <use xlink:href="#DejaVuSans-6f" x="102.486328"/>
      </g>
     </g>
    </g>
    <g id="xtick_2">
     <g id="line2d_5">
      <g>
       <use xlink:href="#m52e2857c19" x="241.236334" y="601.816734" style="fill: #221f20; stroke: #221f20; stroke-width: 0.8"/>
      </g>
     </g>
     <g id="text_2">
      <!-- 2ro -->
      <g style="fill: #221f20" transform="translate(233.05274 616.415171) scale(0.1 -0.1)">
       <defs>
        <path id="DejaVuSans-32" d="M 1228 531 
L 3431 531 
L 3431 0 
L 469 0 
L 469 531 
Q 828 903 1448 1529 
Q 2069 2156 2228 2338 
Q 2531 2678 2651 2914 
Q 2772 3150 2772 3378 
Q 2772 3750 2511 3984 
Q 2250 4219 1831 4219 
Q 1534 4219 1204 4116 
Q 875 4013 500 3803 
L 500 4441 
Q 881 4594 1212 4672 
Q 1544 4750 1819 4750 
Q 2544 4750 2975 4387 
Q 3406 4025 3406 3419 
Q 3406 3131 3298 2873 
Q 3191 2616 2906 2266 
Q 2828 2175 2409 1742 
Q 1991 1309 1228 531 
z
" transform="scale(0.015625)"/>
       </defs>
       <use xlink:href="#DejaVuSans-32"/>
       <use xlink:href="#DejaVuSans-72" x="63.623047"/>
       <use xlink:href="#DejaVuSans-6f" x="102.486328"/>
      </g>
     </g>
    </g>
    <g id="xtick_3">
     <g id="line2d_6">
      <g>
       <use xlink:href="#m52e2857c19" x="350.332969" y="601.816734" style="fill: #221f20; stroke: #221f20; stroke-width: 0.8"/>
      </g>
     </g>
     <g id="text_3">
      <!-- 3ro -->
      <g style="fill: #221f20" transform="translate(342.149375 616.415171) scale(0.1 -0.1)">
       <defs>
        <path id="DejaVuSans-33" d="M 2597 2516 
Q 3050 2419 3304 2112 
Q 3559 1806 3559 1356 
Q 3559 666 3084 287 
Q 2609 -91 1734 -91 
Q 1441 -91 1130 -33 
Q 819 25 488 141 
L 488 750 
Q 750 597 1062 519 
Q 1375 441 1716 441 
Q 2309 441 2620 675 
Q 2931 909 2931 1356 
Q 2931 1769 2642 2001 
Q 2353 2234 1838 2234 
L 1294 2234 
L 1294 2753 
L 1863 2753 
Q 2328 2753 2575 2939 
Q 2822 3125 2822 3475 
Q 2822 3834 2567 4026 
Q 2313 4219 1838 4219 
Q 1578 4219 1281 4162 
Q 984 4106 628 3988 
L 628 4550 
Q 988 4650 1302 4700 
Q 1616 4750 1894 4750 
Q 2613 4750 3031 4423 
Q 3450 4097 3450 3541 
Q 3450 3153 3228 2886 
Q 3006 2619 2597 2516 
z
" transform="scale(0.015625)"/>
       </defs>
       <use xlink:href="#DejaVuSans-33"/>
       <use xlink:href="#DejaVuSans-72" x="63.623047"/>
       <use xlink:href="#DejaVuSans-6f" x="102.486328"/>
      </g>
     </g>
    </g>
    <g id="xtick_4">
     <g id="line2d_7">
      <g>
       <use xlink:href="#m52e2857c19" x="459.429605" y="601.816734" style="fill: #221f20; stroke: #221f20; stroke-width: 0.8"/>
      </g>
     </g>
     <g id="text_4">
      <!-- 4ro -->
      <g style="fill: #221f20" transform="translate(451.246011 616.415171) scale(0.1 -0.1)">
       <defs>
        <path id="DejaVuSans-34" d="M 2419 4116 
L 825 1625 
L 2419 1625 
L 2419 4116 
z
M 2253 4666 
L 3047 4666 
L 3047 1625 
L 3713 1625 
L 3713 1100 
L 3047 1100 
L 3047 0 
L 2419 0 
L 2419 1100 
L 313 1100 
L 313 1709 
L 2253 4666 
z
" transform="scale(0.015625)"/>
       </defs>
       <use xlink:href="#DejaVuSans-34"/>
       <use xlink:href="#DejaVuSans-72" x="63.623047"/>
       <use xlink:href="#DejaVuSans-6f" x="102.486328"/>
      </g>
     </g>
    </g>
    <g id="xtick_5">
     <g id="line2d_8">
      <g>
       <use xlink:href="#m52e2857c19" x="568.52624" y="601.816734" style="fill: #221f20; stroke: #221f20; stroke-width: 0.8"/>
      </g>
     </g>
     <g id="text_5">
      <!-- 5ro -->
      <g style="fill: #221f20" transform="translate(560.342646 616.415171) scale(0.1 -0.1)">
       <defs>
        <path id="DejaVuSans-35" d="M 691 4666 
L 3169 4666 
L 3169 4134 
L 1269 4134 
L 1269 2991 
Q 1406 3038 1543 3061 
Q 1681 3084 1819 3084 
Q 2600 3084 3056 2656 
Q 3513 2228 3513 1497 
Q 3513 744 3044 326 
Q 2575 -91 1722 -91 
Q 1428 -91 1123 -41 
Q 819 9 494 109 
L 494 744 
Q 775 591 1075 516 
Q 1375 441 1709 441 
Q 2250 441 2565 725 
Q 2881 1009 2881 1497 
Q 2881 1984 2565 2268 
Q 2250 2553 1709 2553 
Q 1456 2553 1204 2497 
Q 953 2441 691 2322 
L 691 4666 
z
" transform="scale(0.015625)"/>
       </defs>
       <use xlink:href="#DejaVuSans-35"/>
       <use xlink:href="#DejaVuSans-72" x="63.623047"/>
       <use xlink:href="#DejaVuSans-6f" x="102.486328"/>
      </g>
     </g>
    </g>
    <g id="xtick_6">
     <g id="line2d_9">
      <g>
       <use xlink:href="#m52e2857c19" x="677.622875" y="601.816734" style="fill: #221f20; stroke: #221f20; stroke-width: 0.8"/>
      </g>
     </g>
     <g id="text_6">
      <!-- 6ro -->
      <g style="fill: #221f20" transform="translate(669.439281 616.415171) scale(0.1 -0.1)">
       <defs>
        <path id="DejaVuSans-36" d="M 2113 2584 
Q 1688 2584 1439 2293 
Q 1191 2003 1191 1497 
Q 1191 994 1439 701 
Q 1688 409 2113 409 
Q 2538 409 2786 701 
Q 3034 994 3034 1497 
Q 3034 2003 2786 2293 
Q 2538 2584 2113 2584 
z
M 3366 4563 
L 3366 3988 
Q 3128 4100 2886 4159 
Q 2644 4219 2406 4219 
Q 1781 4219 1451 3797 
Q 1122 3375 1075 2522 
Q 1259 2794 1537 2939 
Q 1816 3084 2150 3084 
Q 2853 3084 3261 2657 
Q 3669 2231 3669 1497 
Q 3669 778 3244 343 
Q 2819 -91 2113 -91 
Q 1303 -91 875 529 
Q 447 1150 447 2328 
Q 447 3434 972 4092 
Q 1497 4750 2381 4750 
Q 2619 4750 2861 4703 
Q 3103 4656 3366 4563 
z
" transform="scale(0.015625)"/>
       </defs>
       <use xlink:href="#DejaVuSans-36"/>
       <use xlink:href="#DejaVuSans-72" x="63.623047"/>
       <use xlink:href="#DejaVuSans-6f" x="102.486328"/>
      </g>
     </g>
    </g>
    <g id="xtick_7">
     <g id="line2d_10">
      <g>
       <use xlink:href="#m52e2857c19" x="786.71951" y="601.816734" style="fill: #221f20; stroke: #221f20; stroke-width: 0.8"/>
      </g>
     </g>
     <g id="text_7">
      <!-- 7ro -->
      <g style="fill: #221f20" transform="translate(778.535917 616.415171) scale(0.1 -0.1)">
       <defs>
        <path id="DejaVuSans-37" d="M 525 4666 
L 3525 4666 
L 3525 4397 
L 1831 0 
L 1172 0 
L 2766 4134 
L 525 4134 
L 525 4666 
z
" transform="scale(0.015625)"/>
       </defs>
       <use xlink:href="#DejaVuSans-37"/>
       <use xlink:href="#DejaVuSans-72" x="63.623047"/>
       <use xlink:href="#DejaVuSans-6f" x="102.486328"/>
      </g>
     </g>
    </g>
    <g id="text_8">
     <!-- Mock-up -->
     <g style="fill: #221f20" transform="translate(438.264761 630.093296) scale(0.1 -0.1)">
      <defs>
       <path id="DejaVuSans-4d" d="M 628 4666 
L 1569 4666 
L 2759 1491 
L 3956 4666 
L 4897 4666 
L 4897 0 
L 4281 0 
L 4281 4097 
L 3078 897 
L 2444 897 
L 1241 4097 
L 1241 0 
L 628 0 
L 628 4666 
z
" transform="scale(0.015625)"/>
       <path id="DejaVuSans-63" d="M 3122 3366 
L 3122 2828 
Q 2878 2963 2633 3030 
Q 2388 3097 2138 3097 
Q 1578 3097 1268 2742 
Q 959 2388 959 1747 
Q 959 1106 1268 751 
Q 1578 397 2138 397 
Q 2388 397 2633 464 
Q 2878 531 3122 666 
L 3122 134 
Q 2881 22 2623 -34 
Q 2366 -91 2075 -91 
Q 1284 -91 818 406 
Q 353 903 353 1747 
Q 353 2603 823 3093 
Q 1294 3584 2113 3584 
Q 2378 3584 2631 3529 
Q 2884 3475 3122 3366 
z
" transform="scale(0.015625)"/>
       <path id="DejaVuSans-6b" d="M 581 4863 
L 1159 4863 
L 1159 1991 
L 2875 3500 
L 3609 3500 
L 1753 1863 
L 3688 0 
L 2938 0 
L 1159 1709 
L 1159 0 
L 581 0 
L 581 4863 
z
" transform="scale(0.015625)"/>
       <path id="DejaVuSans-2d" d="M 313 2009 
L 1997 2009 
L 1997 1497 
L 313 1497 
L 313 2009 
z
" transform="scale(0.015625)"/>
       <path id="DejaVuSans-75" d="M 544 1381 
L 544 3500 
L 1119 3500 
L 1119 1403 
Q 1119 906 1312 657 
Q 1506 409 1894 409 
Q 2359 409 2629 706 
Q 2900 1003 2900 1516 
L 2900 3500 
L 3475 3500 
L 3475 0 
L 2900 0 
L 2900 538 
Q 2691 219 2414 64 
Q 2138 -91 1772 -91 
Q 1169 -91 856 284 
Q 544 659 544 1381 
z
M 1991 3584 
L 1991 3584 
z
" transform="scale(0.015625)"/>
       <path id="DejaVuSans-70" d="M 1159 525 
L 1159 -1331 
L 581 -1331 
L 581 3500 
L 1159 3500 
L 1159 2969 
Q 1341 3281 1617 3432 
Q 1894 3584 2278 3584 
Q 2916 3584 3314 3078 
Q 3713 2572 3713 1747 
Q 3713 922 3314 415 
Q 2916 -91 2278 -91 
Q 1894 -91 1617 61 
Q 1341 213 1159 525 
z
M 3116 1747 
Q 3116 2381 2855 2742 
Q 2594 3103 2138 3103 
Q 1681 3103 1420 2742 
Q 1159 2381 1159 1747 
Q 1159 1113 1420 752 
Q 1681 391 2138 391 
Q 2594 391 2855 752 
Q 3116 1113 3116 1747 
z
" transform="scale(0.015625)"/>
      </defs>
      <use xlink:href="#DejaVuSans-4d"/>
      <use xlink:href="#DejaVuSans-6f" x="86.279297"/>
      <use xlink:href="#DejaVuSans-63" x="147.460938"/>
      <use xlink:href="#DejaVuSans-6b" x="202.441406"/>
      <use xlink:href="#DejaVuSans-2d" x="260.351562"/>
      <use xlink:href="#DejaVuSans-75" x="296.435547"/>
      <use xlink:href="#DejaVuSans-70" x="359.814453"/>
     </g>
    </g>
   </g>
   <g id="matplotlib.axis_2">
    <g id="ytick_1">
     <g id="line2d_11">
      <path d="M 55.772054 575.683246 
L 863.087155 575.683246 
" clip-path="url(#p48aad7ca55)" style="fill: none; stroke-dasharray: 2.96,1.28; stroke-dashoffset: 0; stroke: #c5c5c4; stroke-opacity: 0.7; stroke-width: 0.8"/>
     </g>
     <g id="line2d_12">
      <defs>
       <path id="m58047cc7d8" d="M 0 0 
L -3.5 0 
" style="stroke: #221f20; stroke-width: 0.8"/>
      </defs>
      <g>
       <use xlink:href="#m58047cc7d8" x="55.772054" y="575.683246" style="fill: #221f20; stroke: #221f20; stroke-width: 0.8"/>
      </g>
     </g>
     <g id="text_9">
      <!-- $\mathdefault{10^{-1}}$ -->
      <g style="fill: #221f20" transform="translate(25.272054 579.482465) scale(0.1 -0.1)">
       <defs>
        <path id="DejaVuSans-30" d="M 2034 4250 
Q 1547 4250 1301 3770 
Q 1056 3291 1056 2328 
Q 1056 1369 1301 889 
Q 1547 409 2034 409 
Q 2525 409 2770 889 
Q 3016 1369 3016 2328 
Q 3016 3291 2770 3770 
Q 2525 4250 2034 4250 
z
M 2034 4750 
Q 2819 4750 3233 4129 
Q 3647 3509 3647 2328 
Q 3647 1150 3233 529 
Q 2819 -91 2034 -91 
Q 1250 -91 836 529 
Q 422 1150 422 2328 
Q 422 3509 836 4129 
Q 1250 4750 2034 4750 
z
" transform="scale(0.015625)"/>
        <path id="DejaVuSans-2212" d="M 678 2272 
L 4684 2272 
L 4684 1741 
L 678 1741 
L 678 2272 
z
" transform="scale(0.015625)"/>
       </defs>
       <use xlink:href="#DejaVuSans-31" transform="translate(0 0.684375)"/>
       <use xlink:href="#DejaVuSans-30" transform="translate(63.623047 0.684375)"/>
       <use xlink:href="#DejaVuSans-2212" transform="translate(128.203125 38.965625) scale(0.7)"/>
       <use xlink:href="#DejaVuSans-31" transform="translate(186.855469 38.965625) scale(0.7)"/>
      </g>
     </g>
    </g>
    <g id="ytick_2">
     <g id="line2d_13">
      <path d="M 55.772054 378.375675 
L 863.087155 378.375675 
" clip-path="url(#p48aad7ca55)" style="fill: none; stroke-dasharray: 2.96,1.28; stroke-dashoffset: 0; stroke: #c5c5c4; stroke-opacity: 0.7; stroke-width: 0.8"/>
     </g>
     <g id="line2d_14">
      <g>
       <use xlink:href="#m58047cc7d8" x="55.772054" y="378.375675" style="fill: #221f20; stroke: #221f20; stroke-width: 0.8"/>
      </g>
     </g>
     <g id="text_10">
      <!-- $\mathdefault{10^{0}}$ -->
      <g style="fill: #221f20" transform="translate(31.172054 382.174894) scale(0.1 -0.1)">
       <use xlink:href="#DejaVuSans-31" transform="translate(0 0.765625)"/>
       <use xlink:href="#DejaVuSans-30" transform="translate(63.623047 0.765625)"/>
       <use xlink:href="#DejaVuSans-30" transform="translate(128.203125 39.046875) scale(0.7)"/>
      </g>
     </g>
    </g>
    <g id="ytick_3">
     <g id="line2d_15">
      <path d="M 55.772054 181.068104 
L 863.087155 181.068104 
" clip-path="url(#p48aad7ca55)" style="fill: none; stroke-dasharray: 2.96,1.28; stroke-dashoffset: 0; stroke: #c5c5c4; stroke-opacity: 0.7; stroke-width: 0.8"/>
     </g>
     <g id="line2d_16">
      <g>
       <use xlink:href="#m58047cc7d8" x="55.772054" y="181.068104" style="fill: #221f20; stroke: #221f20; stroke-width: 0.8"/>
      </g>
     </g>
     <g id="text_11">
      <!-- $\mathdefault{10^{1}}$ -->
      <g style="fill: #221f20" transform="translate(31.172054 184.867323) scale(0.1 -0.1)">
       <use xlink:href="#DejaVuSans-31" transform="translate(0 0.684375)"/>
       <use xlink:href="#DejaVuSans-30" transform="translate(63.623047 0.684375)"/>
       <use xlink:href="#DejaVuSans-31" transform="translate(128.203125 38.965625) scale(0.7)"/>
      </g>
     </g>
    </g>
    <g id="ytick_4">
     <g id="line2d_17">
      <defs>
       <path id="m20e0fb743a" d="M 0 0 
L -2 0 
" style="stroke: #000000; stroke-width: 0.6"/>
      </defs>
      <g>
       <use xlink:href="#m20e0fb743a" x="55.772054" y="594.804325" style="stroke: #000000; stroke-width: 0.6"/>
      </g>
     </g>
    </g>
    <g id="ytick_5">
     <g id="line2d_18">
      <g>
       <use xlink:href="#m20e0fb743a" x="55.772054" y="584.711545" style="stroke: #000000; stroke-width: 0.6"/>
      </g>
     </g>
    </g>
    <g id="ytick_6">
     <g id="line2d_19">
      <g>
       <use xlink:href="#m20e0fb743a" x="55.772054" y="516.287749" style="stroke: #000000; stroke-width: 0.6"/>
      </g>
     </g>
    </g>
    <g id="ytick_7">
     <g id="line2d_20">
      <g>
       <use xlink:href="#m20e0fb743a" x="55.772054" y="481.54361" style="stroke: #000000; stroke-width: 0.6"/>
      </g>
     </g>
    </g>
    <g id="ytick_8">
     <g id="line2d_21">
      <g>
       <use xlink:href="#m20e0fb743a" x="55.772054" y="456.892252" style="stroke: #000000; stroke-width: 0.6"/>
      </g>
     </g>
    </g>
    <g id="ytick_9">
     <g id="line2d_22">
      <g>
       <use xlink:href="#m20e0fb743a" x="55.772054" y="437.771172" style="stroke: #000000; stroke-width: 0.6"/>
      </g>
     </g>
    </g>
    <g id="ytick_10">
     <g id="line2d_23">
      <g>
       <use xlink:href="#m20e0fb743a" x="55.772054" y="422.148113" style="stroke: #000000; stroke-width: 0.6"/>
      </g>
     </g>
    </g>
    <g id="ytick_11">
     <g id="line2d_24">
      <g>
       <use xlink:href="#m20e0fb743a" x="55.772054" y="408.939005" style="stroke: #000000; stroke-width: 0.6"/>
      </g>
     </g>
    </g>
    <g id="ytick_12">
     <g id="line2d_25">
      <g>
       <use xlink:href="#m20e0fb743a" x="55.772054" y="397.496754" style="stroke: #000000; stroke-width: 0.6"/>
      </g>
     </g>
    </g>
    <g id="ytick_13">
     <g id="line2d_26">
      <g>
       <use xlink:href="#m20e0fb743a" x="55.772054" y="387.403974" style="stroke: #000000; stroke-width: 0.6"/>
      </g>
     </g>
    </g>
    <g id="ytick_14">
     <g id="line2d_27">
      <g>
       <use xlink:href="#m20e0fb743a" x="55.772054" y="318.980178" style="stroke: #000000; stroke-width: 0.6"/>
      </g>
     </g>
    </g>
    <g id="ytick_15">
     <g id="line2d_28">
      <g>
       <use xlink:href="#m20e0fb743a" x="55.772054" y="284.236039" style="stroke: #000000; stroke-width: 0.6"/>
      </g>
     </g>
    </g>
    <g id="ytick_16">
     <g id="line2d_29">
      <g>
       <use xlink:href="#m20e0fb743a" x="55.772054" y="259.584681" style="stroke: #000000; stroke-width: 0.6"/>
      </g>
     </g>
    </g>
    <g id="ytick_17">
     <g id="line2d_30">
      <g>
       <use xlink:href="#m20e0fb743a" x="55.772054" y="240.463602" style="stroke: #000000; stroke-width: 0.6"/>
      </g>
     </g>
    </g>
    <g id="ytick_18">
     <g id="line2d_31">
      <g>
       <use xlink:href="#m20e0fb743a" x="55.772054" y="224.840542" style="stroke: #000000; stroke-width: 0.6"/>
      </g>
     </g>
    </g>
    <g id="ytick_19">
     <g id="line2d_32">
      <g>
       <use xlink:href="#m20e0fb743a" x="55.772054" y="211.631434" style="stroke: #000000; stroke-width: 0.6"/>
      </g>
     </g>
    </g>
    <g id="ytick_20">
     <g id="line2d_33">
      <g>
       <use xlink:href="#m20e0fb743a" x="55.772054" y="200.189184" style="stroke: #000000; stroke-width: 0.6"/>
      </g>
     </g>
    </g>
    <g id="ytick_21">
     <g id="line2d_34">
      <g>
       <use xlink:href="#m20e0fb743a" x="55.772054" y="190.096404" style="stroke: #000000; stroke-width: 0.6"/>
      </g>
     </g>
    </g>
    <g id="ytick_22">
     <g id="line2d_35">
      <g>
       <use xlink:href="#m20e0fb743a" x="55.772054" y="121.672607" style="stroke: #000000; stroke-width: 0.6"/>
      </g>
     </g>
    </g>
    <g id="ytick_23">
     <g id="line2d_36">
      <g>
       <use xlink:href="#m20e0fb743a" x="55.772054" y="86.928469" style="stroke: #000000; stroke-width: 0.6"/>
      </g>
     </g>
    </g>
    <g id="ytick_24">
     <g id="line2d_37">
      <g>
       <use xlink:href="#m20e0fb743a" x="55.772054" y="62.27711" style="stroke: #000000; stroke-width: 0.6"/>
      </g>
     </g>
    </g>
    <g id="ytick_25">
     <g id="line2d_38">
      <g>
       <use xlink:href="#m20e0fb743a" x="55.772054" y="43.156031" style="stroke: #000000; stroke-width: 0.6"/>
      </g>
     </g>
    </g>
    <g id="ytick_26">
     <g id="line2d_39">
      <g>
       <use xlink:href="#m20e0fb743a" x="55.772054" y="27.532972" style="stroke: #000000; stroke-width: 0.6"/>
      </g>
     </g>
    </g>
    <g id="text_12">
     <!-- Gemiddelde Waarde per Meting -->
     <g style="fill: #221f20" transform="translate(19.192366 393.751492) rotate(-90) scale(0.1 -0.1)">
      <defs>
       <path id="DejaVuSans-47" d="M 3809 666 
L 3809 1919 
L 2778 1919 
L 2778 2438 
L 4434 2438 
L 4434 434 
Q 4069 175 3628 42 
Q 3188 -91 2688 -91 
Q 1594 -91 976 548 
Q 359 1188 359 2328 
Q 359 3472 976 4111 
Q 1594 4750 2688 4750 
Q 3144 4750 3555 4637 
Q 3966 4525 4313 4306 
L 4313 3634 
Q 3963 3931 3569 4081 
Q 3175 4231 2741 4231 
Q 1884 4231 1454 3753 
Q 1025 3275 1025 2328 
Q 1025 1384 1454 906 
Q 1884 428 2741 428 
Q 3075 428 3337 486 
Q 3600 544 3809 666 
z
" transform="scale(0.015625)"/>
       <path id="DejaVuSans-65" d="M 3597 1894 
L 3597 1613 
L 953 1613 
Q 991 1019 1311 708 
Q 1631 397 2203 397 
Q 2534 397 2845 478 
Q 3156 559 3463 722 
L 3463 178 
Q 3153 47 2828 -22 
Q 2503 -91 2169 -91 
Q 1331 -91 842 396 
Q 353 884 353 1716 
Q 353 2575 817 3079 
Q 1281 3584 2069 3584 
Q 2775 3584 3186 3129 
Q 3597 2675 3597 1894 
z
M 3022 2063 
Q 3016 2534 2758 2815 
Q 2500 3097 2075 3097 
Q 1594 3097 1305 2825 
Q 1016 2553 972 2059 
L 3022 2063 
z
" transform="scale(0.015625)"/>
       <path id="DejaVuSans-6d" d="M 3328 2828 
Q 3544 3216 3844 3400 
Q 4144 3584 4550 3584 
Q 5097 3584 5394 3201 
Q 5691 2819 5691 2113 
L 5691 0 
L 5113 0 
L 5113 2094 
Q 5113 2597 4934 2840 
Q 4756 3084 4391 3084 
Q 3944 3084 3684 2787 
Q 3425 2491 3425 1978 
L 3425 0 
L 2847 0 
L 2847 2094 
Q 2847 2600 2669 2842 
Q 2491 3084 2119 3084 
Q 1678 3084 1418 2786 
Q 1159 2488 1159 1978 
L 1159 0 
L 581 0 
L 581 3500 
L 1159 3500 
L 1159 2956 
Q 1356 3278 1631 3431 
Q 1906 3584 2284 3584 
Q 2666 3584 2933 3390 
Q 3200 3197 3328 2828 
z
" transform="scale(0.015625)"/>
       <path id="DejaVuSans-69" d="M 603 3500 
L 1178 3500 
L 1178 0 
L 603 0 
L 603 3500 
z
M 603 4863 
L 1178 4863 
L 1178 4134 
L 603 4134 
L 603 4863 
z
" transform="scale(0.015625)"/>
       <path id="DejaVuSans-64" d="M 2906 2969 
L 2906 4863 
L 3481 4863 
L 3481 0 
L 2906 0 
L 2906 525 
Q 2725 213 2448 61 
Q 2172 -91 1784 -91 
Q 1150 -91 751 415 
Q 353 922 353 1747 
Q 353 2572 751 3078 
Q 1150 3584 1784 3584 
Q 2172 3584 2448 3432 
Q 2725 3281 2906 2969 
z
M 947 1747 
Q 947 1113 1208 752 
Q 1469 391 1925 391 
Q 2381 391 2643 752 
Q 2906 1113 2906 1747 
Q 2906 2381 2643 2742 
Q 2381 3103 1925 3103 
Q 1469 3103 1208 2742 
Q 947 2381 947 1747 
z
" transform="scale(0.015625)"/>
       <path id="DejaVuSans-6c" d="M 603 4863 
L 1178 4863 
L 1178 0 
L 603 0 
L 603 4863 
z
" transform="scale(0.015625)"/>
       <path id="DejaVuSans-20" transform="scale(0.015625)"/>
       <path id="DejaVuSans-57" d="M 213 4666 
L 850 4666 
L 1831 722 
L 2809 4666 
L 3519 4666 
L 4500 722 
L 5478 4666 
L 6119 4666 
L 4947 0 
L 4153 0 
L 3169 4050 
L 2175 0 
L 1381 0 
L 213 4666 
z
" transform="scale(0.015625)"/>
       <path id="DejaVuSans-61" d="M 2194 1759 
Q 1497 1759 1228 1600 
Q 959 1441 959 1056 
Q 959 750 1161 570 
Q 1363 391 1709 391 
Q 2188 391 2477 730 
Q 2766 1069 2766 1631 
L 2766 1759 
L 2194 1759 
z
M 3341 1997 
L 3341 0 
L 2766 0 
L 2766 531 
Q 2569 213 2275 61 
Q 1981 -91 1556 -91 
Q 1019 -91 701 211 
Q 384 513 384 1019 
Q 384 1609 779 1909 
Q 1175 2209 1959 2209 
L 2766 2209 
L 2766 2266 
Q 2766 2663 2505 2880 
Q 2244 3097 1772 3097 
Q 1472 3097 1187 3025 
Q 903 2953 641 2809 
L 641 3341 
Q 956 3463 1253 3523 
Q 1550 3584 1831 3584 
Q 2591 3584 2966 3190 
Q 3341 2797 3341 1997 
z
" transform="scale(0.015625)"/>
       <path id="DejaVuSans-74" d="M 1172 4494 
L 1172 3500 
L 2356 3500 
L 2356 3053 
L 1172 3053 
L 1172 1153 
Q 1172 725 1289 603 
Q 1406 481 1766 481 
L 2356 481 
L 2356 0 
L 1766 0 
Q 1100 0 847 248 
Q 594 497 594 1153 
L 594 3053 
L 172 3053 
L 172 3500 
L 594 3500 
L 594 4494 
L 1172 4494 
z
" transform="scale(0.015625)"/>
       <path id="DejaVuSans-6e" d="M 3513 2113 
L 3513 0 
L 2938 0 
L 2938 2094 
Q 2938 2591 2744 2837 
Q 2550 3084 2163 3084 
Q 1697 3084 1428 2787 
Q 1159 2491 1159 1978 
L 1159 0 
L 581 0 
L 581 3500 
L 1159 3500 
L 1159 2956 
Q 1366 3272 1645 3428 
Q 1925 3584 2291 3584 
Q 2894 3584 3203 3211 
Q 3513 2838 3513 2113 
z
" transform="scale(0.015625)"/>
       <path id="DejaVuSans-67" d="M 2906 1791 
Q 2906 2416 2648 2759 
Q 2391 3103 1925 3103 
Q 1463 3103 1205 2759 
Q 947 2416 947 1791 
Q 947 1169 1205 825 
Q 1463 481 1925 481 
Q 2391 481 2648 825 
Q 2906 1169 2906 1791 
z
M 3481 434 
Q 3481 -459 3084 -895 
Q 2688 -1331 1869 -1331 
Q 1566 -1331 1297 -1286 
Q 1028 -1241 775 -1147 
L 775 -588 
Q 1028 -725 1275 -790 
Q 1522 -856 1778 -856 
Q 2344 -856 2625 -561 
Q 2906 -266 2906 331 
L 2906 616 
Q 2728 306 2450 153 
Q 2172 0 1784 0 
Q 1141 0 747 490 
Q 353 981 353 1791 
Q 353 2603 747 3093 
Q 1141 3584 1784 3584 
Q 2172 3584 2450 3431 
Q 2728 3278 2906 2969 
L 2906 3500 
L 3481 3500 
L 3481 434 
z
" transform="scale(0.015625)"/>
      </defs>
      <use xlink:href="#DejaVuSans-47"/>
      <use xlink:href="#DejaVuSans-65" x="77.490234"/>
      <use xlink:href="#DejaVuSans-6d" x="139.013672"/>
      <use xlink:href="#DejaVuSans-69" x="236.425781"/>
      <use xlink:href="#DejaVuSans-64" x="264.208984"/>
      <use xlink:href="#DejaVuSans-64" x="327.685547"/>
      <use xlink:href="#DejaVuSans-65" x="391.162109"/>
      <use xlink:href="#DejaVuSans-6c" x="452.685547"/>
      <use xlink:href="#DejaVuSans-64" x="480.46875"/>
      <use xlink:href="#DejaVuSans-65" x="543.945312"/>
      <use xlink:href="#DejaVuSans-20" x="605.46875"/>
      <use xlink:href="#DejaVuSans-57" x="637.255859"/>
      <use xlink:href="#DejaVuSans-61" x="729.757812"/>
      <use xlink:href="#DejaVuSans-61" x="791.037109"/>
      <use xlink:href="#DejaVuSans-72" x="852.316406"/>
      <use xlink:href="#DejaVuSans-64" x="891.679688"/>
      <use xlink:href="#DejaVuSans-65" x="955.15625"/>
      <use xlink:href="#DejaVuSans-20" x="1016.679688"/>
      <use xlink:href="#DejaVuSans-70" x="1048.466797"/>
      <use xlink:href="#DejaVuSans-65" x="1111.943359"/>
      <use xlink:href="#DejaVuSans-72" x="1173.466797"/>
      <use xlink:href="#DejaVuSans-20" x="1214.580078"/>
      <use xlink:href="#DejaVuSans-4d" x="1246.367188"/>
      <use xlink:href="#DejaVuSans-65" x="1332.646484"/>
      <use xlink:href="#DejaVuSans-74" x="1394.169922"/>
      <use xlink:href="#DejaVuSans-69" x="1433.378906"/>
      <use xlink:href="#DejaVuSans-6e" x="1461.162109"/>
      <use xlink:href="#DejaVuSans-67" x="1524.541016"/>
     </g>
    </g>
   </g>
   <g id="patch_3">
    <path d="M 55.772054 601.816734 
L 55.772054 26.88 
" style="fill: none; stroke: #221f20; stroke-width: 0.8; stroke-linejoin: miter; stroke-linecap: square"/>
   </g>
   <g id="patch_4">
    <path d="M 863.087155 601.816734 
L 863.087155 26.88 
" style="fill: none; stroke: #221f20; stroke-width: 0.8; stroke-linejoin: miter; stroke-linecap: square"/>
   </g>
   <g id="patch_5">
    <path d="M 55.772054 601.816734 
L 863.087155 601.816734 
" style="fill: none; stroke: #221f20; stroke-width: 0.8; stroke-linejoin: miter; stroke-linecap: square"/>
   </g>
   <g id="patch_6">
    <path d="M 55.772054 26.88 
L 863.087155 26.88 
" style="fill: none; stroke: #221f20; stroke-width: 0.8; stroke-linejoin: miter; stroke-linecap: square"/>
   </g>
   <g id="patch_7">
    <path d="M 83.046213 197685.946392 
L 99.410708 197685.946392 
L 99.410708 353.724317 
L 83.046213 353.724317 
z
" clip-path="url(#p48aad7ca55)" style="fill: #d6b863"/>
   </g>
   <g id="patch_8">
    <path d="M 192.142848 197685.946392 
L 208.507343 197685.946392 
L 208.507343 243.961622 
L 192.142848 243.961622 
z
" clip-path="url(#p48aad7ca55)" style="fill: #d6b863"/>
   </g>
   <g id="patch_9">
    <path d="M 301.239483 197685.946392 
L 317.603979 197685.946392 
L 317.603979 481.54361 
L 301.239483 481.54361 
z
" clip-path="url(#p48aad7ca55)" style="fill: #d6b863"/>
   </g>
   <g id="patch_10">
    <path d="M 410.336119 197685.946392 
L 426.700614 197685.946392 
L 426.700614 347.527189 
L 410.336119 347.527189 
z
" clip-path="url(#p48aad7ca55)" style="fill: #d6b863"/>
   </g>
   <g id="patch_11">
    <path d="M 519.432754 197685.946392 
L 535.797249 197685.946392 
L 535.797249 427.045994 
L 519.432754 427.045994 
z
" clip-path="url(#p48aad7ca55)" style="fill: #d6b863"/>
   </g>
   <g id="patch_12">
    <path d="M 628.529389 197685.946392 
L 644.893885 197685.946392 
L 644.893885 220.659733 
L 628.529389 220.659733 
z
" clip-path="url(#p48aad7ca55)" style="fill: #d6b863"/>
   </g>
   <g id="patch_13">
    <path d="M 737.626025 197685.946392 
L 753.99052 197685.946392 
L 753.99052 307.004035 
L 737.626025 307.004035 
z
" clip-path="url(#p48aad7ca55)" style="fill: #d6b863"/>
   </g>
   <g id="patch_14">
    <path d="M 99.410708 197685.946392 
L 115.775203 197685.946392 
L 115.775203 162.635299 
L 99.410708 162.635299 
z
" clip-path="url(#p48aad7ca55)" style="fill: #cf4c48"/>
   </g>
   <g id="patch_15">
    <path d="M 208.507343 197685.946392 
L 224.871839 197685.946392 
L 224.871839 95.32437 
L 208.507343 95.32437 
z
" clip-path="url(#p48aad7ca55)" style="fill: #cf4c48"/>
   </g>
   <g id="patch_16">
    <path d="M 317.603979 197685.946392 
L 333.968474 197685.946392 
L 333.968474 255.403872 
L 317.603979 255.403872 
z
" clip-path="url(#p48aad7ca55)" style="fill: #cf4c48"/>
   </g>
   <g id="patch_17">
    <path d="M 426.700614 197685.946392 
L 443.065109 197685.946392 
L 443.065109 145.943967 
L 426.700614 145.943967 
z
" clip-path="url(#p48aad7ca55)" style="fill: #cf4c48"/>
   </g>
   <g id="patch_18">
    <path d="M 535.797249 197685.946392 
L 552.161745 197685.946392 
L 552.161745 197.725658 
L 535.797249 197.725658 
z
" clip-path="url(#p48aad7ca55)" style="fill: #cf4c48"/>
   </g>
   <g id="patch_19">
    <path d="M 644.893885 197685.946392 
L 661.25838 197685.946392 
L 661.25838 70.123465 
L 644.893885 70.123465 
z
" clip-path="url(#p48aad7ca55)" style="fill: #cf4c48"/>
   </g>
   <g id="patch_20">
    <path d="M 753.99052 197685.946392 
L 770.355015 197685.946392 
L 770.355015 141.871557 
L 753.99052 141.871557 
z
" clip-path="url(#p48aad7ca55)" style="fill: #cf4c48"/>
   </g>
   <g id="patch_21">
    <path d="M 115.775203 197685.946392 
L 132.139699 197685.946392 
L 132.139699 450.033425 
L 115.775203 450.033425 
z
" clip-path="url(#p48aad7ca55)" style="fill: #242b5f"/>
   </g>
   <g id="patch_22">
    <path d="M 224.871839 197685.946392 
L 241.236334 197685.946392 
L 241.236334 351.608417 
L 224.871839 351.608417 
z
" clip-path="url(#p48aad7ca55)" style="fill: #242b5f"/>
   </g>
   <g id="patch_23">
    <path d="M 333.968474 197685.946392 
L 350.332969 197685.946392 
L 350.332969 456.892252 
L 333.968474 456.892252 
z
" clip-path="url(#p48aad7ca55)" style="fill: #242b5f"/>
   </g>
   <g id="patch_24">
    <path d="M 443.065109 197685.946392 
L 459.429605 197685.946392 
L 459.429605 404.952724 
L 443.065109 404.952724 
z
" clip-path="url(#p48aad7ca55)" style="fill: #242b5f"/>
   </g>
   <g id="patch_25">
    <path d="M 552.161745 197685.946392 
L 568.52624 197685.946392 
L 568.52624 401.14367 
L 552.161745 401.14367 
z
" clip-path="url(#p48aad7ca55)" style="fill: #242b5f"/>
   </g>
   <g id="patch_26">
    <path d="M 661.25838 197685.946392 
L 677.622875 197685.946392 
L 677.622875 401.14367 
L 661.25838 401.14367 
z
" clip-path="url(#p48aad7ca55)" style="fill: #242b5f"/>
   </g>
   <g id="patch_27">
    <path d="M 770.355015 197685.946392 
L 786.71951 197685.946392 
L 786.71951 437.771172 
L 770.355015 437.771172 
z
" clip-path="url(#p48aad7ca55)" style="fill: #242b5f"/>
   </g>
   <g id="patch_28">
    <path d="M 132.139699 197685.946392 
L 148.504194 197685.946392 
L 148.504194 288.131692 
L 132.139699 288.131692 
z
" clip-path="url(#p48aad7ca55)" style="fill: #cfcfcf"/>
   </g>
   <g id="patch_29">
    <path d="M 241.236334 197685.946392 
L 257.600829 197685.946392 
L 257.600829 314.799369 
L 241.236334 314.799369 
z
" clip-path="url(#p48aad7ca55)" style="fill: #cfcfcf"/>
   </g>
   <g id="patch_30">
    <path d="M 350.332969 197685.946392 
L 366.697465 197685.946392 
L 366.697465 197685.946392 
L 350.332969 197685.946392 
z
" clip-path="url(#p48aad7ca55)" style="fill: #cfcfcf"/>
   </g>
   <g id="patch_31">
    <path d="M 459.429605 197685.946392 
L 475.7941 197685.946392 
L 475.7941 353.724317 
L 459.429605 353.724317 
z
" clip-path="url(#p48aad7ca55)" style="fill: #cfcfcf"/>
   </g>
   <g id="patch_32">
    <path d="M 568.52624 197685.946392 
L 584.890735 197685.946392 
L 584.890735 197685.946392 
L 568.52624 197685.946392 
z
" clip-path="url(#p48aad7ca55)" style="fill: #cfcfcf"/>
   </g>
   <g id="patch_33">
    <path d="M 677.622875 197685.946392 
L 693.98737 197685.946392 
L 693.98737 261.754153 
L 677.622875 261.754153 
z
" clip-path="url(#p48aad7ca55)" style="fill: #cfcfcf"/>
   </g>
   <g id="patch_34">
    <path d="M 786.71951 197685.946392 
L 803.084006 197685.946392 
L 803.084006 267.04065 
L 786.71951 267.04065 
z
" clip-path="url(#p48aad7ca55)" style="fill: #cfcfcf"/>
   </g>
   <g id="patch_35">
    <path d="M 148.504194 197685.946392 
L 164.868689 197685.946392 
L 164.868689 288.131692 
L 148.504194 288.131692 
z
" clip-path="url(#p48aad7ca55)" style="fill: #a0a0a0"/>
   </g>
   <g id="patch_36">
    <path d="M 257.600829 197685.946392 
L 273.965325 197685.946392 
L 273.965325 202.358656 
L 257.600829 202.358656 
z
" clip-path="url(#p48aad7ca55)" style="fill: #a0a0a0"/>
   </g>
   <g id="patch_37">
    <path d="M 366.697465 197685.946392 
L 383.06196 197685.946392 
L 383.06196 464.348221 
L 366.697465 464.348221 
z
" clip-path="url(#p48aad7ca55)" style="fill: #a0a0a0"/>
   </g>
   <g id="patch_38">
    <path d="M 475.7941 197685.946392 
L 492.158595 197685.946392 
L 492.158595 268.61298 
L 475.7941 268.61298 
z
" clip-path="url(#p48aad7ca55)" style="fill: #a0a0a0"/>
   </g>
   <g id="patch_39">
    <path d="M 584.890735 197685.946392 
L 601.25523 197685.946392 
L 601.25523 355.893789 
L 584.890735 355.893789 
z
" clip-path="url(#p48aad7ca55)" style="fill: #a0a0a0"/>
   </g>
   <g id="patch_40">
    <path d="M 693.98737 197685.946392 
L 710.351866 197685.946392 
L 710.351866 217.543405 
L 693.98737 217.543405 
z
" clip-path="url(#p48aad7ca55)" style="fill: #a0a0a0"/>
   </g>
   <g id="patch_41">
    <path d="M 803.084006 197685.946392 
L 819.448501 197685.946392 
L 819.448501 276.068949 
L 803.084006 276.068949 
z
" clip-path="url(#p48aad7ca55)" style="fill: #a0a0a0"/>
   </g>
   <g id="patch_42">
    <path d="M 164.868689 197685.946392 
L 181.233185 197685.946392 
L 181.233185 481.54361 
L 164.868689 481.54361 
z
" clip-path="url(#p48aad7ca55)" style="fill: #767676"/>
   </g>
   <g id="patch_43">
    <path d="M 273.965325 197685.946392 
L 290.32982 197685.946392 
L 290.32982 401.14367 
L 273.965325 401.14367 
z
" clip-path="url(#p48aad7ca55)" style="fill: #767676"/>
   </g>
   <g id="patch_44">
    <path d="M 383.06196 197685.946392 
L 399.426455 197685.946392 
L 399.426455 575.683246 
L 383.06196 575.683246 
z
" clip-path="url(#p48aad7ca55)" style="fill: #767676"/>
   </g>
   <g id="patch_45">
    <path d="M 492.158595 197685.946392 
L 508.52309 197685.946392 
L 508.52309 491.63639 
L 492.158595 491.63639 
z
" clip-path="url(#p48aad7ca55)" style="fill: #767676"/>
   </g>
   <g id="patch_46">
    <path d="M 601.25523 197685.946392 
L 617.619726 197685.946392 
L 617.619726 575.683246 
L 601.25523 575.683246 
z
" clip-path="url(#p48aad7ca55)" style="fill: #767676"/>
   </g>
   <g id="patch_47">
    <path d="M 710.351866 197685.946392 
L 726.716361 197685.946392 
L 726.716361 390.637928 
L 710.351866 390.637928 
z
" clip-path="url(#p48aad7ca55)" style="fill: #767676"/>
   </g>
   <g id="patch_48">
    <path d="M 819.448501 197685.946392 
L 835.812996 197685.946392 
L 835.812996 456.892252 
L 819.448501 456.892252 
z
" clip-path="url(#p48aad7ca55)" style="fill: #767676"/>
   </g>
   <g id="text_13">
    <!-- Gemiddelde Glans Metingen per kwadrant (RO) -->
    <g style="fill: #221f20" transform="translate(316.943667 20.88) scale(0.12 -0.12)">
     <defs>
      <path id="DejaVuSans-73" d="M 2834 3397 
L 2834 2853 
Q 2591 2978 2328 3040 
Q 2066 3103 1784 3103 
Q 1356 3103 1142 2972 
Q 928 2841 928 2578 
Q 928 2378 1081 2264 
Q 1234 2150 1697 2047 
L 1894 2003 
Q 2506 1872 2764 1633 
Q 3022 1394 3022 966 
Q 3022 478 2636 193 
Q 2250 -91 1575 -91 
Q 1294 -91 989 -36 
Q 684 19 347 128 
L 347 722 
Q 666 556 975 473 
Q 1284 391 1588 391 
Q 1994 391 2212 530 
Q 2431 669 2431 922 
Q 2431 1156 2273 1281 
Q 2116 1406 1581 1522 
L 1381 1569 
Q 847 1681 609 1914 
Q 372 2147 372 2553 
Q 372 3047 722 3315 
Q 1072 3584 1716 3584 
Q 2034 3584 2315 3537 
Q 2597 3491 2834 3397 
z
" transform="scale(0.015625)"/>
      <path id="DejaVuSans-77" d="M 269 3500 
L 844 3500 
L 1563 769 
L 2278 3500 
L 2956 3500 
L 3675 769 
L 4391 3500 
L 4966 3500 
L 4050 0 
L 3372 0 
L 2619 2869 
L 1863 0 
L 1184 0 
L 269 3500 
z
" transform="scale(0.015625)"/>
      <path id="DejaVuSans-28" d="M 1984 4856 
Q 1566 4138 1362 3434 
Q 1159 2731 1159 2009 
Q 1159 1288 1364 580 
Q 1569 -128 1984 -844 
L 1484 -844 
Q 1016 -109 783 600 
Q 550 1309 550 2009 
Q 550 2706 781 3412 
Q 1013 4119 1484 4856 
L 1984 4856 
z
" transform="scale(0.015625)"/>
      <path id="DejaVuSans-52" d="M 2841 2188 
Q 3044 2119 3236 1894 
Q 3428 1669 3622 1275 
L 4263 0 
L 3584 0 
L 2988 1197 
Q 2756 1666 2539 1819 
Q 2322 1972 1947 1972 
L 1259 1972 
L 1259 0 
L 628 0 
L 628 4666 
L 2053 4666 
Q 2853 4666 3247 4331 
Q 3641 3997 3641 3322 
Q 3641 2881 3436 2590 
Q 3231 2300 2841 2188 
z
M 1259 4147 
L 1259 2491 
L 2053 2491 
Q 2509 2491 2742 2702 
Q 2975 2913 2975 3322 
Q 2975 3731 2742 3939 
Q 2509 4147 2053 4147 
L 1259 4147 
z
" transform="scale(0.015625)"/>
      <path id="DejaVuSans-4f" d="M 2522 4238 
Q 1834 4238 1429 3725 
Q 1025 3213 1025 2328 
Q 1025 1447 1429 934 
Q 1834 422 2522 422 
Q 3209 422 3611 934 
Q 4013 1447 4013 2328 
Q 4013 3213 3611 3725 
Q 3209 4238 2522 4238 
z
M 2522 4750 
Q 3503 4750 4090 4092 
Q 4678 3434 4678 2328 
Q 4678 1225 4090 567 
Q 3503 -91 2522 -91 
Q 1538 -91 948 565 
Q 359 1222 359 2328 
Q 359 3434 948 4092 
Q 1538 4750 2522 4750 
z
" transform="scale(0.015625)"/>
      <path id="DejaVuSans-29" d="M 513 4856 
L 1013 4856 
Q 1481 4119 1714 3412 
Q 1947 2706 1947 2009 
Q 1947 1309 1714 600 
Q 1481 -109 1013 -844 
L 513 -844 
Q 928 -128 1133 580 
Q 1338 1288 1338 2009 
Q 1338 2731 1133 3434 
Q 928 4138 513 4856 
z
" transform="scale(0.015625)"/>
     </defs>
     <use xlink:href="#DejaVuSans-47"/>
     <use xlink:href="#DejaVuSans-65" x="77.490234"/>
     <use xlink:href="#DejaVuSans-6d" x="139.013672"/>
     <use xlink:href="#DejaVuSans-69" x="236.425781"/>
     <use xlink:href="#DejaVuSans-64" x="264.208984"/>
     <use xlink:href="#DejaVuSans-64" x="327.685547"/>
     <use xlink:href="#DejaVuSans-65" x="391.162109"/>
     <use xlink:href="#DejaVuSans-6c" x="452.685547"/>
     <use xlink:href="#DejaVuSans-64" x="480.46875"/>
     <use xlink:href="#DejaVuSans-65" x="543.945312"/>
     <use xlink:href="#DejaVuSans-20" x="605.46875"/>
     <use xlink:href="#DejaVuSans-47" x="637.255859"/>
     <use xlink:href="#DejaVuSans-6c" x="714.746094"/>
     <use xlink:href="#DejaVuSans-61" x="742.529297"/>
     <use xlink:href="#DejaVuSans-6e" x="803.808594"/>
     <use xlink:href="#DejaVuSans-73" x="867.1875"/>
     <use xlink:href="#DejaVuSans-20" x="919.287109"/>
     <use xlink:href="#DejaVuSans-4d" x="951.074219"/>
     <use xlink:href="#DejaVuSans-65" x="1037.353516"/>
     <use xlink:href="#DejaVuSans-74" x="1098.876953"/>
     <use xlink:href="#DejaVuSans-69" x="1138.085938"/>
     <use xlink:href="#DejaVuSans-6e" x="1165.869141"/>
     <use xlink:href="#DejaVuSans-67" x="1229.248047"/>
     <use xlink:href="#DejaVuSans-65" x="1292.724609"/>
     <use xlink:href="#DejaVuSans-6e" x="1354.248047"/>
     <use xlink:href="#DejaVuSans-20" x="1417.626953"/>
     <use xlink:href="#DejaVuSans-70" x="1449.414062"/>
     <use xlink:href="#DejaVuSans-65" x="1512.890625"/>
     <use xlink:href="#DejaVuSans-72" x="1574.414062"/>
     <use xlink:href="#DejaVuSans-20" x="1615.527344"/>
     <use xlink:href="#DejaVuSans-6b" x="1647.314453"/>
     <use xlink:href="#DejaVuSans-77" x="1705.224609"/>
     <use xlink:href="#DejaVuSans-61" x="1787.011719"/>
     <use xlink:href="#DejaVuSans-64" x="1848.291016"/>
     <use xlink:href="#DejaVuSans-72" x="1911.767578"/>
     <use xlink:href="#DejaVuSans-61" x="1952.880859"/>
     <use xlink:href="#DejaVuSans-6e" x="2014.160156"/>
     <use xlink:href="#DejaVuSans-74" x="2077.539062"/>
     <use xlink:href="#DejaVuSans-20" x="2116.748047"/>
     <use xlink:href="#DejaVuSans-28" x="2148.535156"/>
     <use xlink:href="#DejaVuSans-52" x="2187.548828"/>
     <use xlink:href="#DejaVuSans-4f" x="2257.03125"/>
     <use xlink:href="#DejaVuSans-29" x="2335.742188"/>
    </g>
   </g>
   <g id="legend_1">
    <g id="patch_49">
     <path d="M 62.772054 137.626875 
L 124.929866 137.626875 
Q 126.929866 137.626875 126.929866 135.626875 
L 126.929866 33.88 
Q 126.929866 31.88 124.929866 31.88 
L 62.772054 31.88 
Q 60.772054 31.88 60.772054 33.88 
L 60.772054 135.626875 
Q 60.772054 137.626875 62.772054 137.626875 
z
" style="fill: #ffffff; opacity: 0.8; stroke: #cccccc; stroke-linejoin: miter"/>
    </g>
    <g id="text_14">
     <!-- Metingen -->
     <g transform="translate(70.522835 43.478438) scale(0.1 -0.1)">
      <use xlink:href="#DejaVuSans-4d"/>
      <use xlink:href="#DejaVuSans-65" x="86.279297"/>
      <use xlink:href="#DejaVuSans-74" x="147.802734"/>
      <use xlink:href="#DejaVuSans-69" x="187.011719"/>
      <use xlink:href="#DejaVuSans-6e" x="214.794922"/>
      <use xlink:href="#DejaVuSans-67" x="278.173828"/>
      <use xlink:href="#DejaVuSans-65" x="341.650391"/>
      <use xlink:href="#DejaVuSans-6e" x="403.173828"/>
     </g>
    </g>
    <g id="patch_50">
     <path d="M 64.772054 58.156563 
L 84.772054 58.156563 
L 84.772054 51.156563 
L 64.772054 51.156563 
z
" style="fill: #d6b863"/>
    </g>
    <g id="text_15">
     <!-- 20 -->
     <g transform="translate(92.772054 58.156563) scale(0.1 -0.1)">
      <use xlink:href="#DejaVuSans-32"/>
      <use xlink:href="#DejaVuSans-30" x="63.623047"/>
     </g>
    </g>
    <g id="patch_51">
     <path d="M 64.772054 72.834688 
L 84.772054 72.834688 
L 84.772054 65.834688 
L 64.772054 65.834688 
z
" style="fill: #cf4c48"/>
    </g>
    <g id="text_16">
     <!-- 60 -->
     <g transform="translate(92.772054 72.834688) scale(0.1 -0.1)">
      <use xlink:href="#DejaVuSans-36"/>
      <use xlink:href="#DejaVuSans-30" x="63.623047"/>
     </g>
    </g>
    <g id="patch_52">
     <path d="M 64.772054 87.512813 
L 84.772054 87.512813 
L 84.772054 80.512813 
L 64.772054 80.512813 
z
" style="fill: #242b5f"/>
    </g>
    <g id="text_17">
     <!-- 85 -->
     <g transform="translate(92.772054 87.512813) scale(0.1 -0.1)">
      <defs>
       <path id="DejaVuSans-38" d="M 2034 2216 
Q 1584 2216 1326 1975 
Q 1069 1734 1069 1313 
Q 1069 891 1326 650 
Q 1584 409 2034 409 
Q 2484 409 2743 651 
Q 3003 894 3003 1313 
Q 3003 1734 2745 1975 
Q 2488 2216 2034 2216 
z
M 1403 2484 
Q 997 2584 770 2862 
Q 544 3141 544 3541 
Q 544 4100 942 4425 
Q 1341 4750 2034 4750 
Q 2731 4750 3128 4425 
Q 3525 4100 3525 3541 
Q 3525 3141 3298 2862 
Q 3072 2584 2669 2484 
Q 3125 2378 3379 2068 
Q 3634 1759 3634 1313 
Q 3634 634 3220 271 
Q 2806 -91 2034 -91 
Q 1263 -91 848 271 
Q 434 634 434 1313 
Q 434 1759 690 2068 
Q 947 2378 1403 2484 
z
M 1172 3481 
Q 1172 3119 1398 2916 
Q 1625 2713 2034 2713 
Q 2441 2713 2670 2916 
Q 2900 3119 2900 3481 
Q 2900 3844 2670 4047 
Q 2441 4250 2034 4250 
Q 1625 4250 1398 4047 
Q 1172 3844 1172 3481 
z
" transform="scale(0.015625)"/>
      </defs>
      <use xlink:href="#DejaVuSans-38"/>
      <use xlink:href="#DejaVuSans-35" x="63.623047"/>
     </g>
    </g>
    <g id="patch_53">
     <path d="M 64.772054 102.190938 
L 84.772054 102.190938 
L 84.772054 95.190938 
L 64.772054 95.190938 
z
" style="fill: #cfcfcf"/>
    </g>
    <g id="text_18">
     <!-- DOI -->
     <g transform="translate(92.772054 102.190938) scale(0.1 -0.1)">
      <defs>
       <path id="DejaVuSans-44" d="M 1259 4147 
L 1259 519 
L 2022 519 
Q 2988 519 3436 956 
Q 3884 1394 3884 2338 
Q 3884 3275 3436 3711 
Q 2988 4147 2022 4147 
L 1259 4147 
z
M 628 4666 
L 1925 4666 
Q 3281 4666 3915 4102 
Q 4550 3538 4550 2338 
Q 4550 1131 3912 565 
Q 3275 0 1925 0 
L 628 0 
L 628 4666 
z
" transform="scale(0.015625)"/>
       <path id="DejaVuSans-49" d="M 628 4666 
L 1259 4666 
L 1259 0 
L 628 0 
L 628 4666 
z
" transform="scale(0.015625)"/>
      </defs>
      <use xlink:href="#DejaVuSans-44"/>
      <use xlink:href="#DejaVuSans-4f" x="77.001953"/>
      <use xlink:href="#DejaVuSans-49" x="155.712891"/>
     </g>
    </g>
    <g id="patch_54">
     <path d="M 64.772054 116.869063 
L 84.772054 116.869063 
L 84.772054 109.869063 
L 64.772054 109.869063 
z
" style="fill: #a0a0a0"/>
    </g>
    <g id="text_19">
     <!-- Haze -->
     <g transform="translate(92.772054 116.869063) scale(0.1 -0.1)">
      <defs>
       <path id="DejaVuSans-48" d="M 628 4666 
L 1259 4666 
L 1259 2753 
L 3553 2753 
L 3553 4666 
L 4184 4666 
L 4184 0 
L 3553 0 
L 3553 2222 
L 1259 2222 
L 1259 0 
L 628 0 
L 628 4666 
z
" transform="scale(0.015625)"/>
       <path id="DejaVuSans-7a" d="M 353 3500 
L 3084 3500 
L 3084 2975 
L 922 459 
L 3084 459 
L 3084 0 
L 275 0 
L 275 525 
L 2438 3041 
L 353 3041 
L 353 3500 
z
" transform="scale(0.015625)"/>
      </defs>
      <use xlink:href="#DejaVuSans-48"/>
      <use xlink:href="#DejaVuSans-61" x="75.195312"/>
      <use xlink:href="#DejaVuSans-7a" x="136.474609"/>
      <use xlink:href="#DejaVuSans-65" x="188.964844"/>
     </g>
    </g>
    <g id="patch_55">
     <path d="M 64.772054 131.547188 
L 84.772054 131.547188 
L 84.772054 124.547188 
L 64.772054 124.547188 
z
" style="fill: #767676"/>
    </g>
    <g id="text_20">
     <!-- Rspec -->
     <g transform="translate(92.772054 131.547188) scale(0.1 -0.1)">
      <use xlink:href="#DejaVuSans-52"/>
      <use xlink:href="#DejaVuSans-73" x="69.482422"/>
      <use xlink:href="#DejaVuSans-70" x="121.582031"/>
      <use xlink:href="#DejaVuSans-65" x="185.058594"/>
      <use xlink:href="#DejaVuSans-63" x="246.582031"/>
     </g>
    </g>
   </g>
  </g>
  <g id="axes_2">
   <g id="patch_56">
    <path d="M 877.387155 601.816734 
L 992.717884 601.816734 
L 992.717884 26.88 
L 877.387155 26.88 
z
" style="fill: #ffffff"/>
   </g>
   <g id="patch_57">
    <path d="M 881.892262 197685.946392 
L 898.110646 197685.946392 
L 898.110646 160.812047 
L 881.892262 160.812047 
z
" clip-path="url(#pbdb044cae3)" style="fill: #d6b863"/>
   </g>
   <g id="patch_58">
    <path d="M 899.912688 197685.946392 
L 916.131072 197685.946392 
L 916.131072 53.013488 
L 899.912688 53.013488 
z
" clip-path="url(#pbdb044cae3)" style="fill: #cf4c48"/>
   </g>
   <g id="patch_59">
    <path d="M 917.933115 197685.946392 
L 934.151498 197685.946392 
L 934.151498 370.208585 
L 917.933115 370.208585 
z
" clip-path="url(#pbdb044cae3)" style="fill: #242b5f"/>
   </g>
   <g id="patch_60">
    <path d="M 935.953541 197685.946392 
L 952.171925 197685.946392 
L 952.171925 301.009312 
L 935.953541 301.009312 
z
" clip-path="url(#pbdb044cae3)" style="fill: #cfcfcf"/>
   </g>
   <g id="patch_61">
    <path d="M 953.973967 197685.946392 
L 970.192351 197685.946392 
L 970.192351 130.384124 
L 953.973967 130.384124 
z
" clip-path="url(#pbdb044cae3)" style="fill: #a0a0a0"/>
   </g>
   <g id="patch_62">
    <path d="M 971.994394 197685.946392 
L 988.212777 197685.946392 
L 988.212777 320.420373 
L 971.994394 320.420373 
z
" clip-path="url(#pbdb044cae3)" style="fill: #767676"/>
   </g>
   <g id="matplotlib.axis_3">
    <g id="xtick_8">
     <g id="line2d_40">
      <g>
       <use xlink:href="#m52e2857c19" x="890.001454" y="601.816734" style="fill: #221f20; stroke: #221f20; stroke-width: 0.8"/>
      </g>
     </g>
     <g id="text_21">
      <!-- 20 -->
      <g style="fill: #221f20" transform="translate(887.45366 623.187574) rotate(-45) scale(0.1 -0.1)">
       <use xlink:href="#DejaVuSans-32"/>
       <use xlink:href="#DejaVuSans-30" x="63.623047"/>
      </g>
     </g>
    </g>
    <g id="xtick_9">
     <g id="line2d_41">
      <g>
       <use xlink:href="#m52e2857c19" x="908.02188" y="601.816734" style="fill: #221f20; stroke: #221f20; stroke-width: 0.8"/>
      </g>
     </g>
     <g id="text_22">
      <!-- 60 -->
      <g style="fill: #221f20" transform="translate(905.474086 623.187574) rotate(-45) scale(0.1 -0.1)">
       <use xlink:href="#DejaVuSans-36"/>
       <use xlink:href="#DejaVuSans-30" x="63.623047"/>
      </g>
     </g>
    </g>
    <g id="xtick_10">
     <g id="line2d_42">
      <g>
       <use xlink:href="#m52e2857c19" x="926.042306" y="601.816734" style="fill: #221f20; stroke: #221f20; stroke-width: 0.8"/>
      </g>
     </g>
     <g id="text_23">
      <!-- 85 -->
      <g style="fill: #221f20" transform="translate(923.494512 623.187574) rotate(-45) scale(0.1 -0.1)">
       <use xlink:href="#DejaVuSans-38"/>
       <use xlink:href="#DejaVuSans-35" x="63.623047"/>
      </g>
     </g>
    </g>
    <g id="xtick_11">
     <g id="line2d_43">
      <g>
       <use xlink:href="#m52e2857c19" x="944.062733" y="601.816734" style="fill: #221f20; stroke: #221f20; stroke-width: 0.8"/>
      </g>
     </g>
     <g id="text_24">
      <!-- DOI -->
      <g style="fill: #221f20" transform="translate(939.465434 627.286584) rotate(-45) scale(0.1 -0.1)">
       <use xlink:href="#DejaVuSans-44"/>
       <use xlink:href="#DejaVuSans-4f" x="77.001953"/>
       <use xlink:href="#DejaVuSans-49" x="155.712891"/>
      </g>
     </g>
    </g>
    <g id="xtick_12">
     <g id="line2d_44">
      <g>
       <use xlink:href="#m52e2857c19" x="962.083159" y="601.816734" style="fill: #221f20; stroke: #221f20; stroke-width: 0.8"/>
      </g>
     </g>
     <g id="text_25">
      <!-- Haze -->
      <g style="fill: #221f20" transform="translate(955.177819 631.902665) rotate(-45) scale(0.1 -0.1)">
       <use xlink:href="#DejaVuSans-48"/>
       <use xlink:href="#DejaVuSans-61" x="75.195312"/>
       <use xlink:href="#DejaVuSans-7a" x="136.474609"/>
       <use xlink:href="#DejaVuSans-65" x="188.964844"/>
      </g>
     </g>
    </g>
    <g id="xtick_13">
     <g id="line2d_45">
      <g>
       <use xlink:href="#m52e2857c19" x="980.103585" y="601.816734" style="fill: #221f20; stroke: #221f20; stroke-width: 0.8"/>
      </g>
     </g>
     <g id="text_26">
      <!-- Rspec -->
      <g style="fill: #221f20" transform="translate(971.392361 635.514434) rotate(-45) scale(0.1 -0.1)">
       <use xlink:href="#DejaVuSans-52"/>
       <use xlink:href="#DejaVuSans-73" x="69.482422"/>
       <use xlink:href="#DejaVuSans-70" x="121.582031"/>
       <use xlink:href="#DejaVuSans-65" x="185.058594"/>
       <use xlink:href="#DejaVuSans-63" x="246.582031"/>
      </g>
     </g>
    </g>
   </g>
   <g id="matplotlib.axis_4">
    <g id="ytick_27">
     <g id="line2d_46">
      <path d="M 877.387155 575.683246 
L 992.717884 575.683246 
" clip-path="url(#pbdb044cae3)" style="fill: none; stroke-dasharray: 2.96,1.28; stroke-dashoffset: 0; stroke: #c5c5c4; stroke-opacity: 0.7; stroke-width: 0.8"/>
     </g>
     <g id="line2d_47">
      <g>
       <use xlink:href="#m58047cc7d8" x="877.387155" y="575.683246" style="fill: #221f20; stroke: #221f20; stroke-width: 0.8"/>
      </g>
     </g>
    </g>
    <g id="ytick_28">
     <g id="line2d_48">
      <path d="M 877.387155 378.375675 
L 992.717884 378.375675 
" clip-path="url(#pbdb044cae3)" style="fill: none; stroke-dasharray: 2.96,1.28; stroke-dashoffset: 0; stroke: #c5c5c4; stroke-opacity: 0.7; stroke-width: 0.8"/>
     </g>
     <g id="line2d_49">
      <g>
       <use xlink:href="#m58047cc7d8" x="877.387155" y="378.375675" style="fill: #221f20; stroke: #221f20; stroke-width: 0.8"/>
      </g>
     </g>
    </g>
    <g id="ytick_29">
     <g id="line2d_50">
      <path d="M 877.387155 181.068104 
L 992.717884 181.068104 
" clip-path="url(#pbdb044cae3)" style="fill: none; stroke-dasharray: 2.96,1.28; stroke-dashoffset: 0; stroke: #c5c5c4; stroke-opacity: 0.7; stroke-width: 0.8"/>
     </g>
     <g id="line2d_51">
      <g>
       <use xlink:href="#m58047cc7d8" x="877.387155" y="181.068104" style="fill: #221f20; stroke: #221f20; stroke-width: 0.8"/>
      </g>
     </g>
    </g>
    <g id="ytick_30">
     <g id="line2d_52">
      <g>
       <use xlink:href="#m20e0fb743a" x="877.387155" y="594.804325" style="stroke: #000000; stroke-width: 0.6"/>
      </g>
     </g>
    </g>
    <g id="ytick_31">
     <g id="line2d_53">
      <g>
       <use xlink:href="#m20e0fb743a" x="877.387155" y="584.711545" style="stroke: #000000; stroke-width: 0.6"/>
      </g>
     </g>
    </g>
    <g id="ytick_32">
     <g id="line2d_54">
      <g>
       <use xlink:href="#m20e0fb743a" x="877.387155" y="516.287749" style="stroke: #000000; stroke-width: 0.6"/>
      </g>
     </g>
    </g>
    <g id="ytick_33">
     <g id="line2d_55">
      <g>
       <use xlink:href="#m20e0fb743a" x="877.387155" y="481.54361" style="stroke: #000000; stroke-width: 0.6"/>
      </g>
     </g>
    </g>
    <g id="ytick_34">
     <g id="line2d_56">
      <g>
       <use xlink:href="#m20e0fb743a" x="877.387155" y="456.892252" style="stroke: #000000; stroke-width: 0.6"/>
      </g>
     </g>
    </g>
    <g id="ytick_35">
     <g id="line2d_57">
      <g>
       <use xlink:href="#m20e0fb743a" x="877.387155" y="437.771172" style="stroke: #000000; stroke-width: 0.6"/>
      </g>
     </g>
    </g>
    <g id="ytick_36">
     <g id="line2d_58">
      <g>
       <use xlink:href="#m20e0fb743a" x="877.387155" y="422.148113" style="stroke: #000000; stroke-width: 0.6"/>
      </g>
     </g>
    </g>
    <g id="ytick_37">
     <g id="line2d_59">
      <g>
       <use xlink:href="#m20e0fb743a" x="877.387155" y="408.939005" style="stroke: #000000; stroke-width: 0.6"/>
      </g>
     </g>
    </g>
    <g id="ytick_38">
     <g id="line2d_60">
      <g>
       <use xlink:href="#m20e0fb743a" x="877.387155" y="397.496754" style="stroke: #000000; stroke-width: 0.6"/>
      </g>
     </g>
    </g>
    <g id="ytick_39">
     <g id="line2d_61">
      <g>
       <use xlink:href="#m20e0fb743a" x="877.387155" y="387.403974" style="stroke: #000000; stroke-width: 0.6"/>
      </g>
     </g>
    </g>
    <g id="ytick_40">
     <g id="line2d_62">
      <g>
       <use xlink:href="#m20e0fb743a" x="877.387155" y="318.980178" style="stroke: #000000; stroke-width: 0.6"/>
      </g>
     </g>
    </g>
    <g id="ytick_41">
     <g id="line2d_63">
      <g>
       <use xlink:href="#m20e0fb743a" x="877.387155" y="284.236039" style="stroke: #000000; stroke-width: 0.6"/>
      </g>
     </g>
    </g>
    <g id="ytick_42">
     <g id="line2d_64">
      <g>
       <use xlink:href="#m20e0fb743a" x="877.387155" y="259.584681" style="stroke: #000000; stroke-width: 0.6"/>
      </g>
     </g>
    </g>
    <g id="ytick_43">
     <g id="line2d_65">
      <g>
       <use xlink:href="#m20e0fb743a" x="877.387155" y="240.463602" style="stroke: #000000; stroke-width: 0.6"/>
      </g>
     </g>
    </g>
    <g id="ytick_44">
     <g id="line2d_66">
      <g>
       <use xlink:href="#m20e0fb743a" x="877.387155" y="224.840542" style="stroke: #000000; stroke-width: 0.6"/>
      </g>
     </g>
    </g>
    <g id="ytick_45">
     <g id="line2d_67">
      <g>
       <use xlink:href="#m20e0fb743a" x="877.387155" y="211.631434" style="stroke: #000000; stroke-width: 0.6"/>
      </g>
     </g>
    </g>
    <g id="ytick_46">
     <g id="line2d_68">
      <g>
       <use xlink:href="#m20e0fb743a" x="877.387155" y="200.189184" style="stroke: #000000; stroke-width: 0.6"/>
      </g>
     </g>
    </g>
    <g id="ytick_47">
     <g id="line2d_69">
      <g>
       <use xlink:href="#m20e0fb743a" x="877.387155" y="190.096404" style="stroke: #000000; stroke-width: 0.6"/>
      </g>
     </g>
    </g>
    <g id="ytick_48">
     <g id="line2d_70">
      <g>
       <use xlink:href="#m20e0fb743a" x="877.387155" y="121.672607" style="stroke: #000000; stroke-width: 0.6"/>
      </g>
     </g>
    </g>
    <g id="ytick_49">
     <g id="line2d_71">
      <g>
       <use xlink:href="#m20e0fb743a" x="877.387155" y="86.928469" style="stroke: #000000; stroke-width: 0.6"/>
      </g>
     </g>
    </g>
    <g id="ytick_50">
     <g id="line2d_72">
      <g>
       <use xlink:href="#m20e0fb743a" x="877.387155" y="62.27711" style="stroke: #000000; stroke-width: 0.6"/>
      </g>
     </g>
    </g>
    <g id="ytick_51">
     <g id="line2d_73">
      <g>
       <use xlink:href="#m20e0fb743a" x="877.387155" y="43.156031" style="stroke: #000000; stroke-width: 0.6"/>
      </g>
     </g>
    </g>
    <g id="ytick_52">
     <g id="line2d_74">
      <g>
       <use xlink:href="#m20e0fb743a" x="877.387155" y="27.532972" style="stroke: #000000; stroke-width: 0.6"/>
      </g>
     </g>
    </g>
   </g>
   <g id="patch_63">
    <path d="M 877.387155 601.816734 
L 877.387155 26.88 
" style="fill: none; stroke: #221f20; stroke-width: 0.8; stroke-linejoin: miter; stroke-linecap: square"/>
   </g>
   <g id="patch_64">
    <path d="M 992.717884 601.816734 
L 992.717884 26.88 
" style="fill: none; stroke: #221f20; stroke-width: 0.8; stroke-linejoin: miter; stroke-linecap: square"/>
   </g>
   <g id="patch_65">
    <path d="M 877.387155 601.816734 
L 992.717884 601.816734 
" style="fill: none; stroke: #221f20; stroke-width: 0.8; stroke-linejoin: miter; stroke-linecap: square"/>
   </g>
   <g id="patch_66">
    <path d="M 877.387155 26.88 
L 992.717884 26.88 
" style="fill: none; stroke: #221f20; stroke-width: 0.8; stroke-linejoin: miter; stroke-linecap: square"/>
   </g>
   <g id="text_27">
    <!-- Referentie kabinet -->
    <g style="fill: #221f20" transform="translate(879.84502 20.88) scale(0.12 -0.12)">
     <defs>
      <path id="DejaVuSans-66" d="M 2375 4863 
L 2375 4384 
L 1825 4384 
Q 1516 4384 1395 4259 
Q 1275 4134 1275 3809 
L 1275 3500 
L 2222 3500 
L 2222 3053 
L 1275 3053 
L 1275 0 
L 697 0 
L 697 3053 
L 147 3053 
L 147 3500 
L 697 3500 
L 697 3744 
Q 697 4328 969 4595 
Q 1241 4863 1831 4863 
L 2375 4863 
z
" transform="scale(0.015625)"/>
      <path id="DejaVuSans-62" d="M 3116 1747 
Q 3116 2381 2855 2742 
Q 2594 3103 2138 3103 
Q 1681 3103 1420 2742 
Q 1159 2381 1159 1747 
Q 1159 1113 1420 752 
Q 1681 391 2138 391 
Q 2594 391 2855 752 
Q 3116 1113 3116 1747 
z
M 1159 2969 
Q 1341 3281 1617 3432 
Q 1894 3584 2278 3584 
Q 2916 3584 3314 3078 
Q 3713 2572 3713 1747 
Q 3713 922 3314 415 
Q 2916 -91 2278 -91 
Q 1894 -91 1617 61 
Q 1341 213 1159 525 
L 1159 0 
L 581 0 
L 581 4863 
L 1159 4863 
L 1159 2969 
z
" transform="scale(0.015625)"/>
     </defs>
     <use xlink:href="#DejaVuSans-52"/>
     <use xlink:href="#DejaVuSans-65" x="64.982422"/>
     <use xlink:href="#DejaVuSans-66" x="126.505859"/>
     <use xlink:href="#DejaVuSans-65" x="161.710938"/>
     <use xlink:href="#DejaVuSans-72" x="223.234375"/>
     <use xlink:href="#DejaVuSans-65" x="262.097656"/>
     <use xlink:href="#DejaVuSans-6e" x="323.621094"/>
     <use xlink:href="#DejaVuSans-74" x="387"/>
     <use xlink:href="#DejaVuSans-69" x="426.208984"/>
     <use xlink:href="#DejaVuSans-65" x="453.992188"/>
     <use xlink:href="#DejaVuSans-20" x="515.515625"/>
     <use xlink:href="#DejaVuSans-6b" x="547.302734"/>
     <use xlink:href="#DejaVuSans-61" x="603.462891"/>
     <use xlink:href="#DejaVuSans-62" x="664.742188"/>
     <use xlink:href="#DejaVuSans-69" x="728.21875"/>
     <use xlink:href="#DejaVuSans-6e" x="756.001953"/>
     <use xlink:href="#DejaVuSans-65" x="819.380859"/>
     <use xlink:href="#DejaVuSans-74" x="880.904297"/>
    </g>
   </g>
  </g>
 </g>
 <defs>
  <clipPath id="p48aad7ca55">
   <rect x="55.772054" y="26.88" width="807.315101" height="574.936734"/>
  </clipPath>
  <clipPath id="pbdb044cae3">
   <rect x="877.387155" y="26.88" width="115.330729" height="574.936734"/>
  </clipPath>
 </defs>
</svg>
