<?xml version="1.0" encoding="utf-8" standalone="no"?>
<!DOCTYPE svg PUBLIC "-//W3C//DTD SVG 1.1//EN"
  "http://www.w3.org/Graphics/SVG/1.1/DTD/svg11.dtd">
<svg xmlns:xlink="http://www.w3.org/1999/xlink" width="1440pt" height="882.24pt" viewBox="0 0 1440 882.24" xmlns="http://www.w3.org/2000/svg" version="1.1">
 <metadata>
  <rdf:RDF xmlns:dc="http://purl.org/dc/elements/1.1/" xmlns:cc="http://creativecommons.org/ns#" xmlns:rdf="http://www.w3.org/1999/02/22-rdf-syntax-ns#">
   <cc:Work>
    <dc:type rdf:resource="http://purl.org/dc/dcmitype/StillImage"/>
    <dc:date>2024-05-26T18:50:37.864952</dc:date>
    <dc:format>image/svg+xml</dc:format>
    <dc:creator>
     <cc:Agent>
      <dc:title>Matplotlib v3.8.0, https://matplotlib.org/</dc:title>
     </cc:Agent>
    </dc:creator>
   </cc:Work>
  </rdf:RDF>
 </metadata>
 <defs>
  <style type="text/css">*{stroke-linejoin: round; stroke-linecap: butt}</style>
 </defs>
 <g id="figure_1">
  <g id="patch_1">
   <path d="M 0 882.24 
L 1440 882.24 
L 1440 0 
L 0 0 
z
" style="fill: #ffffff"/>
  </g>
  <g id="axes_1">
   <g id="patch_2">
    <path d="M 92.953423 817.971267 
L 1422 817.971267 
L 1422 41.1712 
L 92.953423 41.1712 
z
" style="fill: #ffffff"/>
   </g>
   <g id="line2d_1">
    <path d="M 163.109931 817.971267 
L 163.109931 41.1712 
" clip-path="url(#p8926031362)" style="fill: none; stroke: #f6f6f6; stroke-width: 40; stroke-linecap: square"/>
   </g>
   <g id="line2d_2">
    <path d="M 248.019471 817.971267 
L 248.019471 41.1712 
" clip-path="url(#p8926031362)" style="fill: none; stroke: #f6f6f6; stroke-width: 40; stroke-linecap: square"/>
   </g>
   <g id="line2d_3">
    <path d="M 332.929011 817.971267 
L 332.929011 41.1712 
" clip-path="url(#p8926031362)" style="fill: none; stroke: #f6f6f6; stroke-width: 40; stroke-linecap: square"/>
   </g>
   <g id="line2d_4">
    <path d="M 417.838551 817.971267 
L 417.838551 41.1712 
" clip-path="url(#p8926031362)" style="fill: none; stroke: #f6f6f6; stroke-width: 40; stroke-linecap: square"/>
   </g>
   <g id="line2d_5">
    <path d="M 502.748091 817.971267 
L 502.748091 41.1712 
" clip-path="url(#p8926031362)" style="fill: none; stroke: #f6f6f6; stroke-width: 40; stroke-linecap: square"/>
   </g>
   <g id="line2d_6">
    <path d="M 587.657631 817.971267 
L 587.657631 41.1712 
" clip-path="url(#p8926031362)" style="fill: none; stroke: #f6f6f6; stroke-width: 40; stroke-linecap: square"/>
   </g>
   <g id="line2d_7">
    <path d="M 672.567171 817.971267 
L 672.567171 41.1712 
" clip-path="url(#p8926031362)" style="fill: none; stroke: #f6f6f6; stroke-width: 40; stroke-linecap: square"/>
   </g>
   <g id="line2d_8">
    <path d="M 757.476712 817.971267 
L 757.476712 41.1712 
" clip-path="url(#p8926031362)" style="fill: none; stroke: #f6f6f6; stroke-width: 40; stroke-linecap: square"/>
   </g>
   <g id="line2d_9">
    <path d="M 842.386252 817.971267 
L 842.386252 41.1712 
" clip-path="url(#p8926031362)" style="fill: none; stroke: #f6f6f6; stroke-width: 40; stroke-linecap: square"/>
   </g>
   <g id="line2d_10">
    <path d="M 927.295792 817.971267 
L 927.295792 41.1712 
" clip-path="url(#p8926031362)" style="fill: none; stroke: #f6f6f6; stroke-width: 40; stroke-linecap: square"/>
   </g>
   <g id="line2d_11">
    <path d="M 1012.205332 817.971267 
L 1012.205332 41.1712 
" clip-path="url(#p8926031362)" style="fill: none; stroke: #f6f6f6; stroke-width: 40; stroke-linecap: square"/>
   </g>
   <g id="line2d_12">
    <path d="M 1097.114872 817.971267 
L 1097.114872 41.1712 
" clip-path="url(#p8926031362)" style="fill: none; stroke: #f6f6f6; stroke-width: 40; stroke-linecap: square"/>
   </g>
   <g id="line2d_13">
    <path d="M 1182.024412 817.971267 
L 1182.024412 41.1712 
" clip-path="url(#p8926031362)" style="fill: none; stroke: #f6f6f6; stroke-width: 40; stroke-linecap: square"/>
   </g>
   <g id="line2d_14">
    <path d="M 1266.933952 817.971267 
L 1266.933952 41.1712 
" clip-path="url(#p8926031362)" style="fill: none; stroke: #f6f6f6; stroke-width: 40; stroke-linecap: square"/>
   </g>
   <g id="line2d_15">
    <path d="M 1351.843492 817.971267 
L 1351.843492 41.1712 
" clip-path="url(#p8926031362)" style="fill: none; stroke: #f6f6f6; stroke-width: 40; stroke-linecap: square"/>
   </g>
   <g id="matplotlib.axis_1">
    <g id="xtick_1">
     <g id="line2d_16">
      <defs>
       <path id="mdf1a3b8cc8" d="M 0 0 
L 0 3.5 
" style="stroke: #000000; stroke-width: 0.8"/>
      </defs>
      <g>
       <use xlink:href="#mdf1a3b8cc8" x="120.655161" y="817.971267" style="stroke: #000000; stroke-width: 0.8"/>
      </g>
     </g>
     <g id="text_1">
      <!-- 1lb -->
      <g transform="translate(112.910629 832.569704) scale(0.1 -0.1)">
       <defs>
        <path id="DejaVuSans-31" d="M 794 531 
L 1825 531 
L 1825 4091 
L 703 3866 
L 703 4441 
L 1819 4666 
L 2450 4666 
L 2450 531 
L 3481 531 
L 3481 0 
L 794 0 
L 794 531 
z
" transform="scale(0.015625)"/>
        <path id="DejaVuSans-6c" d="M 603 4863 
L 1178 4863 
L 1178 0 
L 603 0 
L 603 4863 
z
" transform="scale(0.015625)"/>
        <path id="DejaVuSans-62" d="M 3116 1747 
Q 3116 2381 2855 2742 
Q 2594 3103 2138 3103 
Q 1681 3103 1420 2742 
Q 1159 2381 1159 1747 
Q 1159 1113 1420 752 
Q 1681 391 2138 391 
Q 2594 391 2855 752 
Q 3116 1113 3116 1747 
z
M 1159 2969 
Q 1341 3281 1617 3432 
Q 1894 3584 2278 3584 
Q 2916 3584 3314 3078 
Q 3713 2572 3713 1747 
Q 3713 922 3314 415 
Q 2916 -91 2278 -91 
Q 1894 -91 1617 61 
Q 1341 213 1159 525 
L 1159 0 
L 581 0 
L 581 4863 
L 1159 4863 
L 1159 2969 
z
" transform="scale(0.015625)"/>
       </defs>
       <use xlink:href="#DejaVuSans-31"/>
       <use xlink:href="#DejaVuSans-6c" x="63.623047"/>
       <use xlink:href="#DejaVuSans-62" x="91.40625"/>
      </g>
     </g>
    </g>
    <g id="xtick_2">
     <g id="line2d_17">
      <g>
       <use xlink:href="#mdf1a3b8cc8" x="163.109931" y="817.971267" style="stroke: #000000; stroke-width: 0.8"/>
      </g>
     </g>
     <g id="text_2">
      <!-- 1lo -->
      <g transform="translate(155.480243 832.569704) scale(0.1 -0.1)">
       <defs>
        <path id="DejaVuSans-6f" d="M 1959 3097 
Q 1497 3097 1228 2736 
Q 959 2375 959 1747 
Q 959 1119 1226 758 
Q 1494 397 1959 397 
Q 2419 397 2687 759 
Q 2956 1122 2956 1747 
Q 2956 2369 2687 2733 
Q 2419 3097 1959 3097 
z
M 1959 3584 
Q 2709 3584 3137 3096 
Q 3566 2609 3566 1747 
Q 3566 888 3137 398 
Q 2709 -91 1959 -91 
Q 1206 -91 779 398 
Q 353 888 353 1747 
Q 353 2609 779 3096 
Q 1206 3584 1959 3584 
z
" transform="scale(0.015625)"/>
       </defs>
       <use xlink:href="#DejaVuSans-31"/>
       <use xlink:href="#DejaVuSans-6c" x="63.623047"/>
       <use xlink:href="#DejaVuSans-6f" x="91.40625"/>
      </g>
     </g>
    </g>
    <g id="xtick_3">
     <g id="line2d_18">
      <g>
       <use xlink:href="#mdf1a3b8cc8" x="205.564701" y="817.971267" style="stroke: #000000; stroke-width: 0.8"/>
      </g>
     </g>
     <g id="text_3">
      <!-- 1rb -->
      <g transform="translate(197.153763 832.569704) scale(0.1 -0.1)">
       <defs>
        <path id="DejaVuSans-72" d="M 2631 2963 
Q 2534 3019 2420 3045 
Q 2306 3072 2169 3072 
Q 1681 3072 1420 2755 
Q 1159 2438 1159 1844 
L 1159 0 
L 581 0 
L 581 3500 
L 1159 3500 
L 1159 2956 
Q 1341 3275 1631 3429 
Q 1922 3584 2338 3584 
Q 2397 3584 2469 3576 
Q 2541 3569 2628 3553 
L 2631 2963 
z
" transform="scale(0.015625)"/>
       </defs>
       <use xlink:href="#DejaVuSans-31"/>
       <use xlink:href="#DejaVuSans-72" x="63.623047"/>
       <use xlink:href="#DejaVuSans-62" x="104.736328"/>
      </g>
     </g>
    </g>
    <g id="xtick_4">
     <g id="line2d_19">
      <g>
       <use xlink:href="#mdf1a3b8cc8" x="248.019471" y="817.971267" style="stroke: #000000; stroke-width: 0.8"/>
      </g>
     </g>
     <g id="text_4">
      <!-- 1ro -->
      <g transform="translate(239.835877 832.569704) scale(0.1 -0.1)">
       <use xlink:href="#DejaVuSans-31"/>
       <use xlink:href="#DejaVuSans-72" x="63.623047"/>
       <use xlink:href="#DejaVuSans-6f" x="102.486328"/>
      </g>
     </g>
    </g>
    <g id="xtick_5">
     <g id="line2d_20">
      <g>
       <use xlink:href="#mdf1a3b8cc8" x="290.474241" y="817.971267" style="stroke: #000000; stroke-width: 0.8"/>
      </g>
     </g>
     <g id="text_5">
      <!-- 2lb -->
      <g transform="translate(282.72971 832.569704) scale(0.1 -0.1)">
       <defs>
        <path id="DejaVuSans-32" d="M 1228 531 
L 3431 531 
L 3431 0 
L 469 0 
L 469 531 
Q 828 903 1448 1529 
Q 2069 2156 2228 2338 
Q 2531 2678 2651 2914 
Q 2772 3150 2772 3378 
Q 2772 3750 2511 3984 
Q 2250 4219 1831 4219 
Q 1534 4219 1204 4116 
Q 875 4013 500 3803 
L 500 4441 
Q 881 4594 1212 4672 
Q 1544 4750 1819 4750 
Q 2544 4750 2975 4387 
Q 3406 4025 3406 3419 
Q 3406 3131 3298 2873 
Q 3191 2616 2906 2266 
Q 2828 2175 2409 1742 
Q 1991 1309 1228 531 
z
" transform="scale(0.015625)"/>
       </defs>
       <use xlink:href="#DejaVuSans-32"/>
       <use xlink:href="#DejaVuSans-6c" x="63.623047"/>
       <use xlink:href="#DejaVuSans-62" x="91.40625"/>
      </g>
     </g>
    </g>
    <g id="xtick_6">
     <g id="line2d_21">
      <g>
       <use xlink:href="#mdf1a3b8cc8" x="332.929011" y="817.971267" style="stroke: #000000; stroke-width: 0.8"/>
      </g>
     </g>
     <g id="text_6">
      <!-- 2lo -->
      <g transform="translate(325.299323 832.569704) scale(0.1 -0.1)">
       <use xlink:href="#DejaVuSans-32"/>
       <use xlink:href="#DejaVuSans-6c" x="63.623047"/>
       <use xlink:href="#DejaVuSans-6f" x="91.40625"/>
      </g>
     </g>
    </g>
    <g id="xtick_7">
     <g id="line2d_22">
      <g>
       <use xlink:href="#mdf1a3b8cc8" x="375.383781" y="817.971267" style="stroke: #000000; stroke-width: 0.8"/>
      </g>
     </g>
     <g id="text_7">
      <!-- 2rb -->
      <g transform="translate(366.972844 832.569704) scale(0.1 -0.1)">
       <use xlink:href="#DejaVuSans-32"/>
       <use xlink:href="#DejaVuSans-72" x="63.623047"/>
       <use xlink:href="#DejaVuSans-62" x="104.736328"/>
      </g>
     </g>
    </g>
    <g id="xtick_8">
     <g id="line2d_23">
      <g>
       <use xlink:href="#mdf1a3b8cc8" x="417.838551" y="817.971267" style="stroke: #000000; stroke-width: 0.8"/>
      </g>
     </g>
     <g id="text_8">
      <!-- 2ro -->
      <g transform="translate(409.654957 832.569704) scale(0.1 -0.1)">
       <use xlink:href="#DejaVuSans-32"/>
       <use xlink:href="#DejaVuSans-72" x="63.623047"/>
       <use xlink:href="#DejaVuSans-6f" x="102.486328"/>
      </g>
     </g>
    </g>
    <g id="xtick_9">
     <g id="line2d_24">
      <g>
       <use xlink:href="#mdf1a3b8cc8" x="460.293321" y="817.971267" style="stroke: #000000; stroke-width: 0.8"/>
      </g>
     </g>
     <g id="text_9">
      <!-- 3lb -->
      <g transform="translate(452.54879 832.569704) scale(0.1 -0.1)">
       <defs>
        <path id="DejaVuSans-33" d="M 2597 2516 
Q 3050 2419 3304 2112 
Q 3559 1806 3559 1356 
Q 3559 666 3084 287 
Q 2609 -91 1734 -91 
Q 1441 -91 1130 -33 
Q 819 25 488 141 
L 488 750 
Q 750 597 1062 519 
Q 1375 441 1716 441 
Q 2309 441 2620 675 
Q 2931 909 2931 1356 
Q 2931 1769 2642 2001 
Q 2353 2234 1838 2234 
L 1294 2234 
L 1294 2753 
L 1863 2753 
Q 2328 2753 2575 2939 
Q 2822 3125 2822 3475 
Q 2822 3834 2567 4026 
Q 2313 4219 1838 4219 
Q 1578 4219 1281 4162 
Q 984 4106 628 3988 
L 628 4550 
Q 988 4650 1302 4700 
Q 1616 4750 1894 4750 
Q 2613 4750 3031 4423 
Q 3450 4097 3450 3541 
Q 3450 3153 3228 2886 
Q 3006 2619 2597 2516 
z
" transform="scale(0.015625)"/>
       </defs>
       <use xlink:href="#DejaVuSans-33"/>
       <use xlink:href="#DejaVuSans-6c" x="63.623047"/>
       <use xlink:href="#DejaVuSans-62" x="91.40625"/>
      </g>
     </g>
    </g>
    <g id="xtick_10">
     <g id="line2d_25">
      <g>
       <use xlink:href="#mdf1a3b8cc8" x="502.748091" y="817.971267" style="stroke: #000000; stroke-width: 0.8"/>
      </g>
     </g>
     <g id="text_10">
      <!-- 3lo -->
      <g transform="translate(495.118404 832.569704) scale(0.1 -0.1)">
       <use xlink:href="#DejaVuSans-33"/>
       <use xlink:href="#DejaVuSans-6c" x="63.623047"/>
       <use xlink:href="#DejaVuSans-6f" x="91.40625"/>
      </g>
     </g>
    </g>
    <g id="xtick_11">
     <g id="line2d_26">
      <g>
       <use xlink:href="#mdf1a3b8cc8" x="545.202861" y="817.971267" style="stroke: #000000; stroke-width: 0.8"/>
      </g>
     </g>
     <g id="text_11">
      <!-- 3rb -->
      <g transform="translate(536.791924 832.569704) scale(0.1 -0.1)">
       <use xlink:href="#DejaVuSans-33"/>
       <use xlink:href="#DejaVuSans-72" x="63.623047"/>
       <use xlink:href="#DejaVuSans-62" x="104.736328"/>
      </g>
     </g>
    </g>
    <g id="xtick_12">
     <g id="line2d_27">
      <g>
       <use xlink:href="#mdf1a3b8cc8" x="587.657631" y="817.971267" style="stroke: #000000; stroke-width: 0.8"/>
      </g>
     </g>
     <g id="text_12">
      <!-- 3ro -->
      <g transform="translate(579.474038 832.569704) scale(0.1 -0.1)">
       <use xlink:href="#DejaVuSans-33"/>
       <use xlink:href="#DejaVuSans-72" x="63.623047"/>
       <use xlink:href="#DejaVuSans-6f" x="102.486328"/>
      </g>
     </g>
    </g>
    <g id="xtick_13">
     <g id="line2d_28">
      <g>
       <use xlink:href="#mdf1a3b8cc8" x="630.112401" y="817.971267" style="stroke: #000000; stroke-width: 0.8"/>
      </g>
     </g>
     <g id="text_13">
      <!-- 4lb -->
      <g transform="translate(622.36787 832.569704) scale(0.1 -0.1)">
       <defs>
        <path id="DejaVuSans-34" d="M 2419 4116 
L 825 1625 
L 2419 1625 
L 2419 4116 
z
M 2253 4666 
L 3047 4666 
L 3047 1625 
L 3713 1625 
L 3713 1100 
L 3047 1100 
L 3047 0 
L 2419 0 
L 2419 1100 
L 313 1100 
L 313 1709 
L 2253 4666 
z
" transform="scale(0.015625)"/>
       </defs>
       <use xlink:href="#DejaVuSans-34"/>
       <use xlink:href="#DejaVuSans-6c" x="63.623047"/>
       <use xlink:href="#DejaVuSans-62" x="91.40625"/>
      </g>
     </g>
    </g>
    <g id="xtick_14">
     <g id="line2d_29">
      <g>
       <use xlink:href="#mdf1a3b8cc8" x="672.567171" y="817.971267" style="stroke: #000000; stroke-width: 0.8"/>
      </g>
     </g>
     <g id="text_14">
      <!-- 4lo -->
      <g transform="translate(664.937484 832.569704) scale(0.1 -0.1)">
       <use xlink:href="#DejaVuSans-34"/>
       <use xlink:href="#DejaVuSans-6c" x="63.623047"/>
       <use xlink:href="#DejaVuSans-6f" x="91.40625"/>
      </g>
     </g>
    </g>
    <g id="xtick_15">
     <g id="line2d_30">
      <g>
       <use xlink:href="#mdf1a3b8cc8" x="715.021942" y="817.971267" style="stroke: #000000; stroke-width: 0.8"/>
      </g>
     </g>
     <g id="text_15">
      <!-- 4rb -->
      <g transform="translate(706.611004 832.569704) scale(0.1 -0.1)">
       <use xlink:href="#DejaVuSans-34"/>
       <use xlink:href="#DejaVuSans-72" x="63.623047"/>
       <use xlink:href="#DejaVuSans-62" x="104.736328"/>
      </g>
     </g>
    </g>
    <g id="xtick_16">
     <g id="line2d_31">
      <g>
       <use xlink:href="#mdf1a3b8cc8" x="757.476712" y="817.971267" style="stroke: #000000; stroke-width: 0.8"/>
      </g>
     </g>
     <g id="text_16">
      <!-- 4ro -->
      <g transform="translate(749.293118 832.569704) scale(0.1 -0.1)">
       <use xlink:href="#DejaVuSans-34"/>
       <use xlink:href="#DejaVuSans-72" x="63.623047"/>
       <use xlink:href="#DejaVuSans-6f" x="102.486328"/>
      </g>
     </g>
    </g>
    <g id="xtick_17">
     <g id="line2d_32">
      <g>
       <use xlink:href="#mdf1a3b8cc8" x="799.931482" y="817.971267" style="stroke: #000000; stroke-width: 0.8"/>
      </g>
     </g>
     <g id="text_17">
      <!-- 5lb -->
      <g transform="translate(792.18695 832.569704) scale(0.1 -0.1)">
       <defs>
        <path id="DejaVuSans-35" d="M 691 4666 
L 3169 4666 
L 3169 4134 
L 1269 4134 
L 1269 2991 
Q 1406 3038 1543 3061 
Q 1681 3084 1819 3084 
Q 2600 3084 3056 2656 
Q 3513 2228 3513 1497 
Q 3513 744 3044 326 
Q 2575 -91 1722 -91 
Q 1428 -91 1123 -41 
Q 819 9 494 109 
L 494 744 
Q 775 591 1075 516 
Q 1375 441 1709 441 
Q 2250 441 2565 725 
Q 2881 1009 2881 1497 
Q 2881 1984 2565 2268 
Q 2250 2553 1709 2553 
Q 1456 2553 1204 2497 
Q 953 2441 691 2322 
L 691 4666 
z
" transform="scale(0.015625)"/>
       </defs>
       <use xlink:href="#DejaVuSans-35"/>
       <use xlink:href="#DejaVuSans-6c" x="63.623047"/>
       <use xlink:href="#DejaVuSans-62" x="91.40625"/>
      </g>
     </g>
    </g>
    <g id="xtick_18">
     <g id="line2d_33">
      <g>
       <use xlink:href="#mdf1a3b8cc8" x="842.386252" y="817.971267" style="stroke: #000000; stroke-width: 0.8"/>
      </g>
     </g>
     <g id="text_18">
      <!-- 5lo -->
      <g transform="translate(834.756564 832.569704) scale(0.1 -0.1)">
       <use xlink:href="#DejaVuSans-35"/>
       <use xlink:href="#DejaVuSans-6c" x="63.623047"/>
       <use xlink:href="#DejaVuSans-6f" x="91.40625"/>
      </g>
     </g>
    </g>
    <g id="xtick_19">
     <g id="line2d_34">
      <g>
       <use xlink:href="#mdf1a3b8cc8" x="884.841022" y="817.971267" style="stroke: #000000; stroke-width: 0.8"/>
      </g>
     </g>
     <g id="text_19">
      <!-- 5rb -->
      <g transform="translate(876.430084 832.569704) scale(0.1 -0.1)">
       <use xlink:href="#DejaVuSans-35"/>
       <use xlink:href="#DejaVuSans-72" x="63.623047"/>
       <use xlink:href="#DejaVuSans-62" x="104.736328"/>
      </g>
     </g>
    </g>
    <g id="xtick_20">
     <g id="line2d_35">
      <g>
       <use xlink:href="#mdf1a3b8cc8" x="927.295792" y="817.971267" style="stroke: #000000; stroke-width: 0.8"/>
      </g>
     </g>
     <g id="text_20">
      <!-- 5ro -->
      <g transform="translate(919.112198 832.569704) scale(0.1 -0.1)">
       <use xlink:href="#DejaVuSans-35"/>
       <use xlink:href="#DejaVuSans-72" x="63.623047"/>
       <use xlink:href="#DejaVuSans-6f" x="102.486328"/>
      </g>
     </g>
    </g>
    <g id="xtick_21">
     <g id="line2d_36">
      <g>
       <use xlink:href="#mdf1a3b8cc8" x="969.750562" y="817.971267" style="stroke: #000000; stroke-width: 0.8"/>
      </g>
     </g>
     <g id="text_21">
      <!-- 6lb -->
      <g transform="translate(962.006031 832.569704) scale(0.1 -0.1)">
       <defs>
        <path id="DejaVuSans-36" d="M 2113 2584 
Q 1688 2584 1439 2293 
Q 1191 2003 1191 1497 
Q 1191 994 1439 701 
Q 1688 409 2113 409 
Q 2538 409 2786 701 
Q 3034 994 3034 1497 
Q 3034 2003 2786 2293 
Q 2538 2584 2113 2584 
z
M 3366 4563 
L 3366 3988 
Q 3128 4100 2886 4159 
Q 2644 4219 2406 4219 
Q 1781 4219 1451 3797 
Q 1122 3375 1075 2522 
Q 1259 2794 1537 2939 
Q 1816 3084 2150 3084 
Q 2853 3084 3261 2657 
Q 3669 2231 3669 1497 
Q 3669 778 3244 343 
Q 2819 -91 2113 -91 
Q 1303 -91 875 529 
Q 447 1150 447 2328 
Q 447 3434 972 4092 
Q 1497 4750 2381 4750 
Q 2619 4750 2861 4703 
Q 3103 4656 3366 4563 
z
" transform="scale(0.015625)"/>
       </defs>
       <use xlink:href="#DejaVuSans-36"/>
       <use xlink:href="#DejaVuSans-6c" x="63.623047"/>
       <use xlink:href="#DejaVuSans-62" x="91.40625"/>
      </g>
     </g>
    </g>
    <g id="xtick_22">
     <g id="line2d_37">
      <g>
       <use xlink:href="#mdf1a3b8cc8" x="1012.205332" y="817.971267" style="stroke: #000000; stroke-width: 0.8"/>
      </g>
     </g>
     <g id="text_22">
      <!-- 6lo -->
      <g transform="translate(1004.575644 832.569704) scale(0.1 -0.1)">
       <use xlink:href="#DejaVuSans-36"/>
       <use xlink:href="#DejaVuSans-6c" x="63.623047"/>
       <use xlink:href="#DejaVuSans-6f" x="91.40625"/>
      </g>
     </g>
    </g>
    <g id="xtick_23">
     <g id="line2d_38">
      <g>
       <use xlink:href="#mdf1a3b8cc8" x="1054.660102" y="817.971267" style="stroke: #000000; stroke-width: 0.8"/>
      </g>
     </g>
     <g id="text_23">
      <!-- 6rb -->
      <g transform="translate(1046.249165 832.569704) scale(0.1 -0.1)">
       <use xlink:href="#DejaVuSans-36"/>
       <use xlink:href="#DejaVuSans-72" x="63.623047"/>
       <use xlink:href="#DejaVuSans-62" x="104.736328"/>
      </g>
     </g>
    </g>
    <g id="xtick_24">
     <g id="line2d_39">
      <g>
       <use xlink:href="#mdf1a3b8cc8" x="1097.114872" y="817.971267" style="stroke: #000000; stroke-width: 0.8"/>
      </g>
     </g>
     <g id="text_24">
      <!-- 6ro -->
      <g transform="translate(1088.931278 832.569704) scale(0.1 -0.1)">
       <use xlink:href="#DejaVuSans-36"/>
       <use xlink:href="#DejaVuSans-72" x="63.623047"/>
       <use xlink:href="#DejaVuSans-6f" x="102.486328"/>
      </g>
     </g>
    </g>
    <g id="xtick_25">
     <g id="line2d_40">
      <g>
       <use xlink:href="#mdf1a3b8cc8" x="1139.569642" y="817.971267" style="stroke: #000000; stroke-width: 0.8"/>
      </g>
     </g>
     <g id="text_25">
      <!-- 7lb -->
      <g transform="translate(1131.825111 832.569704) scale(0.1 -0.1)">
       <defs>
        <path id="DejaVuSans-37" d="M 525 4666 
L 3525 4666 
L 3525 4397 
L 1831 0 
L 1172 0 
L 2766 4134 
L 525 4134 
L 525 4666 
z
" transform="scale(0.015625)"/>
       </defs>
       <use xlink:href="#DejaVuSans-37"/>
       <use xlink:href="#DejaVuSans-6c" x="63.623047"/>
       <use xlink:href="#DejaVuSans-62" x="91.40625"/>
      </g>
     </g>
    </g>
    <g id="xtick_26">
     <g id="line2d_41">
      <g>
       <use xlink:href="#mdf1a3b8cc8" x="1182.024412" y="817.971267" style="stroke: #000000; stroke-width: 0.8"/>
      </g>
     </g>
     <g id="text_26">
      <!-- 7lo -->
      <g transform="translate(1174.394725 832.569704) scale(0.1 -0.1)">
       <use xlink:href="#DejaVuSans-37"/>
       <use xlink:href="#DejaVuSans-6c" x="63.623047"/>
       <use xlink:href="#DejaVuSans-6f" x="91.40625"/>
      </g>
     </g>
    </g>
    <g id="xtick_27">
     <g id="line2d_42">
      <g>
       <use xlink:href="#mdf1a3b8cc8" x="1224.479182" y="817.971267" style="stroke: #000000; stroke-width: 0.8"/>
      </g>
     </g>
     <g id="text_27">
      <!-- 7rb -->
      <g transform="translate(1216.068245 832.569704) scale(0.1 -0.1)">
       <use xlink:href="#DejaVuSans-37"/>
       <use xlink:href="#DejaVuSans-72" x="63.623047"/>
       <use xlink:href="#DejaVuSans-62" x="104.736328"/>
      </g>
     </g>
    </g>
    <g id="xtick_28">
     <g id="line2d_43">
      <g>
       <use xlink:href="#mdf1a3b8cc8" x="1266.933952" y="817.971267" style="stroke: #000000; stroke-width: 0.8"/>
      </g>
     </g>
     <g id="text_28">
      <!-- 7ro -->
      <g transform="translate(1258.750359 832.569704) scale(0.1 -0.1)">
       <use xlink:href="#DejaVuSans-37"/>
       <use xlink:href="#DejaVuSans-72" x="63.623047"/>
       <use xlink:href="#DejaVuSans-6f" x="102.486328"/>
      </g>
     </g>
    </g>
    <g id="xtick_29">
     <g id="line2d_44">
      <g>
       <use xlink:href="#mdf1a3b8cc8" x="1309.388722" y="817.971267" style="stroke: #000000; stroke-width: 0.8"/>
      </g>
     </g>
     <g id="text_29">
      <!-- bc -->
      <g transform="translate(1303.465285 832.569704) scale(0.1 -0.1)">
       <defs>
        <path id="DejaVuSans-63" d="M 3122 3366 
L 3122 2828 
Q 2878 2963 2633 3030 
Q 2388 3097 2138 3097 
Q 1578 3097 1268 2742 
Q 959 2388 959 1747 
Q 959 1106 1268 751 
Q 1578 397 2138 397 
Q 2388 397 2633 464 
Q 2878 531 3122 666 
L 3122 134 
Q 2881 22 2623 -34 
Q 2366 -91 2075 -91 
Q 1284 -91 818 406 
Q 353 903 353 1747 
Q 353 2603 823 3093 
Q 1294 3584 2113 3584 
Q 2378 3584 2631 3529 
Q 2884 3475 3122 3366 
z
" transform="scale(0.015625)"/>
       </defs>
       <use xlink:href="#DejaVuSans-62"/>
       <use xlink:href="#DejaVuSans-63" x="63.476562"/>
      </g>
     </g>
    </g>
    <g id="xtick_30">
     <g id="line2d_45">
      <g>
       <use xlink:href="#mdf1a3b8cc8" x="1351.843492" y="817.971267" style="stroke: #000000; stroke-width: 0.8"/>
      </g>
     </g>
     <g id="text_30">
      <!-- ref -->
      <g transform="translate(1345.063805 832.569704) scale(0.1 -0.1)">
       <defs>
        <path id="DejaVuSans-65" d="M 3597 1894 
L 3597 1613 
L 953 1613 
Q 991 1019 1311 708 
Q 1631 397 2203 397 
Q 2534 397 2845 478 
Q 3156 559 3463 722 
L 3463 178 
Q 3153 47 2828 -22 
Q 2503 -91 2169 -91 
Q 1331 -91 842 396 
Q 353 884 353 1716 
Q 353 2575 817 3079 
Q 1281 3584 2069 3584 
Q 2775 3584 3186 3129 
Q 3597 2675 3597 1894 
z
M 3022 2063 
Q 3016 2534 2758 2815 
Q 2500 3097 2075 3097 
Q 1594 3097 1305 2825 
Q 1016 2553 972 2059 
L 3022 2063 
z
" transform="scale(0.015625)"/>
        <path id="DejaVuSans-66" d="M 2375 4863 
L 2375 4384 
L 1825 4384 
Q 1516 4384 1395 4259 
Q 1275 4134 1275 3809 
L 1275 3500 
L 2222 3500 
L 2222 3053 
L 1275 3053 
L 1275 0 
L 697 0 
L 697 3053 
L 147 3053 
L 147 3500 
L 697 3500 
L 697 3744 
Q 697 4328 969 4595 
Q 1241 4863 1831 4863 
L 2375 4863 
z
" transform="scale(0.015625)"/>
       </defs>
       <use xlink:href="#DejaVuSans-72"/>
       <use xlink:href="#DejaVuSans-65" x="38.863281"/>
       <use xlink:href="#DejaVuSans-66" x="100.386719"/>
      </g>
     </g>
    </g>
    <g id="xtick_31">
     <g id="line2d_46">
      <g>
       <use xlink:href="#mdf1a3b8cc8" x="1394.298263" y="817.971267" style="stroke: #000000; stroke-width: 0.8"/>
      </g>
     </g>
     <g id="text_31">
      <!-- rpva -->
      <g transform="translate(1383.045138 832.569704) scale(0.1 -0.1)">
       <defs>
        <path id="DejaVuSans-70" d="M 1159 525 
L 1159 -1331 
L 581 -1331 
L 581 3500 
L 1159 3500 
L 1159 2969 
Q 1341 3281 1617 3432 
Q 1894 3584 2278 3584 
Q 2916 3584 3314 3078 
Q 3713 2572 3713 1747 
Q 3713 922 3314 415 
Q 2916 -91 2278 -91 
Q 1894 -91 1617 61 
Q 1341 213 1159 525 
z
M 3116 1747 
Q 3116 2381 2855 2742 
Q 2594 3103 2138 3103 
Q 1681 3103 1420 2742 
Q 1159 2381 1159 1747 
Q 1159 1113 1420 752 
Q 1681 391 2138 391 
Q 2594 391 2855 752 
Q 3116 1113 3116 1747 
z
" transform="scale(0.015625)"/>
        <path id="DejaVuSans-76" d="M 191 3500 
L 800 3500 
L 1894 563 
L 2988 3500 
L 3597 3500 
L 2284 0 
L 1503 0 
L 191 3500 
z
" transform="scale(0.015625)"/>
        <path id="DejaVuSans-61" d="M 2194 1759 
Q 1497 1759 1228 1600 
Q 959 1441 959 1056 
Q 959 750 1161 570 
Q 1363 391 1709 391 
Q 2188 391 2477 730 
Q 2766 1069 2766 1631 
L 2766 1759 
L 2194 1759 
z
M 3341 1997 
L 3341 0 
L 2766 0 
L 2766 531 
Q 2569 213 2275 61 
Q 1981 -91 1556 -91 
Q 1019 -91 701 211 
Q 384 513 384 1019 
Q 384 1609 779 1909 
Q 1175 2209 1959 2209 
L 2766 2209 
L 2766 2266 
Q 2766 2663 2505 2880 
Q 2244 3097 1772 3097 
Q 1472 3097 1187 3025 
Q 903 2953 641 2809 
L 641 3341 
Q 956 3463 1253 3523 
Q 1550 3584 1831 3584 
Q 2591 3584 2966 3190 
Q 3341 2797 3341 1997 
z
" transform="scale(0.015625)"/>
       </defs>
       <use xlink:href="#DejaVuSans-72"/>
       <use xlink:href="#DejaVuSans-70" x="41.113281"/>
       <use xlink:href="#DejaVuSans-76" x="104.589844"/>
       <use xlink:href="#DejaVuSans-61" x="163.769531"/>
      </g>
     </g>
    </g>
    <g id="text_32">
     <!-- Mock-up -->
     <g transform="translate(736.311868 846.247829) scale(0.1 -0.1)">
      <defs>
       <path id="DejaVuSans-4d" d="M 628 4666 
L 1569 4666 
L 2759 1491 
L 3956 4666 
L 4897 4666 
L 4897 0 
L 4281 0 
L 4281 4097 
L 3078 897 
L 2444 897 
L 1241 4097 
L 1241 0 
L 628 0 
L 628 4666 
z
" transform="scale(0.015625)"/>
       <path id="DejaVuSans-6b" d="M 581 4863 
L 1159 4863 
L 1159 1991 
L 2875 3500 
L 3609 3500 
L 1753 1863 
L 3688 0 
L 2938 0 
L 1159 1709 
L 1159 0 
L 581 0 
L 581 4863 
z
" transform="scale(0.015625)"/>
       <path id="DejaVuSans-2d" d="M 313 2009 
L 1997 2009 
L 1997 1497 
L 313 1497 
L 313 2009 
z
" transform="scale(0.015625)"/>
       <path id="DejaVuSans-75" d="M 544 1381 
L 544 3500 
L 1119 3500 
L 1119 1403 
Q 1119 906 1312 657 
Q 1506 409 1894 409 
Q 2359 409 2629 706 
Q 2900 1003 2900 1516 
L 2900 3500 
L 3475 3500 
L 3475 0 
L 2900 0 
L 2900 538 
Q 2691 219 2414 64 
Q 2138 -91 1772 -91 
Q 1169 -91 856 284 
Q 544 659 544 1381 
z
M 1991 3584 
L 1991 3584 
z
" transform="scale(0.015625)"/>
      </defs>
      <use xlink:href="#DejaVuSans-4d"/>
      <use xlink:href="#DejaVuSans-6f" x="86.279297"/>
      <use xlink:href="#DejaVuSans-63" x="147.460938"/>
      <use xlink:href="#DejaVuSans-6b" x="202.441406"/>
      <use xlink:href="#DejaVuSans-2d" x="260.351562"/>
      <use xlink:href="#DejaVuSans-75" x="296.435547"/>
      <use xlink:href="#DejaVuSans-70" x="359.814453"/>
     </g>
    </g>
   </g>
   <g id="matplotlib.axis_2">
    <g id="ytick_1">
     <g id="line2d_47">
      <path d="M 92.953423 684.432723 
L 1422 684.432723 
" clip-path="url(#p8926031362)" style="fill: none; stroke-dasharray: 2.96,1.28; stroke-dashoffset: 0; stroke: #c5c5c4; stroke-opacity: 0.7; stroke-width: 0.8"/>
     </g>
     <g id="line2d_48">
      <defs>
       <path id="me7b48f7cf0" d="M 0 0 
L -3.5 0 
" style="stroke: #000000; stroke-width: 0.8"/>
      </defs>
      <g>
       <use xlink:href="#me7b48f7cf0" x="92.953423" y="684.432723" style="stroke: #000000; stroke-width: 0.8"/>
      </g>
     </g>
     <g id="text_33">
      <!-- $\mathdefault{10^{-1}}$ -->
      <g transform="translate(62.453423 688.231942) scale(0.1 -0.1)">
       <defs>
        <path id="DejaVuSans-30" d="M 2034 4250 
Q 1547 4250 1301 3770 
Q 1056 3291 1056 2328 
Q 1056 1369 1301 889 
Q 1547 409 2034 409 
Q 2525 409 2770 889 
Q 3016 1369 3016 2328 
Q 3016 3291 2770 3770 
Q 2525 4250 2034 4250 
z
M 2034 4750 
Q 2819 4750 3233 4129 
Q 3647 3509 3647 2328 
Q 3647 1150 3233 529 
Q 2819 -91 2034 -91 
Q 1250 -91 836 529 
Q 422 1150 422 2328 
Q 422 3509 836 4129 
Q 1250 4750 2034 4750 
z
" transform="scale(0.015625)"/>
        <path id="DejaVuSans-2212" d="M 678 2272 
L 4684 2272 
L 4684 1741 
L 678 1741 
L 678 2272 
z
" transform="scale(0.015625)"/>
       </defs>
       <use xlink:href="#DejaVuSans-31" transform="translate(0 0.684375)"/>
       <use xlink:href="#DejaVuSans-30" transform="translate(63.623047 0.684375)"/>
       <use xlink:href="#DejaVuSans-2212" transform="translate(128.203125 38.965625) scale(0.7)"/>
       <use xlink:href="#DejaVuSans-31" transform="translate(186.855469 38.965625) scale(0.7)"/>
      </g>
     </g>
    </g>
    <g id="ytick_2">
     <g id="line2d_49">
      <path d="M 92.953423 478.553299 
L 1422 478.553299 
" clip-path="url(#p8926031362)" style="fill: none; stroke-dasharray: 2.96,1.28; stroke-dashoffset: 0; stroke: #c5c5c4; stroke-opacity: 0.7; stroke-width: 0.8"/>
     </g>
     <g id="line2d_50">
      <g>
       <use xlink:href="#me7b48f7cf0" x="92.953423" y="478.553299" style="stroke: #000000; stroke-width: 0.8"/>
      </g>
     </g>
     <g id="text_34">
      <!-- $\mathdefault{10^{0}}$ -->
      <g transform="translate(68.353423 482.352517) scale(0.1 -0.1)">
       <use xlink:href="#DejaVuSans-31" transform="translate(0 0.765625)"/>
       <use xlink:href="#DejaVuSans-30" transform="translate(63.623047 0.765625)"/>
       <use xlink:href="#DejaVuSans-30" transform="translate(128.203125 39.046875) scale(0.7)"/>
      </g>
     </g>
    </g>
    <g id="ytick_3">
     <g id="line2d_51">
      <path d="M 92.953423 272.673874 
L 1422 272.673874 
" clip-path="url(#p8926031362)" style="fill: none; stroke-dasharray: 2.96,1.28; stroke-dashoffset: 0; stroke: #c5c5c4; stroke-opacity: 0.7; stroke-width: 0.8"/>
     </g>
     <g id="line2d_52">
      <g>
       <use xlink:href="#me7b48f7cf0" x="92.953423" y="272.673874" style="stroke: #000000; stroke-width: 0.8"/>
      </g>
     </g>
     <g id="text_35">
      <!-- $\mathdefault{10^{1}}$ -->
      <g transform="translate(68.353423 276.473093) scale(0.1 -0.1)">
       <use xlink:href="#DejaVuSans-31" transform="translate(0 0.684375)"/>
       <use xlink:href="#DejaVuSans-30" transform="translate(63.623047 0.684375)"/>
       <use xlink:href="#DejaVuSans-31" transform="translate(128.203125 38.965625) scale(0.7)"/>
      </g>
     </g>
    </g>
    <g id="ytick_4">
     <g id="line2d_53">
      <path d="M 92.953423 66.79445 
L 1422 66.79445 
" clip-path="url(#p8926031362)" style="fill: none; stroke-dasharray: 2.96,1.28; stroke-dashoffset: 0; stroke: #c5c5c4; stroke-opacity: 0.7; stroke-width: 0.8"/>
     </g>
     <g id="line2d_54">
      <g>
       <use xlink:href="#me7b48f7cf0" x="92.953423" y="66.79445" style="stroke: #000000; stroke-width: 0.8"/>
      </g>
     </g>
     <g id="text_36">
      <!-- $\mathdefault{10^{2}}$ -->
      <g transform="translate(68.353423 70.593668) scale(0.1 -0.1)">
       <use xlink:href="#DejaVuSans-31" transform="translate(0 0.765625)"/>
       <use xlink:href="#DejaVuSans-30" transform="translate(63.623047 0.765625)"/>
       <use xlink:href="#DejaVuSans-32" transform="translate(128.203125 39.046875) scale(0.7)"/>
      </g>
     </g>
    </g>
    <g id="ytick_5">
     <g id="line2d_55">
      <defs>
       <path id="m58d5186476" d="M 0 0 
L -2 0 
" style="stroke: #000000; stroke-width: 0.6"/>
      </defs>
      <g>
       <use xlink:href="#m58d5186476" x="92.953423" y="792.082699" style="stroke: #000000; stroke-width: 0.6"/>
      </g>
     </g>
    </g>
    <g id="ytick_6">
     <g id="line2d_56">
      <g>
       <use xlink:href="#m58d5186476" x="92.953423" y="766.360383" style="stroke: #000000; stroke-width: 0.6"/>
      </g>
     </g>
    </g>
    <g id="ytick_7">
     <g id="line2d_57">
      <g>
       <use xlink:href="#m58d5186476" x="92.953423" y="746.408606" style="stroke: #000000; stroke-width: 0.6"/>
      </g>
     </g>
    </g>
    <g id="ytick_8">
     <g id="line2d_58">
      <g>
       <use xlink:href="#m58d5186476" x="92.953423" y="730.106816" style="stroke: #000000; stroke-width: 0.6"/>
      </g>
     </g>
    </g>
    <g id="ytick_9">
     <g id="line2d_59">
      <g>
       <use xlink:href="#m58d5186476" x="92.953423" y="716.32385" style="stroke: #000000; stroke-width: 0.6"/>
      </g>
     </g>
    </g>
    <g id="ytick_10">
     <g id="line2d_60">
      <g>
       <use xlink:href="#m58d5186476" x="92.953423" y="704.384501" style="stroke: #000000; stroke-width: 0.6"/>
      </g>
     </g>
    </g>
    <g id="ytick_11">
     <g id="line2d_61">
      <g>
       <use xlink:href="#m58d5186476" x="92.953423" y="693.853249" style="stroke: #000000; stroke-width: 0.6"/>
      </g>
     </g>
    </g>
    <g id="ytick_12">
     <g id="line2d_62">
      <g>
       <use xlink:href="#m58d5186476" x="92.953423" y="622.456841" style="stroke: #000000; stroke-width: 0.6"/>
      </g>
     </g>
    </g>
    <g id="ytick_13">
     <g id="line2d_63">
      <g>
       <use xlink:href="#m58d5186476" x="92.953423" y="586.203274" style="stroke: #000000; stroke-width: 0.6"/>
      </g>
     </g>
    </g>
    <g id="ytick_14">
     <g id="line2d_64">
      <g>
       <use xlink:href="#m58d5186476" x="92.953423" y="560.480959" style="stroke: #000000; stroke-width: 0.6"/>
      </g>
     </g>
    </g>
    <g id="ytick_15">
     <g id="line2d_65">
      <g>
       <use xlink:href="#m58d5186476" x="92.953423" y="540.529181" style="stroke: #000000; stroke-width: 0.6"/>
      </g>
     </g>
    </g>
    <g id="ytick_16">
     <g id="line2d_66">
      <g>
       <use xlink:href="#m58d5186476" x="92.953423" y="524.227392" style="stroke: #000000; stroke-width: 0.6"/>
      </g>
     </g>
    </g>
    <g id="ytick_17">
     <g id="line2d_67">
      <g>
       <use xlink:href="#m58d5186476" x="92.953423" y="510.444425" style="stroke: #000000; stroke-width: 0.6"/>
      </g>
     </g>
    </g>
    <g id="ytick_18">
     <g id="line2d_68">
      <g>
       <use xlink:href="#m58d5186476" x="92.953423" y="498.505076" style="stroke: #000000; stroke-width: 0.6"/>
      </g>
     </g>
    </g>
    <g id="ytick_19">
     <g id="line2d_69">
      <g>
       <use xlink:href="#m58d5186476" x="92.953423" y="487.973825" style="stroke: #000000; stroke-width: 0.6"/>
      </g>
     </g>
    </g>
    <g id="ytick_20">
     <g id="line2d_70">
      <g>
       <use xlink:href="#m58d5186476" x="92.953423" y="416.577416" style="stroke: #000000; stroke-width: 0.6"/>
      </g>
     </g>
    </g>
    <g id="ytick_21">
     <g id="line2d_71">
      <g>
       <use xlink:href="#m58d5186476" x="92.953423" y="380.323849" style="stroke: #000000; stroke-width: 0.6"/>
      </g>
     </g>
    </g>
    <g id="ytick_22">
     <g id="line2d_72">
      <g>
       <use xlink:href="#m58d5186476" x="92.953423" y="354.601534" style="stroke: #000000; stroke-width: 0.6"/>
      </g>
     </g>
    </g>
    <g id="ytick_23">
     <g id="line2d_73">
      <g>
       <use xlink:href="#m58d5186476" x="92.953423" y="334.649756" style="stroke: #000000; stroke-width: 0.6"/>
      </g>
     </g>
    </g>
    <g id="ytick_24">
     <g id="line2d_74">
      <g>
       <use xlink:href="#m58d5186476" x="92.953423" y="318.347967" style="stroke: #000000; stroke-width: 0.6"/>
      </g>
     </g>
    </g>
    <g id="ytick_25">
     <g id="line2d_75">
      <g>
       <use xlink:href="#m58d5186476" x="92.953423" y="304.565001" style="stroke: #000000; stroke-width: 0.6"/>
      </g>
     </g>
    </g>
    <g id="ytick_26">
     <g id="line2d_76">
      <g>
       <use xlink:href="#m58d5186476" x="92.953423" y="292.625652" style="stroke: #000000; stroke-width: 0.6"/>
      </g>
     </g>
    </g>
    <g id="ytick_27">
     <g id="line2d_77">
      <g>
       <use xlink:href="#m58d5186476" x="92.953423" y="282.0944" style="stroke: #000000; stroke-width: 0.6"/>
      </g>
     </g>
    </g>
    <g id="ytick_28">
     <g id="line2d_78">
      <g>
       <use xlink:href="#m58d5186476" x="92.953423" y="210.697992" style="stroke: #000000; stroke-width: 0.6"/>
      </g>
     </g>
    </g>
    <g id="ytick_29">
     <g id="line2d_79">
      <g>
       <use xlink:href="#m58d5186476" x="92.953423" y="174.444425" style="stroke: #000000; stroke-width: 0.6"/>
      </g>
     </g>
    </g>
    <g id="ytick_30">
     <g id="line2d_80">
      <g>
       <use xlink:href="#m58d5186476" x="92.953423" y="148.72211" style="stroke: #000000; stroke-width: 0.6"/>
      </g>
     </g>
    </g>
    <g id="ytick_31">
     <g id="line2d_81">
      <g>
       <use xlink:href="#m58d5186476" x="92.953423" y="128.770332" style="stroke: #000000; stroke-width: 0.6"/>
      </g>
     </g>
    </g>
    <g id="ytick_32">
     <g id="line2d_82">
      <g>
       <use xlink:href="#m58d5186476" x="92.953423" y="112.468542" style="stroke: #000000; stroke-width: 0.6"/>
      </g>
     </g>
    </g>
    <g id="ytick_33">
     <g id="line2d_83">
      <g>
       <use xlink:href="#m58d5186476" x="92.953423" y="98.685576" style="stroke: #000000; stroke-width: 0.6"/>
      </g>
     </g>
    </g>
    <g id="ytick_34">
     <g id="line2d_84">
      <g>
       <use xlink:href="#m58d5186476" x="92.953423" y="86.746227" style="stroke: #000000; stroke-width: 0.6"/>
      </g>
     </g>
    </g>
    <g id="ytick_35">
     <g id="line2d_85">
      <g>
       <use xlink:href="#m58d5186476" x="92.953423" y="76.214975" style="stroke: #000000; stroke-width: 0.6"/>
      </g>
     </g>
    </g>
    <g id="text_37">
     <!-- Gemiddelde Waarde per Meting -->
     <g transform="translate(56.373736 508.974358) rotate(-90) scale(0.1 -0.1)">
      <defs>
       <path id="DejaVuSans-47" d="M 3809 666 
L 3809 1919 
L 2778 1919 
L 2778 2438 
L 4434 2438 
L 4434 434 
Q 4069 175 3628 42 
Q 3188 -91 2688 -91 
Q 1594 -91 976 548 
Q 359 1188 359 2328 
Q 359 3472 976 4111 
Q 1594 4750 2688 4750 
Q 3144 4750 3555 4637 
Q 3966 4525 4313 4306 
L 4313 3634 
Q 3963 3931 3569 4081 
Q 3175 4231 2741 4231 
Q 1884 4231 1454 3753 
Q 1025 3275 1025 2328 
Q 1025 1384 1454 906 
Q 1884 428 2741 428 
Q 3075 428 3337 486 
Q 3600 544 3809 666 
z
" transform="scale(0.015625)"/>
       <path id="DejaVuSans-6d" d="M 3328 2828 
Q 3544 3216 3844 3400 
Q 4144 3584 4550 3584 
Q 5097 3584 5394 3201 
Q 5691 2819 5691 2113 
L 5691 0 
L 5113 0 
L 5113 2094 
Q 5113 2597 4934 2840 
Q 4756 3084 4391 3084 
Q 3944 3084 3684 2787 
Q 3425 2491 3425 1978 
L 3425 0 
L 2847 0 
L 2847 2094 
Q 2847 2600 2669 2842 
Q 2491 3084 2119 3084 
Q 1678 3084 1418 2786 
Q 1159 2488 1159 1978 
L 1159 0 
L 581 0 
L 581 3500 
L 1159 3500 
L 1159 2956 
Q 1356 3278 1631 3431 
Q 1906 3584 2284 3584 
Q 2666 3584 2933 3390 
Q 3200 3197 3328 2828 
z
" transform="scale(0.015625)"/>
       <path id="DejaVuSans-69" d="M 603 3500 
L 1178 3500 
L 1178 0 
L 603 0 
L 603 3500 
z
M 603 4863 
L 1178 4863 
L 1178 4134 
L 603 4134 
L 603 4863 
z
" transform="scale(0.015625)"/>
       <path id="DejaVuSans-64" d="M 2906 2969 
L 2906 4863 
L 3481 4863 
L 3481 0 
L 2906 0 
L 2906 525 
Q 2725 213 2448 61 
Q 2172 -91 1784 -91 
Q 1150 -91 751 415 
Q 353 922 353 1747 
Q 353 2572 751 3078 
Q 1150 3584 1784 3584 
Q 2172 3584 2448 3432 
Q 2725 3281 2906 2969 
z
M 947 1747 
Q 947 1113 1208 752 
Q 1469 391 1925 391 
Q 2381 391 2643 752 
Q 2906 1113 2906 1747 
Q 2906 2381 2643 2742 
Q 2381 3103 1925 3103 
Q 1469 3103 1208 2742 
Q 947 2381 947 1747 
z
" transform="scale(0.015625)"/>
       <path id="DejaVuSans-20" transform="scale(0.015625)"/>
       <path id="DejaVuSans-57" d="M 213 4666 
L 850 4666 
L 1831 722 
L 2809 4666 
L 3519 4666 
L 4500 722 
L 5478 4666 
L 6119 4666 
L 4947 0 
L 4153 0 
L 3169 4050 
L 2175 0 
L 1381 0 
L 213 4666 
z
" transform="scale(0.015625)"/>
       <path id="DejaVuSans-74" d="M 1172 4494 
L 1172 3500 
L 2356 3500 
L 2356 3053 
L 1172 3053 
L 1172 1153 
Q 1172 725 1289 603 
Q 1406 481 1766 481 
L 2356 481 
L 2356 0 
L 1766 0 
Q 1100 0 847 248 
Q 594 497 594 1153 
L 594 3053 
L 172 3053 
L 172 3500 
L 594 3500 
L 594 4494 
L 1172 4494 
z
" transform="scale(0.015625)"/>
       <path id="DejaVuSans-6e" d="M 3513 2113 
L 3513 0 
L 2938 0 
L 2938 2094 
Q 2938 2591 2744 2837 
Q 2550 3084 2163 3084 
Q 1697 3084 1428 2787 
Q 1159 2491 1159 1978 
L 1159 0 
L 581 0 
L 581 3500 
L 1159 3500 
L 1159 2956 
Q 1366 3272 1645 3428 
Q 1925 3584 2291 3584 
Q 2894 3584 3203 3211 
Q 3513 2838 3513 2113 
z
" transform="scale(0.015625)"/>
       <path id="DejaVuSans-67" d="M 2906 1791 
Q 2906 2416 2648 2759 
Q 2391 3103 1925 3103 
Q 1463 3103 1205 2759 
Q 947 2416 947 1791 
Q 947 1169 1205 825 
Q 1463 481 1925 481 
Q 2391 481 2648 825 
Q 2906 1169 2906 1791 
z
M 3481 434 
Q 3481 -459 3084 -895 
Q 2688 -1331 1869 -1331 
Q 1566 -1331 1297 -1286 
Q 1028 -1241 775 -1147 
L 775 -588 
Q 1028 -725 1275 -790 
Q 1522 -856 1778 -856 
Q 2344 -856 2625 -561 
Q 2906 -266 2906 331 
L 2906 616 
Q 2728 306 2450 153 
Q 2172 0 1784 0 
Q 1141 0 747 490 
Q 353 981 353 1791 
Q 353 2603 747 3093 
Q 1141 3584 1784 3584 
Q 2172 3584 2450 3431 
Q 2728 3278 2906 2969 
L 2906 3500 
L 3481 3500 
L 3481 434 
z
" transform="scale(0.015625)"/>
      </defs>
      <use xlink:href="#DejaVuSans-47"/>
      <use xlink:href="#DejaVuSans-65" x="77.490234"/>
      <use xlink:href="#DejaVuSans-6d" x="139.013672"/>
      <use xlink:href="#DejaVuSans-69" x="236.425781"/>
      <use xlink:href="#DejaVuSans-64" x="264.208984"/>
      <use xlink:href="#DejaVuSans-64" x="327.685547"/>
      <use xlink:href="#DejaVuSans-65" x="391.162109"/>
      <use xlink:href="#DejaVuSans-6c" x="452.685547"/>
      <use xlink:href="#DejaVuSans-64" x="480.46875"/>
      <use xlink:href="#DejaVuSans-65" x="543.945312"/>
      <use xlink:href="#DejaVuSans-20" x="605.46875"/>
      <use xlink:href="#DejaVuSans-57" x="637.255859"/>
      <use xlink:href="#DejaVuSans-61" x="729.757812"/>
      <use xlink:href="#DejaVuSans-61" x="791.037109"/>
      <use xlink:href="#DejaVuSans-72" x="852.316406"/>
      <use xlink:href="#DejaVuSans-64" x="891.679688"/>
      <use xlink:href="#DejaVuSans-65" x="955.15625"/>
      <use xlink:href="#DejaVuSans-20" x="1016.679688"/>
      <use xlink:href="#DejaVuSans-70" x="1048.466797"/>
      <use xlink:href="#DejaVuSans-65" x="1111.943359"/>
      <use xlink:href="#DejaVuSans-72" x="1173.466797"/>
      <use xlink:href="#DejaVuSans-20" x="1214.580078"/>
      <use xlink:href="#DejaVuSans-4d" x="1246.367188"/>
      <use xlink:href="#DejaVuSans-65" x="1332.646484"/>
      <use xlink:href="#DejaVuSans-74" x="1394.169922"/>
      <use xlink:href="#DejaVuSans-69" x="1433.378906"/>
      <use xlink:href="#DejaVuSans-6e" x="1461.162109"/>
      <use xlink:href="#DejaVuSans-67" x="1524.541016"/>
     </g>
    </g>
   </g>
   <g id="patch_3">
    <path d="M 92.953423 817.971267 
L 92.953423 41.1712 
" style="fill: none; stroke: #000000; stroke-width: 0.8; stroke-linejoin: miter; stroke-linecap: square"/>
   </g>
   <g id="patch_4">
    <path d="M 1422 817.971267 
L 1422 41.1712 
" style="fill: none; stroke: #000000; stroke-width: 0.8; stroke-linejoin: miter; stroke-linecap: square"/>
   </g>
   <g id="patch_5">
    <path d="M 92.953423 817.971267 
L 1422 817.971267 
" style="fill: none; stroke: #000000; stroke-width: 0.8; stroke-linejoin: miter; stroke-linecap: square"/>
   </g>
   <g id="patch_6">
    <path d="M 92.953423 41.1712 
L 1422 41.1712 
" style="fill: none; stroke: #000000; stroke-width: 0.8; stroke-linejoin: miter; stroke-linecap: square"/>
   </g>
   <g id="patch_7">
    <path d="M 103.567116 206357.977903 
L 109.263131 206357.977903 
L 109.263131 498.505076 
L 103.567116 498.505076 
z
" clip-path="url(#p8926031362)" style="fill: #d6b863"/>
   </g>
   <g id="patch_8">
    <path d="M 146.021886 206357.977903 
L 151.717901 206357.977903 
L 151.717901 393.118825 
L 146.021886 393.118825 
z
" clip-path="url(#p8926031362)" style="fill: #d6b863"/>
   </g>
   <g id="patch_9">
    <path d="M 188.476656 206357.977903 
L 194.172671 206357.977903 
L 194.172671 540.529181 
L 188.476656 540.529181 
z
" clip-path="url(#p8926031362)" style="fill: #d6b863"/>
   </g>
   <g id="patch_10">
    <path d="M 230.931426 206357.977903 
L 236.627441 206357.977903 
L 236.627441 452.830984 
L 230.931426 452.830984 
z
" clip-path="url(#p8926031362)" style="fill: #d6b863"/>
   </g>
   <g id="patch_11">
    <path d="M 273.386196 206357.977903 
L 279.082211 206357.977903 
L 279.082211 308.481494 
L 273.386196 308.481494 
z
" clip-path="url(#p8926031362)" style="fill: #d6b863"/>
   </g>
   <g id="patch_12">
    <path d="M 315.840966 206357.977903 
L 321.536981 206357.977903 
L 321.536981 359.187785 
L 315.840966 359.187785 
z
" clip-path="url(#p8926031362)" style="fill: #d6b863"/>
   </g>
   <g id="patch_13">
    <path d="M 358.295736 206357.977903 
L 363.991751 206357.977903 
L 363.991751 383.355065 
L 358.295736 383.355065 
z
" clip-path="url(#p8926031362)" style="fill: #d6b863"/>
   </g>
   <g id="patch_14">
    <path d="M 400.750506 206357.977903 
L 406.446521 206357.977903 
L 406.446521 338.299745 
L 400.750506 338.299745 
z
" clip-path="url(#p8926031362)" style="fill: #d6b863"/>
   </g>
   <g id="patch_15">
    <path d="M 443.205276 206357.977903 
L 448.901291 206357.977903 
L 448.901291 622.456841 
L 443.205276 622.456841 
z
" clip-path="url(#p8926031362)" style="fill: #d6b863"/>
   </g>
   <g id="patch_16">
    <path d="M 485.660046 206357.977903 
L 491.356061 206357.977903 
L 491.356061 586.203274 
L 485.660046 586.203274 
z
" clip-path="url(#p8926031362)" style="fill: #d6b863"/>
   </g>
   <g id="patch_17">
    <path d="M 528.114816 206357.977903 
L 533.810831 206357.977903 
L 533.810831 576.782748 
L 528.114816 576.782748 
z
" clip-path="url(#p8926031362)" style="fill: #d6b863"/>
   </g>
   <g id="patch_18">
    <path d="M 570.569586 206357.977903 
L 576.265601 206357.977903 
L 576.265601 586.203274 
L 570.569586 586.203274 
z
" clip-path="url(#p8926031362)" style="fill: #d6b863"/>
   </g>
   <g id="patch_19">
    <path d="M 613.024356 206357.977903 
L 618.720371 206357.977903 
L 618.720371 546.697992 
L 613.024356 546.697992 
z
" clip-path="url(#p8926031362)" style="fill: #d6b863"/>
   </g>
   <g id="patch_20">
    <path d="M 655.479127 206357.977903 
L 661.175141 206357.977903 
L 661.175141 440.334547 
L 655.479127 440.334547 
z
" clip-path="url(#p8926031362)" style="fill: #d6b863"/>
   </g>
   <g id="patch_21">
    <path d="M 697.933897 206357.977903 
L 703.629912 206357.977903 
L 703.629912 470.031397 
L 697.933897 470.031397 
z
" clip-path="url(#p8926031362)" style="fill: #d6b863"/>
   </g>
   <g id="patch_22">
    <path d="M 740.388667 206357.977903 
L 746.084682 206357.977903 
L 746.084682 446.364627 
L 740.388667 446.364627 
z
" clip-path="url(#p8926031362)" style="fill: #d6b863"/>
   </g>
   <g id="patch_23">
    <path d="M 782.843437 206357.977903 
L 788.539452 206357.977903 
L 788.539452 434.685576 
L 782.843437 434.685576 
z
" clip-path="url(#p8926031362)" style="fill: #d6b863"/>
   </g>
   <g id="patch_24">
    <path d="M 825.298207 206357.977903 
L 830.994222 206357.977903 
L 830.994222 540.529181 
L 825.298207 540.529181 
z
" clip-path="url(#p8926031362)" style="fill: #d6b863"/>
   </g>
   <g id="patch_25">
    <path d="M 867.752977 206357.977903 
L 873.448992 206357.977903 
L 873.448992 397.825822 
L 867.752977 397.825822 
z
" clip-path="url(#p8926031362)" style="fill: #d6b863"/>
   </g>
   <g id="patch_26">
    <path d="M 910.207747 206357.977903 
L 915.903762 206357.977903 
L 915.903762 529.338057 
L 910.207747 529.338057 
z
" clip-path="url(#p8926031362)" style="fill: #d6b863"/>
   </g>
   <g id="patch_27">
    <path d="M 952.662517 206357.977903 
L 958.358532 206357.977903 
L 958.358532 329.439799 
L 952.662517 329.439799 
z
" clip-path="url(#p8926031362)" style="fill: #d6b863"/>
   </g>
   <g id="patch_28">
    <path d="M 995.117287 206357.977903 
L 1000.813302 206357.977903 
L 1000.813302 204.927454 
L 995.117287 204.927454 
z
" clip-path="url(#p8926031362)" style="fill: #d6b863"/>
   </g>
   <g id="patch_29">
    <path d="M 1037.572057 206357.977903 
L 1043.268072 206357.977903 
L 1043.268072 276.946947 
L 1037.572057 276.946947 
z
" clip-path="url(#p8926031362)" style="fill: #d6b863"/>
   </g>
   <g id="patch_30">
    <path d="M 1080.026827 206357.977903 
L 1085.722842 206357.977903 
L 1085.722842 313.985526 
L 1080.026827 313.985526 
z
" clip-path="url(#p8926031362)" style="fill: #d6b863"/>
   </g>
   <g id="patch_31">
    <path d="M 1122.481597 206357.977903 
L 1128.177612 206357.977903 
L 1128.177612 314.93673 
L 1122.481597 314.93673 
z
" clip-path="url(#p8926031362)" style="fill: #d6b863"/>
   </g>
   <g id="patch_32">
    <path d="M 1164.936367 206357.977903 
L 1170.632382 206357.977903 
L 1170.632382 344.735061 
L 1164.936367 344.735061 
z
" clip-path="url(#p8926031362)" style="fill: #d6b863"/>
   </g>
   <g id="patch_33">
    <path d="M 1207.391137 206357.977903 
L 1213.087152 206357.977903 
L 1213.087152 191.584648 
L 1207.391137 191.584648 
z
" clip-path="url(#p8926031362)" style="fill: #d6b863"/>
   </g>
   <g id="patch_34">
    <path d="M 1249.845907 206357.977903 
L 1255.541922 206357.977903 
L 1255.541922 404.08098 
L 1249.845907 404.08098 
z
" clip-path="url(#p8926031362)" style="fill: #d6b863"/>
   </g>
   <g id="patch_35">
    <path d="M 1292.300677 206357.977903 
L 1297.996692 206357.977903 
L 1297.996692 251.53781 
L 1292.300677 251.53781 
z
" clip-path="url(#p8926031362)" style="fill: #d6b863"/>
   </g>
   <g id="patch_36">
    <path d="M 1334.755448 206357.977903 
L 1340.451463 206357.977903 
L 1340.451463 148.128006 
L 1334.755448 148.128006 
z
" clip-path="url(#p8926031362)" style="fill: #d6b863"/>
   </g>
   <g id="patch_37">
    <path d="M 1377.210218 206357.977903 
L 1382.906233 206357.977903 
L 1382.906233 182.767853 
L 1377.210218 182.767853 
z
" clip-path="url(#p8926031362)" style="fill: #d6b863"/>
   </g>
   <g id="patch_38">
    <path d="M 109.263131 206357.977903 
L 114.959146 206357.977903 
L 114.959146 287.205065 
L 109.263131 287.205065 
z
" clip-path="url(#p8926031362)" style="fill: #cf4c48"/>
   </g>
   <g id="patch_39">
    <path d="M 151.717901 206357.977903 
L 157.413916 206357.977903 
L 157.413916 227.537871 
L 151.717901 227.537871 
z
" clip-path="url(#p8926031362)" style="fill: #cf4c48"/>
   </g>
   <g id="patch_40">
    <path d="M 194.172671 206357.977903 
L 199.868686 206357.977903 
L 199.868686 322.412862 
L 194.172671 322.412862 
z
" clip-path="url(#p8926031362)" style="fill: #cf4c48"/>
   </g>
   <g id="patch_41">
    <path d="M 236.627441 206357.977903 
L 242.323456 206357.977903 
L 242.323456 253.440271 
L 236.627441 253.440271 
z
" clip-path="url(#p8926031362)" style="fill: #cf4c48"/>
   </g>
   <g id="patch_42">
    <path d="M 279.082211 206357.977903 
L 284.778226 206357.977903 
L 284.778226 178.301626 
L 279.082211 178.301626 
z
" clip-path="url(#p8926031362)" style="fill: #cf4c48"/>
   </g>
   <g id="patch_43">
    <path d="M 321.536981 206357.977903 
L 327.232996 206357.977903 
L 327.232996 190.15211 
L 321.536981 190.15211 
z
" clip-path="url(#p8926031362)" style="fill: #cf4c48"/>
   </g>
   <g id="patch_44">
    <path d="M 363.991751 206357.977903 
L 369.687766 206357.977903 
L 369.687766 211.446216 
L 363.991751 211.446216 
z
" clip-path="url(#p8926031362)" style="fill: #cf4c48"/>
   </g>
   <g id="patch_45">
    <path d="M 406.446521 206357.977903 
L 412.142536 206357.977903 
L 412.142536 183.205078 
L 406.446521 183.205078 
z
" clip-path="url(#p8926031362)" style="fill: #cf4c48"/>
   </g>
   <g id="patch_46">
    <path d="M 448.901291 206357.977903 
L 454.597306 206357.977903 
L 454.597306 393.118825 
L 448.901291 393.118825 
z
" clip-path="url(#p8926031362)" style="fill: #cf4c48"/>
   </g>
   <g id="patch_47">
    <path d="M 491.356061 206357.977903 
L 497.052076 206357.977903 
L 497.052076 358.406887 
L 491.356061 358.406887 
z
" clip-path="url(#p8926031362)" style="fill: #cf4c48"/>
   </g>
   <g id="patch_48">
    <path d="M 533.810831 206357.977903 
L 539.506846 206357.977903 
L 539.506846 342.755372 
L 533.810831 342.755372 
z
" clip-path="url(#p8926031362)" style="fill: #cf4c48"/>
   </g>
   <g id="patch_49">
    <path d="M 576.265601 206357.977903 
L 581.961616 206357.977903 
L 581.961616 350.239093 
L 576.265601 350.239093 
z
" clip-path="url(#p8926031362)" style="fill: #cf4c48"/>
   </g>
   <g id="patch_50">
    <path d="M 618.720371 206357.977903 
L 624.416386 206357.977903 
L 624.416386 338.299745 
L 618.720371 338.299745 
z
" clip-path="url(#p8926031362)" style="fill: #cf4c48"/>
   </g>
   <g id="patch_51">
    <path d="M 661.175141 206357.977903 
L 666.871156 206357.977903 
L 666.871156 240.485202 
L 661.175141 240.485202 
z
" clip-path="url(#p8926031362)" style="fill: #cf4c48"/>
   </g>
   <g id="patch_52">
    <path d="M 703.629912 206357.977903 
L 709.325927 206357.977903 
L 709.325927 243.444745 
L 703.629912 243.444745 
z
" clip-path="url(#p8926031362)" style="fill: #cf4c48"/>
   </g>
   <g id="patch_53">
    <path d="M 746.084682 206357.977903 
L 751.780697 206357.977903 
L 751.780697 236.0238 
L 746.084682 236.0238 
z
" clip-path="url(#p8926031362)" style="fill: #cf4c48"/>
   </g>
   <g id="patch_54">
    <path d="M 788.539452 206357.977903 
L 794.235467 206357.977903 
L 794.235467 218.966917 
L 788.539452 218.966917 
z
" clip-path="url(#p8926031362)" style="fill: #cf4c48"/>
   </g>
   <g id="patch_55">
    <path d="M 830.994222 206357.977903 
L 836.690237 206357.977903 
L 836.690237 302.461085 
L 830.994222 302.461085 
z
" clip-path="url(#p8926031362)" style="fill: #cf4c48"/>
   </g>
   <g id="patch_56">
    <path d="M 873.448992 206357.977903 
L 879.145007 206357.977903 
L 879.145007 199.770232 
L 873.448992 199.770232 
z
" clip-path="url(#p8926031362)" style="fill: #cf4c48"/>
   </g>
   <g id="patch_57">
    <path d="M 915.903762 206357.977903 
L 921.599777 206357.977903 
L 921.599777 290.055101 
L 915.903762 290.055101 
z
" clip-path="url(#p8926031362)" style="fill: #cf4c48"/>
   </g>
   <g id="patch_58">
    <path d="M 958.358532 206357.977903 
L 964.054547 206357.977903 
L 964.054547 174.942545 
L 958.358532 174.942545 
z
" clip-path="url(#p8926031362)" style="fill: #cf4c48"/>
   </g>
   <g id="patch_59">
    <path d="M 1000.813302 206357.977903 
L 1006.509317 206357.977903 
L 1006.509317 126.59159 
L 1000.813302 126.59159 
z
" clip-path="url(#p8926031362)" style="fill: #cf4c48"/>
   </g>
   <g id="patch_60">
    <path d="M 1043.268072 206357.977903 
L 1048.964087 206357.977903 
L 1048.964087 146.514286 
L 1043.268072 146.514286 
z
" clip-path="url(#p8926031362)" style="fill: #cf4c48"/>
   </g>
   <g id="patch_61">
    <path d="M 1085.722842 206357.977903 
L 1091.418857 206357.977903 
L 1091.418857 156.909343 
L 1085.722842 156.909343 
z
" clip-path="url(#p8926031362)" style="fill: #cf4c48"/>
   </g>
   <g id="patch_62">
    <path d="M 1128.177612 206357.977903 
L 1133.873627 206357.977903 
L 1133.873627 182.332756 
L 1128.177612 182.332756 
z
" clip-path="url(#p8926031362)" style="fill: #cf4c48"/>
   </g>
   <g id="patch_63">
    <path d="M 1170.632382 206357.977903 
L 1176.328397 206357.977903 
L 1176.328397 245.840833 
L 1170.632382 245.840833 
z
" clip-path="url(#p8926031362)" style="fill: #cf4c48"/>
   </g>
   <g id="patch_64">
    <path d="M 1213.087152 206357.977903 
L 1218.783167 206357.977903 
L 1218.783167 123.841989 
L 1213.087152 123.841989 
z
" clip-path="url(#p8926031362)" style="fill: #cf4c48"/>
   </g>
   <g id="patch_65">
    <path d="M 1255.541922 206357.977903 
L 1261.237937 206357.977903 
L 1261.237937 231.774467 
L 1255.541922 231.774467 
z
" clip-path="url(#p8926031362)" style="fill: #cf4c48"/>
   </g>
   <g id="patch_66">
    <path d="M 1297.996692 206357.977903 
L 1303.692707 206357.977903 
L 1303.692707 139.056037 
L 1297.996692 139.056037 
z
" clip-path="url(#p8926031362)" style="fill: #cf4c48"/>
   </g>
   <g id="patch_67">
    <path d="M 1340.451463 206357.977903 
L 1346.147477 206357.977903 
L 1346.147477 76.480294 
L 1340.451463 76.480294 
z
" clip-path="url(#p8926031362)" style="fill: #cf4c48"/>
   </g>
   <g id="patch_68">
    <path d="M 1382.906233 206357.977903 
L 1388.602248 206357.977903 
L 1388.602248 98.430476 
L 1382.906233 98.430476 
z
" clip-path="url(#p8926031362)" style="fill: #cf4c48"/>
   </g>
   <g id="patch_69">
    <path d="M 114.959146 206357.977903 
L 120.655161 206357.977903 
L 120.655161 568.260846 
L 114.959146 568.260846 
z
" clip-path="url(#p8926031362)" style="fill: #242b5f"/>
   </g>
   <g id="patch_70">
    <path d="M 157.413916 206357.977903 
L 163.109931 206357.977903 
L 163.109931 568.260846 
L 157.413916 568.260846 
z
" clip-path="url(#p8926031362)" style="fill: #242b5f"/>
   </g>
   <g id="patch_71">
    <path d="M 199.868686 206357.977903 
L 205.564701 206357.977903 
L 205.564701 608.673875 
L 199.868686 608.673875 
z
" clip-path="url(#p8926031362)" style="fill: #242b5f"/>
   </g>
   <g id="patch_72">
    <path d="M 242.323456 206357.977903 
L 248.019471 206357.977903 
L 248.019471 553.324156 
L 242.323456 553.324156 
z
" clip-path="url(#p8926031362)" style="fill: #242b5f"/>
   </g>
   <g id="patch_73">
    <path d="M 284.778226 206357.977903 
L 290.474241 206357.977903 
L 290.474241 434.685576 
L 284.778226 434.685576 
z
" clip-path="url(#p8926031362)" style="fill: #242b5f"/>
   </g>
   <g id="patch_74">
    <path d="M 327.232996 206357.977903 
L 332.929011 206357.977903 
L 332.929011 424.357304 
L 327.232996 424.357304 
z
" clip-path="url(#p8926031362)" style="fill: #242b5f"/>
   </g>
   <g id="patch_75">
    <path d="M 369.687766 206357.977903 
L 375.383781 206357.977903 
L 375.383781 467.362174 
L 369.687766 467.362174 
z
" clip-path="url(#p8926031362)" style="fill: #242b5f"/>
   </g>
   <g id="patch_76">
    <path d="M 412.142536 206357.977903 
L 417.838551 206357.977903 
L 417.838551 450.62316 
L 412.142536 450.62316 
z
" clip-path="url(#p8926031362)" style="fill: #242b5f"/>
   </g>
   <g id="patch_77">
    <path d="M 454.597306 206357.977903 
L 460.293321 206357.977903 
L 460.293321 553.324156 
L 454.597306 553.324156 
z
" clip-path="url(#p8926031362)" style="fill: #242b5f"/>
   </g>
   <g id="patch_78">
    <path d="M 497.052076 206357.977903 
L 502.748091 206357.977903 
L 502.748091 560.480959 
L 497.052076 560.480959 
z
" clip-path="url(#p8926031362)" style="fill: #242b5f"/>
   </g>
   <g id="patch_79">
    <path d="M 539.506846 206357.977903 
L 545.202861 206357.977903 
L 545.202861 596.734526 
L 539.506846 596.734526 
z
" clip-path="url(#p8926031362)" style="fill: #242b5f"/>
   </g>
   <g id="patch_80">
    <path d="M 581.961616 206357.977903 
L 587.657631 206357.977903 
L 587.657631 560.480959 
L 581.961616 560.480959 
z
" clip-path="url(#p8926031362)" style="fill: #242b5f"/>
   </g>
   <g id="patch_81">
    <path d="M 624.416386 206357.977903 
L 630.112401 206357.977903 
L 630.112401 510.444425 
L 624.416386 510.444425 
z
" clip-path="url(#p8926031362)" style="fill: #242b5f"/>
   </g>
   <g id="patch_82">
    <path d="M 666.871156 206357.977903 
L 672.567171 206357.977903 
L 672.567171 519.393117 
L 666.871156 519.393117 
z
" clip-path="url(#p8926031362)" style="fill: #242b5f"/>
   </g>
   <g id="patch_83">
    <path d="M 709.325927 206357.977903 
L 715.021942 206357.977903 
L 715.021942 494.855088 
L 709.325927 494.855088 
z
" clip-path="url(#p8926031362)" style="fill: #242b5f"/>
   </g>
   <g id="patch_84">
    <path d="M 751.780697 206357.977903 
L 757.476712 206357.977903 
L 757.476712 506.284964 
L 751.780697 506.284964 
z
" clip-path="url(#p8926031362)" style="fill: #242b5f"/>
   </g>
   <g id="patch_85">
    <path d="M 794.235467 206357.977903 
L 799.931482 206357.977903 
L 799.931482 472.782761 
L 794.235467 472.782761 
z
" clip-path="url(#p8926031362)" style="fill: #242b5f"/>
   </g>
   <g id="patch_86">
    <path d="M 836.690237 206357.977903 
L 842.386252 206357.977903 
L 842.386252 568.260846 
L 836.690237 568.260846 
z
" clip-path="url(#p8926031362)" style="fill: #242b5f"/>
   </g>
   <g id="patch_87">
    <path d="M 879.145007 206357.977903 
L 884.841022 206357.977903 
L 884.841022 514.806866 
L 879.145007 514.806866 
z
" clip-path="url(#p8926031362)" style="fill: #242b5f"/>
   </g>
   <g id="patch_88">
    <path d="M 921.599777 206357.977903 
L 927.295792 206357.977903 
L 927.295792 502.310429 
L 921.599777 502.310429 
z
" clip-path="url(#p8926031362)" style="fill: #242b5f"/>
   </g>
   <g id="patch_89">
    <path d="M 964.054547 206357.977903 
L 969.750562 206357.977903 
L 969.750562 413.645603 
L 964.054547 413.645603 
z
" clip-path="url(#p8926031362)" style="fill: #242b5f"/>
   </g>
   <g id="patch_90">
    <path d="M 1006.509317 206357.977903 
L 1012.205332 206357.977903 
L 1012.205332 404.08098 
L 1006.509317 404.08098 
z
" clip-path="url(#p8926031362)" style="fill: #242b5f"/>
   </g>
   <g id="patch_91">
    <path d="M 1048.964087 206357.977903 
L 1054.660102 206357.977903 
L 1054.660102 502.310429 
L 1048.964087 502.310429 
z
" clip-path="url(#p8926031362)" style="fill: #242b5f"/>
   </g>
   <g id="patch_92">
    <path d="M 1091.418857 206357.977903 
L 1097.114872 206357.977903 
L 1097.114872 502.310429 
L 1091.418857 502.310429 
z
" clip-path="url(#p8926031362)" style="fill: #242b5f"/>
   </g>
   <g id="patch_93">
    <path d="M 1133.873627 206357.977903 
L 1139.569642 206357.977903 
L 1139.569642 546.697992 
L 1133.873627 546.697992 
z
" clip-path="url(#p8926031362)" style="fill: #242b5f"/>
   </g>
   <g id="patch_94">
    <path d="M 1176.328397 206357.977903 
L 1182.024412 206357.977903 
L 1182.024412 440.334547 
L 1176.328397 440.334547 
z
" clip-path="url(#p8926031362)" style="fill: #242b5f"/>
   </g>
   <g id="patch_95">
    <path d="M 1218.783167 206357.977903 
L 1224.479182 206357.977903 
L 1224.479182 519.393117 
L 1218.783167 519.393117 
z
" clip-path="url(#p8926031362)" style="fill: #242b5f"/>
   </g>
   <g id="patch_96">
    <path d="M 1261.237937 206357.977903 
L 1266.933952 206357.977903 
L 1266.933952 540.529181 
L 1261.237937 540.529181 
z
" clip-path="url(#p8926031362)" style="fill: #242b5f"/>
   </g>
   <g id="patch_97">
    <path d="M 1303.692707 206357.977903 
L 1309.388722 206357.977903 
L 1309.388722 470.031397 
L 1303.692707 470.031397 
z
" clip-path="url(#p8926031362)" style="fill: #242b5f"/>
   </g>
   <g id="patch_98">
    <path d="M 1346.147477 206357.977903 
L 1351.843492 206357.977903 
L 1351.843492 342.105098 
L 1346.147477 342.105098 
z
" clip-path="url(#p8926031362)" style="fill: #242b5f"/>
   </g>
   <g id="patch_99">
    <path d="M 1388.602248 206357.977903 
L 1394.298263 206357.977903 
L 1394.298263 462.251509 
L 1388.602248 462.251509 
z
" clip-path="url(#p8926031362)" style="fill: #242b5f"/>
   </g>
   <g id="patch_100">
    <path d="M 120.655161 206357.977903 
L 126.351176 206357.977903 
L 126.351176 206357.977903 
L 120.655161 206357.977903 
z
" clip-path="url(#p8926031362)" style="fill: #cfcfcf"/>
   </g>
   <g id="patch_101">
    <path d="M 163.109931 206357.977903 
L 168.805946 206357.977903 
L 168.805946 370.903324 
L 163.109931 370.903324 
z
" clip-path="url(#p8926031362)" style="fill: #cfcfcf"/>
   </g>
   <g id="patch_102">
    <path d="M 205.564701 206357.977903 
L 211.260716 206357.977903 
L 211.260716 206357.977903 
L 205.564701 206357.977903 
z
" clip-path="url(#p8926031362)" style="fill: #cfcfcf"/>
   </g>
   <g id="patch_103">
    <path d="M 248.019471 206357.977903 
L 253.715486 206357.977903 
L 253.715486 384.388745 
L 248.019471 384.388745 
z
" clip-path="url(#p8926031362)" style="fill: #cfcfcf"/>
   </g>
   <g id="patch_104">
    <path d="M 290.474241 206357.977903 
L 296.170256 206357.977903 
L 296.170256 376.435746 
L 290.474241 376.435746 
z
" clip-path="url(#p8926031362)" style="fill: #cfcfcf"/>
   </g>
   <g id="patch_105">
    <path d="M 332.929011 206357.977903 
L 338.625026 206357.977903 
L 338.625026 452.830984 
L 332.929011 452.830984 
z
" clip-path="url(#p8926031362)" style="fill: #cfcfcf"/>
   </g>
   <g id="patch_106">
    <path d="M 375.383781 206357.977903 
L 381.079796 206357.977903 
L 381.079796 405.386292 
L 375.383781 405.386292 
z
" clip-path="url(#p8926031362)" style="fill: #cfcfcf"/>
   </g>
   <g id="patch_107">
    <path d="M 417.838551 206357.977903 
L 423.534566 206357.977903 
L 423.534566 412.214976 
L 417.838551 412.214976 
z
" clip-path="url(#p8926031362)" style="fill: #cfcfcf"/>
   </g>
   <g id="patch_108">
    <path d="M 460.293321 206357.977903 
L 465.989336 206357.977903 
L 465.989336 206357.977903 
L 460.293321 206357.977903 
z
" clip-path="url(#p8926031362)" style="fill: #cfcfcf"/>
   </g>
   <g id="patch_109">
    <path d="M 502.748091 206357.977903 
L 508.444106 206357.977903 
L 508.444106 206357.977903 
L 502.748091 206357.977903 
z
" clip-path="url(#p8926031362)" style="fill: #cfcfcf"/>
   </g>
   <g id="patch_110">
    <path d="M 545.202861 206357.977903 
L 550.898876 206357.977903 
L 550.898876 206357.977903 
L 545.202861 206357.977903 
z
" clip-path="url(#p8926031362)" style="fill: #cfcfcf"/>
   </g>
   <g id="patch_111">
    <path d="M 587.657631 206357.977903 
L 593.353646 206357.977903 
L 593.353646 206357.977903 
L 587.657631 206357.977903 
z
" clip-path="url(#p8926031362)" style="fill: #cfcfcf"/>
   </g>
   <g id="patch_112">
    <path d="M 630.112401 206357.977903 
L 635.808416 206357.977903 
L 635.808416 206357.977903 
L 630.112401 206357.977903 
z
" clip-path="url(#p8926031362)" style="fill: #cfcfcf"/>
   </g>
   <g id="patch_113">
    <path d="M 672.567171 206357.977903 
L 678.263186 206357.977903 
L 678.263186 450.62316 
L 672.567171 450.62316 
z
" clip-path="url(#p8926031362)" style="fill: #cfcfcf"/>
   </g>
   <g id="patch_114">
    <path d="M 715.021942 206357.977903 
L 720.717957 206357.977903 
L 720.717957 438.411628 
L 715.021942 438.411628 
z
" clip-path="url(#p8926031362)" style="fill: #cfcfcf"/>
   </g>
   <g id="patch_115">
    <path d="M 757.476712 206357.977903 
L 763.172727 206357.977903 
L 763.172727 452.830984 
L 757.476712 452.830984 
z
" clip-path="url(#p8926031362)" style="fill: #cfcfcf"/>
   </g>
   <g id="patch_116">
    <path d="M 799.931482 206357.977903 
L 805.627497 206357.977903 
L 805.627497 415.099494 
L 799.931482 415.099494 
z
" clip-path="url(#p8926031362)" style="fill: #cfcfcf"/>
   </g>
   <g id="patch_117">
    <path d="M 842.386252 206357.977903 
L 848.082267 206357.977903 
L 848.082267 206357.977903 
L 842.386252 206357.977903 
z
" clip-path="url(#p8926031362)" style="fill: #cfcfcf"/>
   </g>
   <g id="patch_118">
    <path d="M 884.841022 206357.977903 
L 890.537037 206357.977903 
L 890.537037 399.042334 
L 884.841022 399.042334 
z
" clip-path="url(#p8926031362)" style="fill: #cfcfcf"/>
   </g>
   <g id="patch_119">
    <path d="M 927.295792 206357.977903 
L 932.991807 206357.977903 
L 932.991807 206357.977903 
L 927.295792 206357.977903 
z
" clip-path="url(#p8926031362)" style="fill: #cfcfcf"/>
   </g>
   <g id="patch_120">
    <path d="M 969.750562 206357.977903 
L 975.446577 206357.977903 
L 975.446577 353.123611 
L 969.750562 353.123611 
z
" clip-path="url(#p8926031362)" style="fill: #cfcfcf"/>
   </g>
   <g id="patch_121">
    <path d="M 1012.205332 206357.977903 
L 1017.901347 206357.977903 
L 1017.901347 273.874057 
L 1012.205332 273.874057 
z
" clip-path="url(#p8926031362)" style="fill: #cfcfcf"/>
   </g>
   <g id="patch_122">
    <path d="M 1054.660102 206357.977903 
L 1060.356117 206357.977903 
L 1060.356117 339.550287 
L 1054.660102 339.550287 
z
" clip-path="url(#p8926031362)" style="fill: #cfcfcf"/>
   </g>
   <g id="patch_123">
    <path d="M 1097.114872 206357.977903 
L 1102.810887 206357.977903 
L 1102.810887 356.865258 
L 1097.114872 356.865258 
z
" clip-path="url(#p8926031362)" style="fill: #cfcfcf"/>
   </g>
   <g id="patch_124">
    <path d="M 1139.569642 206357.977903 
L 1145.265657 206357.977903 
L 1145.265657 250.137067 
L 1139.569642 250.137067 
z
" clip-path="url(#p8926031362)" style="fill: #cfcfcf"/>
   </g>
   <g id="patch_125">
    <path d="M 1182.024412 206357.977903 
L 1187.720427 206357.977903 
L 1187.720427 230.463688 
L 1182.024412 230.463688 
z
" clip-path="url(#p8926031362)" style="fill: #cfcfcf"/>
   </g>
   <g id="patch_126">
    <path d="M 1224.479182 206357.977903 
L 1230.175197 206357.977903 
L 1230.175197 353.123611 
L 1224.479182 353.123611 
z
" clip-path="url(#p8926031362)" style="fill: #cfcfcf"/>
   </g>
   <g id="patch_127">
    <path d="M 1266.933952 206357.977903 
L 1272.629967 206357.977903 
L 1272.629967 362.381421 
L 1266.933952 362.381421 
z
" clip-path="url(#p8926031362)" style="fill: #cfcfcf"/>
   </g>
   <g id="patch_128">
    <path d="M 1309.388722 206357.977903 
L 1315.084737 206357.977903 
L 1315.084737 397.825822 
L 1309.388722 397.825822 
z
" clip-path="url(#p8926031362)" style="fill: #cfcfcf"/>
   </g>
   <g id="patch_129">
    <path d="M 1351.843492 206357.977903 
L 1357.539507 206357.977903 
L 1357.539507 268.88094 
L 1351.843492 268.88094 
z
" clip-path="url(#p8926031362)" style="fill: #cfcfcf"/>
   </g>
   <g id="patch_130">
    <path d="M 1394.298263 206357.977903 
L 1399.994278 206357.977903 
L 1399.994278 284.10375 
L 1394.298263 284.10375 
z
" clip-path="url(#p8926031362)" style="fill: #cfcfcf"/>
   </g>
   <g id="patch_131">
    <path d="M 126.351176 206357.977903 
L 132.047191 206357.977903 
L 132.047191 429.372392 
L 126.351176 429.372392 
z
" clip-path="url(#p8926031362)" style="fill: #a0a0a0"/>
   </g>
   <g id="patch_132">
    <path d="M 168.805946 206357.977903 
L 174.501961 206357.977903 
L 174.501961 331.717943 
L 168.805946 331.717943 
z
" clip-path="url(#p8926031362)" style="fill: #a0a0a0"/>
   </g>
   <g id="patch_133">
    <path d="M 211.260716 206357.977903 
L 216.956731 206357.977903 
L 216.956731 478.553299 
L 211.260716 478.553299 
z
" clip-path="url(#p8926031362)" style="fill: #a0a0a0"/>
   </g>
   <g id="patch_134">
    <path d="M 253.715486 206357.977903 
L 259.411501 206357.977903 
L 259.411501 384.388745 
L 253.715486 384.388745 
z
" clip-path="url(#p8926031362)" style="fill: #a0a0a0"/>
   </g>
   <g id="patch_135">
    <path d="M 296.170256 206357.977903 
L 301.866271 206357.977903 
L 301.866271 292.998981 
L 296.170256 292.998981 
z
" clip-path="url(#p8926031362)" style="fill: #a0a0a0"/>
   </g>
   <g id="patch_136">
    <path d="M 338.625026 206357.977903 
L 344.321041 206357.977903 
L 344.321041 310.278786 
L 338.625026 310.278786 
z
" clip-path="url(#p8926031362)" style="fill: #a0a0a0"/>
   </g>
   <g id="patch_137">
    <path d="M 381.079796 206357.977903 
L 386.775811 206357.977903 
L 386.775811 338.92283 
L 381.079796 338.92283 
z
" clip-path="url(#p8926031362)" style="fill: #a0a0a0"/>
   </g>
   <g id="patch_138">
    <path d="M 423.534566 206357.977903 
L 429.230581 206357.977903 
L 429.230581 294.889375 
L 423.534566 294.889375 
z
" clip-path="url(#p8926031362)" style="fill: #a0a0a0"/>
   </g>
   <g id="patch_139">
    <path d="M 465.989336 206357.977903 
L 471.685351 206357.977903 
L 471.685351 782.662173 
L 465.989336 782.662173 
z
" clip-path="url(#p8926031362)" style="fill: #a0a0a0"/>
   </g>
   <g id="patch_140">
    <path d="M 508.444106 206357.977903 
L 514.140121 206357.977903 
L 514.140121 622.456841 
L 508.444106 622.456841 
z
" clip-path="url(#p8926031362)" style="fill: #a0a0a0"/>
   </g>
   <g id="patch_141">
    <path d="M 550.898876 206357.977903 
L 556.594891 206357.977903 
L 556.594891 546.697992 
L 550.898876 546.697992 
z
" clip-path="url(#p8926031362)" style="fill: #a0a0a0"/>
   </g>
   <g id="patch_142">
    <path d="M 593.353646 206357.977903 
L 599.049661 206357.977903 
L 599.049661 568.260846 
L 593.353646 568.260846 
z
" clip-path="url(#p8926031362)" style="fill: #a0a0a0"/>
   </g>
   <g id="patch_143">
    <path d="M 635.808416 206357.977903 
L 641.504431 206357.977903 
L 641.504431 487.973825 
L 635.808416 487.973825 
z
" clip-path="url(#p8926031362)" style="fill: #a0a0a0"/>
   </g>
   <g id="patch_144">
    <path d="M 678.263186 206357.977903 
L 683.959201 206357.977903 
L 683.959201 359.975564 
L 678.263186 359.975564 
z
" clip-path="url(#p8926031362)" style="fill: #a0a0a0"/>
   </g>
   <g id="patch_145">
    <path d="M 720.717957 206357.977903 
L 726.413971 206357.977903 
L 726.413971 415.099494 
L 720.717957 415.099494 
z
" clip-path="url(#p8926031362)" style="fill: #a0a0a0"/>
   </g>
   <g id="patch_146">
    <path d="M 763.172727 206357.977903 
L 768.868742 206357.977903 
L 768.868742 364.02206 
L 763.172727 364.02206 
z
" clip-path="url(#p8926031362)" style="fill: #a0a0a0"/>
   </g>
   <g id="patch_147">
    <path d="M 805.627497 206357.977903 
L 811.323512 206357.977903 
L 811.323512 366.540883 
L 805.627497 366.540883 
z
" clip-path="url(#p8926031362)" style="fill: #a0a0a0"/>
   </g>
   <g id="patch_148">
    <path d="M 848.082267 206357.977903 
L 853.778282 206357.977903 
L 853.778282 472.782761 
L 848.082267 472.782761 
z
" clip-path="url(#p8926031362)" style="fill: #a0a0a0"/>
   </g>
   <g id="patch_149">
    <path d="M 890.537037 206357.977903 
L 896.233052 206357.977903 
L 896.233052 338.92283 
L 890.537037 338.92283 
z
" clip-path="url(#p8926031362)" style="fill: #a0a0a0"/>
   </g>
   <g id="patch_150">
    <path d="M 932.991807 206357.977903 
L 938.687822 206357.977903 
L 938.687822 455.094707 
L 932.991807 455.094707 
z
" clip-path="url(#p8926031362)" style="fill: #a0a0a0"/>
   </g>
   <g id="patch_151">
    <path d="M 975.446577 206357.977903 
L 981.142592 206357.977903 
L 981.142592 314.459863 
L 975.446577 314.459863 
z
" clip-path="url(#p8926031362)" style="fill: #a0a0a0"/>
   </g>
   <g id="patch_152">
    <path d="M 1017.901347 206357.977903 
L 1023.597362 206357.977903 
L 1023.597362 287.205065 
L 1017.901347 287.205065 
z
" clip-path="url(#p8926031362)" style="fill: #a0a0a0"/>
   </g>
   <g id="patch_153">
    <path d="M 1060.356117 206357.977903 
L 1066.052132 206357.977903 
L 1066.052132 290.417829 
L 1060.356117 290.417829 
z
" clip-path="url(#p8926031362)" style="fill: #a0a0a0"/>
   </g>
   <g id="patch_154">
    <path d="M 1102.810887 206357.977903 
L 1108.506902 206357.977903 
L 1108.506902 310.733812 
L 1102.810887 310.733812 
z
" clip-path="url(#p8926031362)" style="fill: #a0a0a0"/>
   </g>
   <g id="patch_155">
    <path d="M 1145.265657 206357.977903 
L 1150.961672 206357.977903 
L 1150.961672 393.118825 
L 1145.265657 393.118825 
z
" clip-path="url(#p8926031362)" style="fill: #a0a0a0"/>
   </g>
   <g id="patch_156">
    <path d="M 1187.720427 206357.977903 
L 1193.416442 206357.977903 
L 1193.416442 418.08018 
L 1187.720427 418.08018 
z
" clip-path="url(#p8926031362)" style="fill: #a0a0a0"/>
   </g>
   <g id="patch_157">
    <path d="M 1230.175197 206357.977903 
L 1235.871212 206357.977903 
L 1235.871212 290.417829 
L 1230.175197 290.417829 
z
" clip-path="url(#p8926031362)" style="fill: #a0a0a0"/>
   </g>
   <g id="patch_158">
    <path d="M 1272.629967 206357.977903 
L 1278.325982 206357.977903 
L 1278.325982 371.801947 
L 1272.629967 371.801947 
z
" clip-path="url(#p8926031362)" style="fill: #a0a0a0"/>
   </g>
   <g id="patch_159">
    <path d="M 1315.084737 206357.977903 
L 1320.780752 206357.977903 
L 1320.780752 219.787973 
L 1315.084737 219.787973 
z
" clip-path="url(#p8926031362)" style="fill: #a0a0a0"/>
   </g>
   <g id="patch_160">
    <path d="M 1357.539507 206357.977903 
L 1363.235522 206357.977903 
L 1363.235522 220.450289 
L 1357.539507 220.450289 
z
" clip-path="url(#p8926031362)" style="fill: #a0a0a0"/>
   </g>
   <g id="patch_161">
    <path d="M 1399.994278 206357.977903 
L 1405.690293 206357.977903 
L 1405.690293 214.34798 
L 1399.994278 214.34798 
z
" clip-path="url(#p8926031362)" style="fill: #a0a0a0"/>
   </g>
   <g id="patch_162">
    <path d="M 132.047191 206357.977903 
L 137.743206 206357.977903 
L 137.743206 638.75863 
L 132.047191 638.75863 
z
" clip-path="url(#p8926031362)" style="fill: #767676"/>
   </g>
   <g id="patch_163">
    <path d="M 174.501961 206357.977903 
L 180.197976 206357.977903 
L 180.197976 546.697992 
L 174.501961 546.697992 
z
" clip-path="url(#p8926031362)" style="fill: #767676"/>
   </g>
   <g id="patch_164">
    <path d="M 216.956731 206357.977903 
L 222.652746 206357.977903 
L 222.652746 684.432723 
L 216.956731 684.432723 
z
" clip-path="url(#p8926031362)" style="fill: #767676"/>
   </g>
   <g id="patch_165">
    <path d="M 259.411501 206357.977903 
L 265.107516 206357.977903 
L 265.107516 586.203274 
L 259.411501 586.203274 
z
" clip-path="url(#p8926031362)" style="fill: #767676"/>
   </g>
   <g id="patch_166">
    <path d="M 301.866271 206357.977903 
L 307.562286 206357.977903 
L 307.562286 475.621485 
L 301.866271 475.621485 
z
" clip-path="url(#p8926031362)" style="fill: #767676"/>
   </g>
   <g id="patch_167">
    <path d="M 344.321041 206357.977903 
L 350.017056 206357.977903 
L 350.017056 519.393117 
L 344.321041 519.393117 
z
" clip-path="url(#p8926031362)" style="fill: #767676"/>
   </g>
   <g id="patch_168">
    <path d="M 386.775811 206357.977903 
L 392.471826 206357.977903 
L 392.471826 540.529181 
L 386.775811 540.529181 
z
" clip-path="url(#p8926031362)" style="fill: #767676"/>
   </g>
   <g id="patch_169">
    <path d="M 429.230581 206357.977903 
L 434.926596 206357.977903 
L 434.926596 502.310429 
L 429.230581 502.310429 
z
" clip-path="url(#p8926031362)" style="fill: #767676"/>
   </g>
   <g id="patch_170">
    <path d="M 471.685351 206357.977903 
L 477.381366 206357.977903 
L 477.381366 206357.977903 
L 471.685351 206357.977903 
z
" clip-path="url(#p8926031362)" style="fill: #767676"/>
   </g>
   <g id="patch_171">
    <path d="M 514.140121 206357.977903 
L 519.836136 206357.977903 
L 519.836136 684.432723 
L 514.140121 684.432723 
z
" clip-path="url(#p8926031362)" style="fill: #767676"/>
   </g>
   <g id="patch_172">
    <path d="M 556.594891 206357.977903 
L 562.290906 206357.977903 
L 562.290906 684.432723 
L 556.594891 684.432723 
z
" clip-path="url(#p8926031362)" style="fill: #767676"/>
   </g>
   <g id="patch_173">
    <path d="M 599.049661 206357.977903 
L 604.745676 206357.977903 
L 604.745676 684.432723 
L 599.049661 684.432723 
z
" clip-path="url(#p8926031362)" style="fill: #767676"/>
   </g>
   <g id="patch_174">
    <path d="M 641.504431 206357.977903 
L 647.200446 206357.977903 
L 647.200446 684.432723 
L 641.504431 684.432723 
z
" clip-path="url(#p8926031362)" style="fill: #767676"/>
   </g>
   <g id="patch_175">
    <path d="M 683.959201 206357.977903 
L 689.655216 206357.977903 
L 689.655216 586.203274 
L 683.959201 586.203274 
z
" clip-path="url(#p8926031362)" style="fill: #767676"/>
   </g>
   <g id="patch_176">
    <path d="M 726.413971 206357.977903 
L 732.109986 206357.977903 
L 732.109986 622.456841 
L 726.413971 622.456841 
z
" clip-path="url(#p8926031362)" style="fill: #767676"/>
   </g>
   <g id="patch_177">
    <path d="M 768.868742 206357.977903 
L 774.564757 206357.977903 
L 774.564757 596.734526 
L 768.868742 596.734526 
z
" clip-path="url(#p8926031362)" style="fill: #767676"/>
   </g>
   <g id="patch_178">
    <path d="M 811.323512 206357.977903 
L 817.019527 206357.977903 
L 817.019527 576.782748 
L 811.323512 576.782748 
z
" clip-path="url(#p8926031362)" style="fill: #767676"/>
   </g>
   <g id="patch_179">
    <path d="M 853.778282 206357.977903 
L 859.474297 206357.977903 
L 859.474297 684.432723 
L 853.778282 684.432723 
z
" clip-path="url(#p8926031362)" style="fill: #767676"/>
   </g>
   <g id="patch_180">
    <path d="M 896.233052 206357.977903 
L 901.929067 206357.977903 
L 901.929067 553.324156 
L 896.233052 553.324156 
z
" clip-path="url(#p8926031362)" style="fill: #767676"/>
   </g>
   <g id="patch_181">
    <path d="M 938.687822 206357.977903 
L 944.383837 206357.977903 
L 944.383837 684.432723 
L 938.687822 684.432723 
z
" clip-path="url(#p8926031362)" style="fill: #767676"/>
   </g>
   <g id="patch_182">
    <path d="M 981.142592 206357.977903 
L 986.838607 206357.977903 
L 986.838607 491.348274 
L 981.142592 491.348274 
z
" clip-path="url(#p8926031362)" style="fill: #767676"/>
   </g>
   <g id="patch_183">
    <path d="M 1023.597362 206357.977903 
L 1029.293377 206357.977903 
L 1029.293377 369.132725 
L 1023.597362 369.132725 
z
" clip-path="url(#p8926031362)" style="fill: #767676"/>
   </g>
   <g id="patch_184">
    <path d="M 1066.052132 206357.977903 
L 1071.748147 206357.977903 
L 1071.748147 442.299732 
L 1066.052132 442.299732 
z
" clip-path="url(#p8926031362)" style="fill: #767676"/>
   </g>
   <g id="patch_185">
    <path d="M 1108.506902 206357.977903 
L 1114.202917 206357.977903 
L 1114.202917 491.348274 
L 1108.506902 491.348274 
z
" clip-path="url(#p8926031362)" style="fill: #767676"/>
   </g>
   <g id="patch_186">
    <path d="M 1150.961672 206357.977903 
L 1156.657687 206357.977903 
L 1156.657687 467.362174 
L 1150.961672 467.362174 
z
" clip-path="url(#p8926031362)" style="fill: #767676"/>
   </g>
   <g id="patch_187">
    <path d="M 1193.416442 206357.977903 
L 1199.112457 206357.977903 
L 1199.112457 498.505076 
L 1193.416442 498.505076 
z
" clip-path="url(#p8926031362)" style="fill: #767676"/>
   </g>
   <g id="patch_188">
    <path d="M 1235.871212 206357.977903 
L 1241.567227 206357.977903 
L 1241.567227 364.853808 
L 1235.871212 364.853808 
z
" clip-path="url(#p8926031362)" style="fill: #767676"/>
   </g>
   <g id="patch_189">
    <path d="M 1278.325982 206357.977903 
L 1284.021997 206357.977903 
L 1284.021997 560.480959 
L 1278.325982 560.480959 
z
" clip-path="url(#p8926031362)" style="fill: #767676"/>
   </g>
   <g id="patch_190">
    <path d="M 1320.780752 206357.977903 
L 1326.476767 206357.977903 
L 1326.476767 418.08018 
L 1320.780752 418.08018 
z
" clip-path="url(#p8926031362)" style="fill: #767676"/>
   </g>
   <g id="patch_191">
    <path d="M 1363.235522 206357.977903 
L 1368.931537 206357.977903 
L 1368.931537 311.191165 
L 1363.235522 311.191165 
z
" clip-path="url(#p8926031362)" style="fill: #767676"/>
   </g>
   <g id="patch_192">
    <path d="M 1405.690293 206357.977903 
L 1411.386307 206357.977903 
L 1411.386307 351.669721 
L 1405.690293 351.669721 
z
" clip-path="url(#p8926031362)" style="fill: #767676"/>
   </g>
   <g id="text_38">
    <!-- Gemiddelde Glans Metingen per Mock-up -->
    <g transform="translate(633.239212 35.1712) scale(0.12 -0.12)">
     <defs>
      <path id="DejaVuSans-73" d="M 2834 3397 
L 2834 2853 
Q 2591 2978 2328 3040 
Q 2066 3103 1784 3103 
Q 1356 3103 1142 2972 
Q 928 2841 928 2578 
Q 928 2378 1081 2264 
Q 1234 2150 1697 2047 
L 1894 2003 
Q 2506 1872 2764 1633 
Q 3022 1394 3022 966 
Q 3022 478 2636 193 
Q 2250 -91 1575 -91 
Q 1294 -91 989 -36 
Q 684 19 347 128 
L 347 722 
Q 666 556 975 473 
Q 1284 391 1588 391 
Q 1994 391 2212 530 
Q 2431 669 2431 922 
Q 2431 1156 2273 1281 
Q 2116 1406 1581 1522 
L 1381 1569 
Q 847 1681 609 1914 
Q 372 2147 372 2553 
Q 372 3047 722 3315 
Q 1072 3584 1716 3584 
Q 2034 3584 2315 3537 
Q 2597 3491 2834 3397 
z
" transform="scale(0.015625)"/>
     </defs>
     <use xlink:href="#DejaVuSans-47"/>
     <use xlink:href="#DejaVuSans-65" x="77.490234"/>
     <use xlink:href="#DejaVuSans-6d" x="139.013672"/>
     <use xlink:href="#DejaVuSans-69" x="236.425781"/>
     <use xlink:href="#DejaVuSans-64" x="264.208984"/>
     <use xlink:href="#DejaVuSans-64" x="327.685547"/>
     <use xlink:href="#DejaVuSans-65" x="391.162109"/>
     <use xlink:href="#DejaVuSans-6c" x="452.685547"/>
     <use xlink:href="#DejaVuSans-64" x="480.46875"/>
     <use xlink:href="#DejaVuSans-65" x="543.945312"/>
     <use xlink:href="#DejaVuSans-20" x="605.46875"/>
     <use xlink:href="#DejaVuSans-47" x="637.255859"/>
     <use xlink:href="#DejaVuSans-6c" x="714.746094"/>
     <use xlink:href="#DejaVuSans-61" x="742.529297"/>
     <use xlink:href="#DejaVuSans-6e" x="803.808594"/>
     <use xlink:href="#DejaVuSans-73" x="867.1875"/>
     <use xlink:href="#DejaVuSans-20" x="919.287109"/>
     <use xlink:href="#DejaVuSans-4d" x="951.074219"/>
     <use xlink:href="#DejaVuSans-65" x="1037.353516"/>
     <use xlink:href="#DejaVuSans-74" x="1098.876953"/>
     <use xlink:href="#DejaVuSans-69" x="1138.085938"/>
     <use xlink:href="#DejaVuSans-6e" x="1165.869141"/>
     <use xlink:href="#DejaVuSans-67" x="1229.248047"/>
     <use xlink:href="#DejaVuSans-65" x="1292.724609"/>
     <use xlink:href="#DejaVuSans-6e" x="1354.248047"/>
     <use xlink:href="#DejaVuSans-20" x="1417.626953"/>
     <use xlink:href="#DejaVuSans-70" x="1449.414062"/>
     <use xlink:href="#DejaVuSans-65" x="1512.890625"/>
     <use xlink:href="#DejaVuSans-72" x="1574.414062"/>
     <use xlink:href="#DejaVuSans-20" x="1615.527344"/>
     <use xlink:href="#DejaVuSans-4d" x="1647.314453"/>
     <use xlink:href="#DejaVuSans-6f" x="1733.59375"/>
     <use xlink:href="#DejaVuSans-63" x="1794.775391"/>
     <use xlink:href="#DejaVuSans-6b" x="1849.755859"/>
     <use xlink:href="#DejaVuSans-2d" x="1907.666016"/>
     <use xlink:href="#DejaVuSans-75" x="1943.75"/>
     <use xlink:href="#DejaVuSans-70" x="2007.128906"/>
    </g>
   </g>
   <g id="legend_1">
    <g id="patch_193">
     <path d="M 99.953423 151.918075 
L 162.111236 151.918075 
Q 164.111236 151.918075 164.111236 149.918075 
L 164.111236 48.1712 
Q 164.111236 46.1712 162.111236 46.1712 
L 99.953423 46.1712 
Q 97.953423 46.1712 97.953423 48.1712 
L 97.953423 149.918075 
Q 97.953423 151.918075 99.953423 151.918075 
z
" style="fill: #ffffff; opacity: 0.8; stroke: #cccccc; stroke-linejoin: miter"/>
    </g>
    <g id="text_39">
     <!-- Metingen -->
     <g transform="translate(107.704204 57.769638) scale(0.1 -0.1)">
      <use xlink:href="#DejaVuSans-4d"/>
      <use xlink:href="#DejaVuSans-65" x="86.279297"/>
      <use xlink:href="#DejaVuSans-74" x="147.802734"/>
      <use xlink:href="#DejaVuSans-69" x="187.011719"/>
      <use xlink:href="#DejaVuSans-6e" x="214.794922"/>
      <use xlink:href="#DejaVuSans-67" x="278.173828"/>
      <use xlink:href="#DejaVuSans-65" x="341.650391"/>
      <use xlink:href="#DejaVuSans-6e" x="403.173828"/>
     </g>
    </g>
    <g id="patch_194">
     <path d="M 101.953423 72.447763 
L 121.953423 72.447763 
L 121.953423 65.447763 
L 101.953423 65.447763 
z
" style="fill: #d6b863"/>
    </g>
    <g id="text_40">
     <!-- 20 -->
     <g transform="translate(129.953423 72.447763) scale(0.1 -0.1)">
      <use xlink:href="#DejaVuSans-32"/>
      <use xlink:href="#DejaVuSans-30" x="63.623047"/>
     </g>
    </g>
    <g id="patch_195">
     <path d="M 101.953423 87.125888 
L 121.953423 87.125888 
L 121.953423 80.125888 
L 101.953423 80.125888 
z
" style="fill: #cf4c48"/>
    </g>
    <g id="text_41">
     <!-- 60 -->
     <g transform="translate(129.953423 87.125888) scale(0.1 -0.1)">
      <use xlink:href="#DejaVuSans-36"/>
      <use xlink:href="#DejaVuSans-30" x="63.623047"/>
     </g>
    </g>
    <g id="patch_196">
     <path d="M 101.953423 101.804013 
L 121.953423 101.804013 
L 121.953423 94.804013 
L 101.953423 94.804013 
z
" style="fill: #242b5f"/>
    </g>
    <g id="text_42">
     <!-- 85 -->
     <g transform="translate(129.953423 101.804013) scale(0.1 -0.1)">
      <defs>
       <path id="DejaVuSans-38" d="M 2034 2216 
Q 1584 2216 1326 1975 
Q 1069 1734 1069 1313 
Q 1069 891 1326 650 
Q 1584 409 2034 409 
Q 2484 409 2743 651 
Q 3003 894 3003 1313 
Q 3003 1734 2745 1975 
Q 2488 2216 2034 2216 
z
M 1403 2484 
Q 997 2584 770 2862 
Q 544 3141 544 3541 
Q 544 4100 942 4425 
Q 1341 4750 2034 4750 
Q 2731 4750 3128 4425 
Q 3525 4100 3525 3541 
Q 3525 3141 3298 2862 
Q 3072 2584 2669 2484 
Q 3125 2378 3379 2068 
Q 3634 1759 3634 1313 
Q 3634 634 3220 271 
Q 2806 -91 2034 -91 
Q 1263 -91 848 271 
Q 434 634 434 1313 
Q 434 1759 690 2068 
Q 947 2378 1403 2484 
z
M 1172 3481 
Q 1172 3119 1398 2916 
Q 1625 2713 2034 2713 
Q 2441 2713 2670 2916 
Q 2900 3119 2900 3481 
Q 2900 3844 2670 4047 
Q 2441 4250 2034 4250 
Q 1625 4250 1398 4047 
Q 1172 3844 1172 3481 
z
" transform="scale(0.015625)"/>
      </defs>
      <use xlink:href="#DejaVuSans-38"/>
      <use xlink:href="#DejaVuSans-35" x="63.623047"/>
     </g>
    </g>
    <g id="patch_197">
     <path d="M 101.953423 116.482138 
L 121.953423 116.482138 
L 121.953423 109.482138 
L 101.953423 109.482138 
z
" style="fill: #cfcfcf"/>
    </g>
    <g id="text_43">
     <!-- DOI -->
     <g transform="translate(129.953423 116.482138) scale(0.1 -0.1)">
      <defs>
       <path id="DejaVuSans-44" d="M 1259 4147 
L 1259 519 
L 2022 519 
Q 2988 519 3436 956 
Q 3884 1394 3884 2338 
Q 3884 3275 3436 3711 
Q 2988 4147 2022 4147 
L 1259 4147 
z
M 628 4666 
L 1925 4666 
Q 3281 4666 3915 4102 
Q 4550 3538 4550 2338 
Q 4550 1131 3912 565 
Q 3275 0 1925 0 
L 628 0 
L 628 4666 
z
" transform="scale(0.015625)"/>
       <path id="DejaVuSans-4f" d="M 2522 4238 
Q 1834 4238 1429 3725 
Q 1025 3213 1025 2328 
Q 1025 1447 1429 934 
Q 1834 422 2522 422 
Q 3209 422 3611 934 
Q 4013 1447 4013 2328 
Q 4013 3213 3611 3725 
Q 3209 4238 2522 4238 
z
M 2522 4750 
Q 3503 4750 4090 4092 
Q 4678 3434 4678 2328 
Q 4678 1225 4090 567 
Q 3503 -91 2522 -91 
Q 1538 -91 948 565 
Q 359 1222 359 2328 
Q 359 3434 948 4092 
Q 1538 4750 2522 4750 
z
" transform="scale(0.015625)"/>
       <path id="DejaVuSans-49" d="M 628 4666 
L 1259 4666 
L 1259 0 
L 628 0 
L 628 4666 
z
" transform="scale(0.015625)"/>
      </defs>
      <use xlink:href="#DejaVuSans-44"/>
      <use xlink:href="#DejaVuSans-4f" x="77.001953"/>
      <use xlink:href="#DejaVuSans-49" x="155.712891"/>
     </g>
    </g>
    <g id="patch_198">
     <path d="M 101.953423 131.160263 
L 121.953423 131.160263 
L 121.953423 124.160263 
L 101.953423 124.160263 
z
" style="fill: #a0a0a0"/>
    </g>
    <g id="text_44">
     <!-- Haze -->
     <g transform="translate(129.953423 131.160263) scale(0.1 -0.1)">
      <defs>
       <path id="DejaVuSans-48" d="M 628 4666 
L 1259 4666 
L 1259 2753 
L 3553 2753 
L 3553 4666 
L 4184 4666 
L 4184 0 
L 3553 0 
L 3553 2222 
L 1259 2222 
L 1259 0 
L 628 0 
L 628 4666 
z
" transform="scale(0.015625)"/>
       <path id="DejaVuSans-7a" d="M 353 3500 
L 3084 3500 
L 3084 2975 
L 922 459 
L 3084 459 
L 3084 0 
L 275 0 
L 275 525 
L 2438 3041 
L 353 3041 
L 353 3500 
z
" transform="scale(0.015625)"/>
      </defs>
      <use xlink:href="#DejaVuSans-48"/>
      <use xlink:href="#DejaVuSans-61" x="75.195312"/>
      <use xlink:href="#DejaVuSans-7a" x="136.474609"/>
      <use xlink:href="#DejaVuSans-65" x="188.964844"/>
     </g>
    </g>
    <g id="patch_199">
     <path d="M 101.953423 145.838388 
L 121.953423 145.838388 
L 121.953423 138.838388 
L 101.953423 138.838388 
z
" style="fill: #767676"/>
    </g>
    <g id="text_45">
     <!-- Rspec -->
     <g transform="translate(129.953423 145.838388) scale(0.1 -0.1)">
      <defs>
       <path id="DejaVuSans-52" d="M 2841 2188 
Q 3044 2119 3236 1894 
Q 3428 1669 3622 1275 
L 4263 0 
L 3584 0 
L 2988 1197 
Q 2756 1666 2539 1819 
Q 2322 1972 1947 1972 
L 1259 1972 
L 1259 0 
L 628 0 
L 628 4666 
L 2053 4666 
Q 2853 4666 3247 4331 
Q 3641 3997 3641 3322 
Q 3641 2881 3436 2590 
Q 3231 2300 2841 2188 
z
M 1259 4147 
L 1259 2491 
L 2053 2491 
Q 2509 2491 2742 2702 
Q 2975 2913 2975 3322 
Q 2975 3731 2742 3939 
Q 2509 4147 2053 4147 
L 1259 4147 
z
" transform="scale(0.015625)"/>
      </defs>
      <use xlink:href="#DejaVuSans-52"/>
      <use xlink:href="#DejaVuSans-73" x="69.482422"/>
      <use xlink:href="#DejaVuSans-70" x="121.582031"/>
      <use xlink:href="#DejaVuSans-65" x="185.058594"/>
      <use xlink:href="#DejaVuSans-63" x="246.582031"/>
     </g>
    </g>
   </g>
  </g>
 </g>
 <defs>
  <clipPath id="p8926031362">
   <rect x="92.953423" y="41.1712" width="1329.046577" height="776.800067"/>
  </clipPath>
 </defs>
</svg>
