<?xml version="1.0" encoding="utf-8" standalone="no"?>
<!DOCTYPE svg PUBLIC "-//W3C//DTD SVG 1.1//EN"
  "http://www.w3.org/Graphics/SVG/1.1/DTD/svg11.dtd">
<svg xmlns:xlink="http://www.w3.org/1999/xlink" width="1440pt" height="882.24pt" viewBox="0 0 1440 882.24" xmlns="http://www.w3.org/2000/svg" version="1.1">
 <metadata>
  <rdf:RDF xmlns:dc="http://purl.org/dc/elements/1.1/" xmlns:cc="http://creativecommons.org/ns#" xmlns:rdf="http://www.w3.org/1999/02/22-rdf-syntax-ns#">
   <cc:Work>
    <dc:type rdf:resource="http://purl.org/dc/dcmitype/StillImage"/>
    <dc:date>2024-05-26T18:51:52.241313</dc:date>
    <dc:format>image/svg+xml</dc:format>
    <dc:creator>
     <cc:Agent>
      <dc:title>Matplotlib v3.8.0, https://matplotlib.org/</dc:title>
     </cc:Agent>
    </dc:creator>
   </cc:Work>
  </rdf:RDF>
 </metadata>
 <defs>
  <style type="text/css">*{stroke-linejoin: round; stroke-linecap: butt}</style>
 </defs>
 <g id="figure_1">
  <g id="patch_1">
   <path d="M 0 882.24 
L 1440 882.24 
L 1440 0 
L 0 0 
z
" style="fill: #ffffff"/>
  </g>
  <g id="axes_1">
   <g id="patch_2">
    <path d="M 74.283333 817.971267 
L 1422 817.971267 
L 1422 41.1712 
L 74.283333 41.1712 
z
" style="fill: #ffffff"/>
   </g>
   <g id="line2d_1">
    <path d="M 145.425381 817.971267 
L 145.425381 41.1712 
" clip-path="url(#p1a713960ea)" style="fill: none; stroke: #f6f6f6; stroke-width: 40; stroke-linecap: square"/>
   </g>
   <g id="line2d_2">
    <path d="M 231.527707 817.971267 
L 231.527707 41.1712 
" clip-path="url(#p1a713960ea)" style="fill: none; stroke: #f6f6f6; stroke-width: 40; stroke-linecap: square"/>
   </g>
   <g id="line2d_3">
    <path d="M 317.630034 817.971267 
L 317.630034 41.1712 
" clip-path="url(#p1a713960ea)" style="fill: none; stroke: #f6f6f6; stroke-width: 40; stroke-linecap: square"/>
   </g>
   <g id="line2d_4">
    <path d="M 403.73236 817.971267 
L 403.73236 41.1712 
" clip-path="url(#p1a713960ea)" style="fill: none; stroke: #f6f6f6; stroke-width: 40; stroke-linecap: square"/>
   </g>
   <g id="line2d_5">
    <path d="M 489.834687 817.971267 
L 489.834687 41.1712 
" clip-path="url(#p1a713960ea)" style="fill: none; stroke: #f6f6f6; stroke-width: 40; stroke-linecap: square"/>
   </g>
   <g id="line2d_6">
    <path d="M 575.937014 817.971267 
L 575.937014 41.1712 
" clip-path="url(#p1a713960ea)" style="fill: none; stroke: #f6f6f6; stroke-width: 40; stroke-linecap: square"/>
   </g>
   <g id="line2d_7">
    <path d="M 662.03934 817.971267 
L 662.03934 41.1712 
" clip-path="url(#p1a713960ea)" style="fill: none; stroke: #f6f6f6; stroke-width: 40; stroke-linecap: square"/>
   </g>
   <g id="line2d_8">
    <path d="M 748.141667 817.971267 
L 748.141667 41.1712 
" clip-path="url(#p1a713960ea)" style="fill: none; stroke: #f6f6f6; stroke-width: 40; stroke-linecap: square"/>
   </g>
   <g id="line2d_9">
    <path d="M 834.243993 817.971267 
L 834.243993 41.1712 
" clip-path="url(#p1a713960ea)" style="fill: none; stroke: #f6f6f6; stroke-width: 40; stroke-linecap: square"/>
   </g>
   <g id="line2d_10">
    <path d="M 920.34632 817.971267 
L 920.34632 41.1712 
" clip-path="url(#p1a713960ea)" style="fill: none; stroke: #f6f6f6; stroke-width: 40; stroke-linecap: square"/>
   </g>
   <g id="line2d_11">
    <path d="M 1006.448646 817.971267 
L 1006.448646 41.1712 
" clip-path="url(#p1a713960ea)" style="fill: none; stroke: #f6f6f6; stroke-width: 40; stroke-linecap: square"/>
   </g>
   <g id="line2d_12">
    <path d="M 1092.550973 817.971267 
L 1092.550973 41.1712 
" clip-path="url(#p1a713960ea)" style="fill: none; stroke: #f6f6f6; stroke-width: 40; stroke-linecap: square"/>
   </g>
   <g id="line2d_13">
    <path d="M 1178.6533 817.971267 
L 1178.6533 41.1712 
" clip-path="url(#p1a713960ea)" style="fill: none; stroke: #f6f6f6; stroke-width: 40; stroke-linecap: square"/>
   </g>
   <g id="line2d_14">
    <path d="M 1264.755626 817.971267 
L 1264.755626 41.1712 
" clip-path="url(#p1a713960ea)" style="fill: none; stroke: #f6f6f6; stroke-width: 40; stroke-linecap: square"/>
   </g>
   <g id="line2d_15">
    <path d="M 1350.857953 817.971267 
L 1350.857953 41.1712 
" clip-path="url(#p1a713960ea)" style="fill: none; stroke: #f6f6f6; stroke-width: 40; stroke-linecap: square"/>
   </g>
   <g id="matplotlib.axis_1">
    <g id="xtick_1">
     <g id="line2d_16">
      <defs>
       <path id="m25d1d24d7a" d="M 0 0 
L 0 3.5 
" style="stroke: #000000; stroke-width: 0.8"/>
      </defs>
      <g>
       <use xlink:href="#m25d1d24d7a" x="102.374217" y="817.971267" style="stroke: #000000; stroke-width: 0.8"/>
      </g>
     </g>
     <g id="text_1">
      <!-- 1lb -->
      <g transform="translate(94.629686 832.569704) scale(0.1 -0.1)">
       <defs>
        <path id="DejaVuSans-31" d="M 794 531 
L 1825 531 
L 1825 4091 
L 703 3866 
L 703 4441 
L 1819 4666 
L 2450 4666 
L 2450 531 
L 3481 531 
L 3481 0 
L 794 0 
L 794 531 
z
" transform="scale(0.015625)"/>
        <path id="DejaVuSans-6c" d="M 603 4863 
L 1178 4863 
L 1178 0 
L 603 0 
L 603 4863 
z
" transform="scale(0.015625)"/>
        <path id="DejaVuSans-62" d="M 3116 1747 
Q 3116 2381 2855 2742 
Q 2594 3103 2138 3103 
Q 1681 3103 1420 2742 
Q 1159 2381 1159 1747 
Q 1159 1113 1420 752 
Q 1681 391 2138 391 
Q 2594 391 2855 752 
Q 3116 1113 3116 1747 
z
M 1159 2969 
Q 1341 3281 1617 3432 
Q 1894 3584 2278 3584 
Q 2916 3584 3314 3078 
Q 3713 2572 3713 1747 
Q 3713 922 3314 415 
Q 2916 -91 2278 -91 
Q 1894 -91 1617 61 
Q 1341 213 1159 525 
L 1159 0 
L 581 0 
L 581 4863 
L 1159 4863 
L 1159 2969 
z
" transform="scale(0.015625)"/>
       </defs>
       <use xlink:href="#DejaVuSans-31"/>
       <use xlink:href="#DejaVuSans-6c" x="63.623047"/>
       <use xlink:href="#DejaVuSans-62" x="91.40625"/>
      </g>
     </g>
    </g>
    <g id="xtick_2">
     <g id="line2d_17">
      <g>
       <use xlink:href="#m25d1d24d7a" x="145.425381" y="817.971267" style="stroke: #000000; stroke-width: 0.8"/>
      </g>
     </g>
     <g id="text_2">
      <!-- 1lo -->
      <g transform="translate(137.795693 832.569704) scale(0.1 -0.1)">
       <defs>
        <path id="DejaVuSans-6f" d="M 1959 3097 
Q 1497 3097 1228 2736 
Q 959 2375 959 1747 
Q 959 1119 1226 758 
Q 1494 397 1959 397 
Q 2419 397 2687 759 
Q 2956 1122 2956 1747 
Q 2956 2369 2687 2733 
Q 2419 3097 1959 3097 
z
M 1959 3584 
Q 2709 3584 3137 3096 
Q 3566 2609 3566 1747 
Q 3566 888 3137 398 
Q 2709 -91 1959 -91 
Q 1206 -91 779 398 
Q 353 888 353 1747 
Q 353 2609 779 3096 
Q 1206 3584 1959 3584 
z
" transform="scale(0.015625)"/>
       </defs>
       <use xlink:href="#DejaVuSans-31"/>
       <use xlink:href="#DejaVuSans-6c" x="63.623047"/>
       <use xlink:href="#DejaVuSans-6f" x="91.40625"/>
      </g>
     </g>
    </g>
    <g id="xtick_3">
     <g id="line2d_18">
      <g>
       <use xlink:href="#m25d1d24d7a" x="188.476544" y="817.971267" style="stroke: #000000; stroke-width: 0.8"/>
      </g>
     </g>
     <g id="text_3">
      <!-- 1rb -->
      <g transform="translate(180.065606 832.569704) scale(0.1 -0.1)">
       <defs>
        <path id="DejaVuSans-72" d="M 2631 2963 
Q 2534 3019 2420 3045 
Q 2306 3072 2169 3072 
Q 1681 3072 1420 2755 
Q 1159 2438 1159 1844 
L 1159 0 
L 581 0 
L 581 3500 
L 1159 3500 
L 1159 2956 
Q 1341 3275 1631 3429 
Q 1922 3584 2338 3584 
Q 2397 3584 2469 3576 
Q 2541 3569 2628 3553 
L 2631 2963 
z
" transform="scale(0.015625)"/>
       </defs>
       <use xlink:href="#DejaVuSans-31"/>
       <use xlink:href="#DejaVuSans-72" x="63.623047"/>
       <use xlink:href="#DejaVuSans-62" x="104.736328"/>
      </g>
     </g>
    </g>
    <g id="xtick_4">
     <g id="line2d_19">
      <g>
       <use xlink:href="#m25d1d24d7a" x="231.527707" y="817.971267" style="stroke: #000000; stroke-width: 0.8"/>
      </g>
     </g>
     <g id="text_4">
      <!-- 1ro -->
      <g transform="translate(223.344113 832.569704) scale(0.1 -0.1)">
       <use xlink:href="#DejaVuSans-31"/>
       <use xlink:href="#DejaVuSans-72" x="63.623047"/>
       <use xlink:href="#DejaVuSans-6f" x="102.486328"/>
      </g>
     </g>
    </g>
    <g id="xtick_5">
     <g id="line2d_20">
      <g>
       <use xlink:href="#m25d1d24d7a" x="274.578871" y="817.971267" style="stroke: #000000; stroke-width: 0.8"/>
      </g>
     </g>
     <g id="text_5">
      <!-- 2lb -->
      <g transform="translate(266.834339 832.569704) scale(0.1 -0.1)">
       <defs>
        <path id="DejaVuSans-32" d="M 1228 531 
L 3431 531 
L 3431 0 
L 469 0 
L 469 531 
Q 828 903 1448 1529 
Q 2069 2156 2228 2338 
Q 2531 2678 2651 2914 
Q 2772 3150 2772 3378 
Q 2772 3750 2511 3984 
Q 2250 4219 1831 4219 
Q 1534 4219 1204 4116 
Q 875 4013 500 3803 
L 500 4441 
Q 881 4594 1212 4672 
Q 1544 4750 1819 4750 
Q 2544 4750 2975 4387 
Q 3406 4025 3406 3419 
Q 3406 3131 3298 2873 
Q 3191 2616 2906 2266 
Q 2828 2175 2409 1742 
Q 1991 1309 1228 531 
z
" transform="scale(0.015625)"/>
       </defs>
       <use xlink:href="#DejaVuSans-32"/>
       <use xlink:href="#DejaVuSans-6c" x="63.623047"/>
       <use xlink:href="#DejaVuSans-62" x="91.40625"/>
      </g>
     </g>
    </g>
    <g id="xtick_6">
     <g id="line2d_21">
      <g>
       <use xlink:href="#m25d1d24d7a" x="317.630034" y="817.971267" style="stroke: #000000; stroke-width: 0.8"/>
      </g>
     </g>
     <g id="text_6">
      <!-- 2lo -->
      <g transform="translate(310.000346 832.569704) scale(0.1 -0.1)">
       <use xlink:href="#DejaVuSans-32"/>
       <use xlink:href="#DejaVuSans-6c" x="63.623047"/>
       <use xlink:href="#DejaVuSans-6f" x="91.40625"/>
      </g>
     </g>
    </g>
    <g id="xtick_7">
     <g id="line2d_22">
      <g>
       <use xlink:href="#m25d1d24d7a" x="360.681197" y="817.971267" style="stroke: #000000; stroke-width: 0.8"/>
      </g>
     </g>
     <g id="text_7">
      <!-- 2rb -->
      <g transform="translate(352.27026 832.569704) scale(0.1 -0.1)">
       <use xlink:href="#DejaVuSans-32"/>
       <use xlink:href="#DejaVuSans-72" x="63.623047"/>
       <use xlink:href="#DejaVuSans-62" x="104.736328"/>
      </g>
     </g>
    </g>
    <g id="xtick_8">
     <g id="line2d_23">
      <g>
       <use xlink:href="#m25d1d24d7a" x="403.73236" y="817.971267" style="stroke: #000000; stroke-width: 0.8"/>
      </g>
     </g>
     <g id="text_8">
      <!-- 2ro -->
      <g transform="translate(395.548767 832.569704) scale(0.1 -0.1)">
       <use xlink:href="#DejaVuSans-32"/>
       <use xlink:href="#DejaVuSans-72" x="63.623047"/>
       <use xlink:href="#DejaVuSans-6f" x="102.486328"/>
      </g>
     </g>
    </g>
    <g id="xtick_9">
     <g id="line2d_24">
      <g>
       <use xlink:href="#m25d1d24d7a" x="446.783524" y="817.971267" style="stroke: #000000; stroke-width: 0.8"/>
      </g>
     </g>
     <g id="text_9">
      <!-- 3lb -->
      <g transform="translate(439.038992 832.569704) scale(0.1 -0.1)">
       <defs>
        <path id="DejaVuSans-33" d="M 2597 2516 
Q 3050 2419 3304 2112 
Q 3559 1806 3559 1356 
Q 3559 666 3084 287 
Q 2609 -91 1734 -91 
Q 1441 -91 1130 -33 
Q 819 25 488 141 
L 488 750 
Q 750 597 1062 519 
Q 1375 441 1716 441 
Q 2309 441 2620 675 
Q 2931 909 2931 1356 
Q 2931 1769 2642 2001 
Q 2353 2234 1838 2234 
L 1294 2234 
L 1294 2753 
L 1863 2753 
Q 2328 2753 2575 2939 
Q 2822 3125 2822 3475 
Q 2822 3834 2567 4026 
Q 2313 4219 1838 4219 
Q 1578 4219 1281 4162 
Q 984 4106 628 3988 
L 628 4550 
Q 988 4650 1302 4700 
Q 1616 4750 1894 4750 
Q 2613 4750 3031 4423 
Q 3450 4097 3450 3541 
Q 3450 3153 3228 2886 
Q 3006 2619 2597 2516 
z
" transform="scale(0.015625)"/>
       </defs>
       <use xlink:href="#DejaVuSans-33"/>
       <use xlink:href="#DejaVuSans-6c" x="63.623047"/>
       <use xlink:href="#DejaVuSans-62" x="91.40625"/>
      </g>
     </g>
    </g>
    <g id="xtick_10">
     <g id="line2d_25">
      <g>
       <use xlink:href="#m25d1d24d7a" x="489.834687" y="817.971267" style="stroke: #000000; stroke-width: 0.8"/>
      </g>
     </g>
     <g id="text_10">
      <!-- 3lo -->
      <g transform="translate(482.204999 832.569704) scale(0.1 -0.1)">
       <use xlink:href="#DejaVuSans-33"/>
       <use xlink:href="#DejaVuSans-6c" x="63.623047"/>
       <use xlink:href="#DejaVuSans-6f" x="91.40625"/>
      </g>
     </g>
    </g>
    <g id="xtick_11">
     <g id="line2d_26">
      <g>
       <use xlink:href="#m25d1d24d7a" x="532.88585" y="817.971267" style="stroke: #000000; stroke-width: 0.8"/>
      </g>
     </g>
     <g id="text_11">
      <!-- 3rb -->
      <g transform="translate(524.474913 832.569704) scale(0.1 -0.1)">
       <use xlink:href="#DejaVuSans-33"/>
       <use xlink:href="#DejaVuSans-72" x="63.623047"/>
       <use xlink:href="#DejaVuSans-62" x="104.736328"/>
      </g>
     </g>
    </g>
    <g id="xtick_12">
     <g id="line2d_27">
      <g>
       <use xlink:href="#m25d1d24d7a" x="575.937014" y="817.971267" style="stroke: #000000; stroke-width: 0.8"/>
      </g>
     </g>
     <g id="text_12">
      <!-- 3ro -->
      <g transform="translate(567.75342 832.569704) scale(0.1 -0.1)">
       <use xlink:href="#DejaVuSans-33"/>
       <use xlink:href="#DejaVuSans-72" x="63.623047"/>
       <use xlink:href="#DejaVuSans-6f" x="102.486328"/>
      </g>
     </g>
    </g>
    <g id="xtick_13">
     <g id="line2d_28">
      <g>
       <use xlink:href="#m25d1d24d7a" x="618.988177" y="817.971267" style="stroke: #000000; stroke-width: 0.8"/>
      </g>
     </g>
     <g id="text_13">
      <!-- 4lb -->
      <g transform="translate(611.243646 832.569704) scale(0.1 -0.1)">
       <defs>
        <path id="DejaVuSans-34" d="M 2419 4116 
L 825 1625 
L 2419 1625 
L 2419 4116 
z
M 2253 4666 
L 3047 4666 
L 3047 1625 
L 3713 1625 
L 3713 1100 
L 3047 1100 
L 3047 0 
L 2419 0 
L 2419 1100 
L 313 1100 
L 313 1709 
L 2253 4666 
z
" transform="scale(0.015625)"/>
       </defs>
       <use xlink:href="#DejaVuSans-34"/>
       <use xlink:href="#DejaVuSans-6c" x="63.623047"/>
       <use xlink:href="#DejaVuSans-62" x="91.40625"/>
      </g>
     </g>
    </g>
    <g id="xtick_14">
     <g id="line2d_29">
      <g>
       <use xlink:href="#m25d1d24d7a" x="662.03934" y="817.971267" style="stroke: #000000; stroke-width: 0.8"/>
      </g>
     </g>
     <g id="text_14">
      <!-- 4lo -->
      <g transform="translate(654.409653 832.569704) scale(0.1 -0.1)">
       <use xlink:href="#DejaVuSans-34"/>
       <use xlink:href="#DejaVuSans-6c" x="63.623047"/>
       <use xlink:href="#DejaVuSans-6f" x="91.40625"/>
      </g>
     </g>
    </g>
    <g id="xtick_15">
     <g id="line2d_30">
      <g>
       <use xlink:href="#m25d1d24d7a" x="705.090503" y="817.971267" style="stroke: #000000; stroke-width: 0.8"/>
      </g>
     </g>
     <g id="text_15">
      <!-- 4rb -->
      <g transform="translate(696.679566 832.569704) scale(0.1 -0.1)">
       <use xlink:href="#DejaVuSans-34"/>
       <use xlink:href="#DejaVuSans-72" x="63.623047"/>
       <use xlink:href="#DejaVuSans-62" x="104.736328"/>
      </g>
     </g>
    </g>
    <g id="xtick_16">
     <g id="line2d_31">
      <g>
       <use xlink:href="#m25d1d24d7a" x="748.141667" y="817.971267" style="stroke: #000000; stroke-width: 0.8"/>
      </g>
     </g>
     <g id="text_16">
      <!-- 4ro -->
      <g transform="translate(739.958073 832.569704) scale(0.1 -0.1)">
       <use xlink:href="#DejaVuSans-34"/>
       <use xlink:href="#DejaVuSans-72" x="63.623047"/>
       <use xlink:href="#DejaVuSans-6f" x="102.486328"/>
      </g>
     </g>
    </g>
    <g id="xtick_17">
     <g id="line2d_32">
      <g>
       <use xlink:href="#m25d1d24d7a" x="791.19283" y="817.971267" style="stroke: #000000; stroke-width: 0.8"/>
      </g>
     </g>
     <g id="text_17">
      <!-- 5lb -->
      <g transform="translate(783.448299 832.569704) scale(0.1 -0.1)">
       <defs>
        <path id="DejaVuSans-35" d="M 691 4666 
L 3169 4666 
L 3169 4134 
L 1269 4134 
L 1269 2991 
Q 1406 3038 1543 3061 
Q 1681 3084 1819 3084 
Q 2600 3084 3056 2656 
Q 3513 2228 3513 1497 
Q 3513 744 3044 326 
Q 2575 -91 1722 -91 
Q 1428 -91 1123 -41 
Q 819 9 494 109 
L 494 744 
Q 775 591 1075 516 
Q 1375 441 1709 441 
Q 2250 441 2565 725 
Q 2881 1009 2881 1497 
Q 2881 1984 2565 2268 
Q 2250 2553 1709 2553 
Q 1456 2553 1204 2497 
Q 953 2441 691 2322 
L 691 4666 
z
" transform="scale(0.015625)"/>
       </defs>
       <use xlink:href="#DejaVuSans-35"/>
       <use xlink:href="#DejaVuSans-6c" x="63.623047"/>
       <use xlink:href="#DejaVuSans-62" x="91.40625"/>
      </g>
     </g>
    </g>
    <g id="xtick_18">
     <g id="line2d_33">
      <g>
       <use xlink:href="#m25d1d24d7a" x="834.243993" y="817.971267" style="stroke: #000000; stroke-width: 0.8"/>
      </g>
     </g>
     <g id="text_18">
      <!-- 5lo -->
      <g transform="translate(826.614306 832.569704) scale(0.1 -0.1)">
       <use xlink:href="#DejaVuSans-35"/>
       <use xlink:href="#DejaVuSans-6c" x="63.623047"/>
       <use xlink:href="#DejaVuSans-6f" x="91.40625"/>
      </g>
     </g>
    </g>
    <g id="xtick_19">
     <g id="line2d_34">
      <g>
       <use xlink:href="#m25d1d24d7a" x="877.295157" y="817.971267" style="stroke: #000000; stroke-width: 0.8"/>
      </g>
     </g>
     <g id="text_19">
      <!-- 5rb -->
      <g transform="translate(868.884219 832.569704) scale(0.1 -0.1)">
       <use xlink:href="#DejaVuSans-35"/>
       <use xlink:href="#DejaVuSans-72" x="63.623047"/>
       <use xlink:href="#DejaVuSans-62" x="104.736328"/>
      </g>
     </g>
    </g>
    <g id="xtick_20">
     <g id="line2d_35">
      <g>
       <use xlink:href="#m25d1d24d7a" x="920.34632" y="817.971267" style="stroke: #000000; stroke-width: 0.8"/>
      </g>
     </g>
     <g id="text_20">
      <!-- 5ro -->
      <g transform="translate(912.162726 832.569704) scale(0.1 -0.1)">
       <use xlink:href="#DejaVuSans-35"/>
       <use xlink:href="#DejaVuSans-72" x="63.623047"/>
       <use xlink:href="#DejaVuSans-6f" x="102.486328"/>
      </g>
     </g>
    </g>
    <g id="xtick_21">
     <g id="line2d_36">
      <g>
       <use xlink:href="#m25d1d24d7a" x="963.397483" y="817.971267" style="stroke: #000000; stroke-width: 0.8"/>
      </g>
     </g>
     <g id="text_21">
      <!-- 6lb -->
      <g transform="translate(955.652952 832.569704) scale(0.1 -0.1)">
       <defs>
        <path id="DejaVuSans-36" d="M 2113 2584 
Q 1688 2584 1439 2293 
Q 1191 2003 1191 1497 
Q 1191 994 1439 701 
Q 1688 409 2113 409 
Q 2538 409 2786 701 
Q 3034 994 3034 1497 
Q 3034 2003 2786 2293 
Q 2538 2584 2113 2584 
z
M 3366 4563 
L 3366 3988 
Q 3128 4100 2886 4159 
Q 2644 4219 2406 4219 
Q 1781 4219 1451 3797 
Q 1122 3375 1075 2522 
Q 1259 2794 1537 2939 
Q 1816 3084 2150 3084 
Q 2853 3084 3261 2657 
Q 3669 2231 3669 1497 
Q 3669 778 3244 343 
Q 2819 -91 2113 -91 
Q 1303 -91 875 529 
Q 447 1150 447 2328 
Q 447 3434 972 4092 
Q 1497 4750 2381 4750 
Q 2619 4750 2861 4703 
Q 3103 4656 3366 4563 
z
" transform="scale(0.015625)"/>
       </defs>
       <use xlink:href="#DejaVuSans-36"/>
       <use xlink:href="#DejaVuSans-6c" x="63.623047"/>
       <use xlink:href="#DejaVuSans-62" x="91.40625"/>
      </g>
     </g>
    </g>
    <g id="xtick_22">
     <g id="line2d_37">
      <g>
       <use xlink:href="#m25d1d24d7a" x="1006.448646" y="817.971267" style="stroke: #000000; stroke-width: 0.8"/>
      </g>
     </g>
     <g id="text_22">
      <!-- 6lo -->
      <g transform="translate(998.818959 832.569704) scale(0.1 -0.1)">
       <use xlink:href="#DejaVuSans-36"/>
       <use xlink:href="#DejaVuSans-6c" x="63.623047"/>
       <use xlink:href="#DejaVuSans-6f" x="91.40625"/>
      </g>
     </g>
    </g>
    <g id="xtick_23">
     <g id="line2d_38">
      <g>
       <use xlink:href="#m25d1d24d7a" x="1049.49981" y="817.971267" style="stroke: #000000; stroke-width: 0.8"/>
      </g>
     </g>
     <g id="text_23">
      <!-- 6rb -->
      <g transform="translate(1041.088872 832.569704) scale(0.1 -0.1)">
       <use xlink:href="#DejaVuSans-36"/>
       <use xlink:href="#DejaVuSans-72" x="63.623047"/>
       <use xlink:href="#DejaVuSans-62" x="104.736328"/>
      </g>
     </g>
    </g>
    <g id="xtick_24">
     <g id="line2d_39">
      <g>
       <use xlink:href="#m25d1d24d7a" x="1092.550973" y="817.971267" style="stroke: #000000; stroke-width: 0.8"/>
      </g>
     </g>
     <g id="text_24">
      <!-- 6ro -->
      <g transform="translate(1084.367379 832.569704) scale(0.1 -0.1)">
       <use xlink:href="#DejaVuSans-36"/>
       <use xlink:href="#DejaVuSans-72" x="63.623047"/>
       <use xlink:href="#DejaVuSans-6f" x="102.486328"/>
      </g>
     </g>
    </g>
    <g id="xtick_25">
     <g id="line2d_40">
      <g>
       <use xlink:href="#m25d1d24d7a" x="1135.602136" y="817.971267" style="stroke: #000000; stroke-width: 0.8"/>
      </g>
     </g>
     <g id="text_25">
      <!-- 7lb -->
      <g transform="translate(1127.857605 832.569704) scale(0.1 -0.1)">
       <defs>
        <path id="DejaVuSans-37" d="M 525 4666 
L 3525 4666 
L 3525 4397 
L 1831 0 
L 1172 0 
L 2766 4134 
L 525 4134 
L 525 4666 
z
" transform="scale(0.015625)"/>
       </defs>
       <use xlink:href="#DejaVuSans-37"/>
       <use xlink:href="#DejaVuSans-6c" x="63.623047"/>
       <use xlink:href="#DejaVuSans-62" x="91.40625"/>
      </g>
     </g>
    </g>
    <g id="xtick_26">
     <g id="line2d_41">
      <g>
       <use xlink:href="#m25d1d24d7a" x="1178.6533" y="817.971267" style="stroke: #000000; stroke-width: 0.8"/>
      </g>
     </g>
     <g id="text_26">
      <!-- 7lo -->
      <g transform="translate(1171.023612 832.569704) scale(0.1 -0.1)">
       <use xlink:href="#DejaVuSans-37"/>
       <use xlink:href="#DejaVuSans-6c" x="63.623047"/>
       <use xlink:href="#DejaVuSans-6f" x="91.40625"/>
      </g>
     </g>
    </g>
    <g id="xtick_27">
     <g id="line2d_42">
      <g>
       <use xlink:href="#m25d1d24d7a" x="1221.704463" y="817.971267" style="stroke: #000000; stroke-width: 0.8"/>
      </g>
     </g>
     <g id="text_27">
      <!-- 7rb -->
      <g transform="translate(1213.293525 832.569704) scale(0.1 -0.1)">
       <use xlink:href="#DejaVuSans-37"/>
       <use xlink:href="#DejaVuSans-72" x="63.623047"/>
       <use xlink:href="#DejaVuSans-62" x="104.736328"/>
      </g>
     </g>
    </g>
    <g id="xtick_28">
     <g id="line2d_43">
      <g>
       <use xlink:href="#m25d1d24d7a" x="1264.755626" y="817.971267" style="stroke: #000000; stroke-width: 0.8"/>
      </g>
     </g>
     <g id="text_28">
      <!-- 7ro -->
      <g transform="translate(1256.572032 832.569704) scale(0.1 -0.1)">
       <use xlink:href="#DejaVuSans-37"/>
       <use xlink:href="#DejaVuSans-72" x="63.623047"/>
       <use xlink:href="#DejaVuSans-6f" x="102.486328"/>
      </g>
     </g>
    </g>
    <g id="xtick_29">
     <g id="line2d_44">
      <g>
       <use xlink:href="#m25d1d24d7a" x="1307.806789" y="817.971267" style="stroke: #000000; stroke-width: 0.8"/>
      </g>
     </g>
     <g id="text_29">
      <!-- bc -->
      <g transform="translate(1301.883352 832.569704) scale(0.1 -0.1)">
       <defs>
        <path id="DejaVuSans-63" d="M 3122 3366 
L 3122 2828 
Q 2878 2963 2633 3030 
Q 2388 3097 2138 3097 
Q 1578 3097 1268 2742 
Q 959 2388 959 1747 
Q 959 1106 1268 751 
Q 1578 397 2138 397 
Q 2388 397 2633 464 
Q 2878 531 3122 666 
L 3122 134 
Q 2881 22 2623 -34 
Q 2366 -91 2075 -91 
Q 1284 -91 818 406 
Q 353 903 353 1747 
Q 353 2603 823 3093 
Q 1294 3584 2113 3584 
Q 2378 3584 2631 3529 
Q 2884 3475 3122 3366 
z
" transform="scale(0.015625)"/>
       </defs>
       <use xlink:href="#DejaVuSans-62"/>
       <use xlink:href="#DejaVuSans-63" x="63.476562"/>
      </g>
     </g>
    </g>
    <g id="xtick_30">
     <g id="line2d_45">
      <g>
       <use xlink:href="#m25d1d24d7a" x="1350.857953" y="817.971267" style="stroke: #000000; stroke-width: 0.8"/>
      </g>
     </g>
     <g id="text_30">
      <!-- ref -->
      <g transform="translate(1344.078265 832.569704) scale(0.1 -0.1)">
       <defs>
        <path id="DejaVuSans-65" d="M 3597 1894 
L 3597 1613 
L 953 1613 
Q 991 1019 1311 708 
Q 1631 397 2203 397 
Q 2534 397 2845 478 
Q 3156 559 3463 722 
L 3463 178 
Q 3153 47 2828 -22 
Q 2503 -91 2169 -91 
Q 1331 -91 842 396 
Q 353 884 353 1716 
Q 353 2575 817 3079 
Q 1281 3584 2069 3584 
Q 2775 3584 3186 3129 
Q 3597 2675 3597 1894 
z
M 3022 2063 
Q 3016 2534 2758 2815 
Q 2500 3097 2075 3097 
Q 1594 3097 1305 2825 
Q 1016 2553 972 2059 
L 3022 2063 
z
" transform="scale(0.015625)"/>
        <path id="DejaVuSans-66" d="M 2375 4863 
L 2375 4384 
L 1825 4384 
Q 1516 4384 1395 4259 
Q 1275 4134 1275 3809 
L 1275 3500 
L 2222 3500 
L 2222 3053 
L 1275 3053 
L 1275 0 
L 697 0 
L 697 3053 
L 147 3053 
L 147 3500 
L 697 3500 
L 697 3744 
Q 697 4328 969 4595 
Q 1241 4863 1831 4863 
L 2375 4863 
z
" transform="scale(0.015625)"/>
       </defs>
       <use xlink:href="#DejaVuSans-72"/>
       <use xlink:href="#DejaVuSans-65" x="38.863281"/>
       <use xlink:href="#DejaVuSans-66" x="100.386719"/>
      </g>
     </g>
    </g>
    <g id="xtick_31">
     <g id="line2d_46">
      <g>
       <use xlink:href="#m25d1d24d7a" x="1393.909116" y="817.971267" style="stroke: #000000; stroke-width: 0.8"/>
      </g>
     </g>
     <g id="text_31">
      <!-- rpva -->
      <g transform="translate(1382.655991 832.569704) scale(0.1 -0.1)">
       <defs>
        <path id="DejaVuSans-70" d="M 1159 525 
L 1159 -1331 
L 581 -1331 
L 581 3500 
L 1159 3500 
L 1159 2969 
Q 1341 3281 1617 3432 
Q 1894 3584 2278 3584 
Q 2916 3584 3314 3078 
Q 3713 2572 3713 1747 
Q 3713 922 3314 415 
Q 2916 -91 2278 -91 
Q 1894 -91 1617 61 
Q 1341 213 1159 525 
z
M 3116 1747 
Q 3116 2381 2855 2742 
Q 2594 3103 2138 3103 
Q 1681 3103 1420 2742 
Q 1159 2381 1159 1747 
Q 1159 1113 1420 752 
Q 1681 391 2138 391 
Q 2594 391 2855 752 
Q 3116 1113 3116 1747 
z
" transform="scale(0.015625)"/>
        <path id="DejaVuSans-76" d="M 191 3500 
L 800 3500 
L 1894 563 
L 2988 3500 
L 3597 3500 
L 2284 0 
L 1503 0 
L 191 3500 
z
" transform="scale(0.015625)"/>
        <path id="DejaVuSans-61" d="M 2194 1759 
Q 1497 1759 1228 1600 
Q 959 1441 959 1056 
Q 959 750 1161 570 
Q 1363 391 1709 391 
Q 2188 391 2477 730 
Q 2766 1069 2766 1631 
L 2766 1759 
L 2194 1759 
z
M 3341 1997 
L 3341 0 
L 2766 0 
L 2766 531 
Q 2569 213 2275 61 
Q 1981 -91 1556 -91 
Q 1019 -91 701 211 
Q 384 513 384 1019 
Q 384 1609 779 1909 
Q 1175 2209 1959 2209 
L 2766 2209 
L 2766 2266 
Q 2766 2663 2505 2880 
Q 2244 3097 1772 3097 
Q 1472 3097 1187 3025 
Q 903 2953 641 2809 
L 641 3341 
Q 956 3463 1253 3523 
Q 1550 3584 1831 3584 
Q 2591 3584 2966 3190 
Q 3341 2797 3341 1997 
z
" transform="scale(0.015625)"/>
       </defs>
       <use xlink:href="#DejaVuSans-72"/>
       <use xlink:href="#DejaVuSans-70" x="41.113281"/>
       <use xlink:href="#DejaVuSans-76" x="104.589844"/>
       <use xlink:href="#DejaVuSans-61" x="163.769531"/>
      </g>
     </g>
    </g>
    <g id="text_32">
     <!-- Mock-up -->
     <g transform="translate(726.976823 846.247829) scale(0.1 -0.1)">
      <defs>
       <path id="DejaVuSans-4d" d="M 628 4666 
L 1569 4666 
L 2759 1491 
L 3956 4666 
L 4897 4666 
L 4897 0 
L 4281 0 
L 4281 4097 
L 3078 897 
L 2444 897 
L 1241 4097 
L 1241 0 
L 628 0 
L 628 4666 
z
" transform="scale(0.015625)"/>
       <path id="DejaVuSans-6b" d="M 581 4863 
L 1159 4863 
L 1159 1991 
L 2875 3500 
L 3609 3500 
L 1753 1863 
L 3688 0 
L 2938 0 
L 1159 1709 
L 1159 0 
L 581 0 
L 581 4863 
z
" transform="scale(0.015625)"/>
       <path id="DejaVuSans-2d" d="M 313 2009 
L 1997 2009 
L 1997 1497 
L 313 1497 
L 313 2009 
z
" transform="scale(0.015625)"/>
       <path id="DejaVuSans-75" d="M 544 1381 
L 544 3500 
L 1119 3500 
L 1119 1403 
Q 1119 906 1312 657 
Q 1506 409 1894 409 
Q 2359 409 2629 706 
Q 2900 1003 2900 1516 
L 2900 3500 
L 3475 3500 
L 3475 0 
L 2900 0 
L 2900 538 
Q 2691 219 2414 64 
Q 2138 -91 1772 -91 
Q 1169 -91 856 284 
Q 544 659 544 1381 
z
M 1991 3584 
L 1991 3584 
z
" transform="scale(0.015625)"/>
      </defs>
      <use xlink:href="#DejaVuSans-4d"/>
      <use xlink:href="#DejaVuSans-6f" x="86.279297"/>
      <use xlink:href="#DejaVuSans-63" x="147.460938"/>
      <use xlink:href="#DejaVuSans-6b" x="202.441406"/>
      <use xlink:href="#DejaVuSans-2d" x="260.351562"/>
      <use xlink:href="#DejaVuSans-75" x="296.435547"/>
      <use xlink:href="#DejaVuSans-70" x="359.814453"/>
     </g>
    </g>
   </g>
   <g id="matplotlib.axis_2">
    <g id="ytick_1">
     <g id="line2d_47">
      <path d="M 74.283333 817.971267 
L 1422 817.971267 
" clip-path="url(#p1a713960ea)" style="fill: none; stroke-dasharray: 2.96,1.28; stroke-dashoffset: 0; stroke: #c5c5c4; stroke-opacity: 0.7; stroke-width: 0.8"/>
     </g>
     <g id="line2d_48">
      <defs>
       <path id="ma9d916d9f5" d="M 0 0 
L -3.5 0 
" style="stroke: #000000; stroke-width: 0.8"/>
      </defs>
      <g>
       <use xlink:href="#ma9d916d9f5" x="74.283333" y="817.971267" style="stroke: #000000; stroke-width: 0.8"/>
      </g>
     </g>
     <g id="text_33">
      <!-- 0 -->
      <g transform="translate(60.920833 821.770485) scale(0.1 -0.1)">
       <defs>
        <path id="DejaVuSans-30" d="M 2034 4250 
Q 1547 4250 1301 3770 
Q 1056 3291 1056 2328 
Q 1056 1369 1301 889 
Q 1547 409 2034 409 
Q 2525 409 2770 889 
Q 3016 1369 3016 2328 
Q 3016 3291 2770 3770 
Q 2525 4250 2034 4250 
z
M 2034 4750 
Q 2819 4750 3233 4129 
Q 3647 3509 3647 2328 
Q 3647 1150 3233 529 
Q 2819 -91 2034 -91 
Q 1250 -91 836 529 
Q 422 1150 422 2328 
Q 422 3509 836 4129 
Q 1250 4750 2034 4750 
z
" transform="scale(0.015625)"/>
       </defs>
       <use xlink:href="#DejaVuSans-30"/>
      </g>
     </g>
    </g>
    <g id="ytick_2">
     <g id="line2d_49">
      <path d="M 74.283333 653.080571 
L 1422 653.080571 
" clip-path="url(#p1a713960ea)" style="fill: none; stroke-dasharray: 2.96,1.28; stroke-dashoffset: 0; stroke: #c5c5c4; stroke-opacity: 0.7; stroke-width: 0.8"/>
     </g>
     <g id="line2d_50">
      <g>
       <use xlink:href="#ma9d916d9f5" x="74.283333" y="653.080571" style="stroke: #000000; stroke-width: 0.8"/>
      </g>
     </g>
     <g id="text_34">
      <!-- 20 -->
      <g transform="translate(54.558333 656.87979) scale(0.1 -0.1)">
       <use xlink:href="#DejaVuSans-32"/>
       <use xlink:href="#DejaVuSans-30" x="63.623047"/>
      </g>
     </g>
    </g>
    <g id="ytick_3">
     <g id="line2d_51">
      <path d="M 74.283333 488.189876 
L 1422 488.189876 
" clip-path="url(#p1a713960ea)" style="fill: none; stroke-dasharray: 2.96,1.28; stroke-dashoffset: 0; stroke: #c5c5c4; stroke-opacity: 0.7; stroke-width: 0.8"/>
     </g>
     <g id="line2d_52">
      <g>
       <use xlink:href="#ma9d916d9f5" x="74.283333" y="488.189876" style="stroke: #000000; stroke-width: 0.8"/>
      </g>
     </g>
     <g id="text_35">
      <!-- 40 -->
      <g transform="translate(54.558333 491.989094) scale(0.1 -0.1)">
       <use xlink:href="#DejaVuSans-34"/>
       <use xlink:href="#DejaVuSans-30" x="63.623047"/>
      </g>
     </g>
    </g>
    <g id="ytick_4">
     <g id="line2d_53">
      <path d="M 74.283333 323.29918 
L 1422 323.29918 
" clip-path="url(#p1a713960ea)" style="fill: none; stroke-dasharray: 2.96,1.28; stroke-dashoffset: 0; stroke: #c5c5c4; stroke-opacity: 0.7; stroke-width: 0.8"/>
     </g>
     <g id="line2d_54">
      <g>
       <use xlink:href="#ma9d916d9f5" x="74.283333" y="323.29918" style="stroke: #000000; stroke-width: 0.8"/>
      </g>
     </g>
     <g id="text_36">
      <!-- 60 -->
      <g transform="translate(54.558333 327.098399) scale(0.1 -0.1)">
       <use xlink:href="#DejaVuSans-36"/>
       <use xlink:href="#DejaVuSans-30" x="63.623047"/>
      </g>
     </g>
    </g>
    <g id="ytick_5">
     <g id="line2d_55">
      <path d="M 74.283333 158.408485 
L 1422 158.408485 
" clip-path="url(#p1a713960ea)" style="fill: none; stroke-dasharray: 2.96,1.28; stroke-dashoffset: 0; stroke: #c5c5c4; stroke-opacity: 0.7; stroke-width: 0.8"/>
     </g>
     <g id="line2d_56">
      <g>
       <use xlink:href="#ma9d916d9f5" x="74.283333" y="158.408485" style="stroke: #000000; stroke-width: 0.8"/>
      </g>
     </g>
     <g id="text_37">
      <!-- 80 -->
      <g transform="translate(54.558333 162.207703) scale(0.1 -0.1)">
       <defs>
        <path id="DejaVuSans-38" d="M 2034 2216 
Q 1584 2216 1326 1975 
Q 1069 1734 1069 1313 
Q 1069 891 1326 650 
Q 1584 409 2034 409 
Q 2484 409 2743 651 
Q 3003 894 3003 1313 
Q 3003 1734 2745 1975 
Q 2488 2216 2034 2216 
z
M 1403 2484 
Q 997 2584 770 2862 
Q 544 3141 544 3541 
Q 544 4100 942 4425 
Q 1341 4750 2034 4750 
Q 2731 4750 3128 4425 
Q 3525 4100 3525 3541 
Q 3525 3141 3298 2862 
Q 3072 2584 2669 2484 
Q 3125 2378 3379 2068 
Q 3634 1759 3634 1313 
Q 3634 634 3220 271 
Q 2806 -91 2034 -91 
Q 1263 -91 848 271 
Q 434 634 434 1313 
Q 434 1759 690 2068 
Q 947 2378 1403 2484 
z
M 1172 3481 
Q 1172 3119 1398 2916 
Q 1625 2713 2034 2713 
Q 2441 2713 2670 2916 
Q 2900 3119 2900 3481 
Q 2900 3844 2670 4047 
Q 2441 4250 2034 4250 
Q 1625 4250 1398 4047 
Q 1172 3844 1172 3481 
z
" transform="scale(0.015625)"/>
       </defs>
       <use xlink:href="#DejaVuSans-38"/>
       <use xlink:href="#DejaVuSans-30" x="63.623047"/>
      </g>
     </g>
    </g>
    <g id="text_38">
     <!-- Gemiddelde Waarde per Meting -->
     <g transform="translate(48.478646 508.974358) rotate(-90) scale(0.1 -0.1)">
      <defs>
       <path id="DejaVuSans-47" d="M 3809 666 
L 3809 1919 
L 2778 1919 
L 2778 2438 
L 4434 2438 
L 4434 434 
Q 4069 175 3628 42 
Q 3188 -91 2688 -91 
Q 1594 -91 976 548 
Q 359 1188 359 2328 
Q 359 3472 976 4111 
Q 1594 4750 2688 4750 
Q 3144 4750 3555 4637 
Q 3966 4525 4313 4306 
L 4313 3634 
Q 3963 3931 3569 4081 
Q 3175 4231 2741 4231 
Q 1884 4231 1454 3753 
Q 1025 3275 1025 2328 
Q 1025 1384 1454 906 
Q 1884 428 2741 428 
Q 3075 428 3337 486 
Q 3600 544 3809 666 
z
" transform="scale(0.015625)"/>
       <path id="DejaVuSans-6d" d="M 3328 2828 
Q 3544 3216 3844 3400 
Q 4144 3584 4550 3584 
Q 5097 3584 5394 3201 
Q 5691 2819 5691 2113 
L 5691 0 
L 5113 0 
L 5113 2094 
Q 5113 2597 4934 2840 
Q 4756 3084 4391 3084 
Q 3944 3084 3684 2787 
Q 3425 2491 3425 1978 
L 3425 0 
L 2847 0 
L 2847 2094 
Q 2847 2600 2669 2842 
Q 2491 3084 2119 3084 
Q 1678 3084 1418 2786 
Q 1159 2488 1159 1978 
L 1159 0 
L 581 0 
L 581 3500 
L 1159 3500 
L 1159 2956 
Q 1356 3278 1631 3431 
Q 1906 3584 2284 3584 
Q 2666 3584 2933 3390 
Q 3200 3197 3328 2828 
z
" transform="scale(0.015625)"/>
       <path id="DejaVuSans-69" d="M 603 3500 
L 1178 3500 
L 1178 0 
L 603 0 
L 603 3500 
z
M 603 4863 
L 1178 4863 
L 1178 4134 
L 603 4134 
L 603 4863 
z
" transform="scale(0.015625)"/>
       <path id="DejaVuSans-64" d="M 2906 2969 
L 2906 4863 
L 3481 4863 
L 3481 0 
L 2906 0 
L 2906 525 
Q 2725 213 2448 61 
Q 2172 -91 1784 -91 
Q 1150 -91 751 415 
Q 353 922 353 1747 
Q 353 2572 751 3078 
Q 1150 3584 1784 3584 
Q 2172 3584 2448 3432 
Q 2725 3281 2906 2969 
z
M 947 1747 
Q 947 1113 1208 752 
Q 1469 391 1925 391 
Q 2381 391 2643 752 
Q 2906 1113 2906 1747 
Q 2906 2381 2643 2742 
Q 2381 3103 1925 3103 
Q 1469 3103 1208 2742 
Q 947 2381 947 1747 
z
" transform="scale(0.015625)"/>
       <path id="DejaVuSans-20" transform="scale(0.015625)"/>
       <path id="DejaVuSans-57" d="M 213 4666 
L 850 4666 
L 1831 722 
L 2809 4666 
L 3519 4666 
L 4500 722 
L 5478 4666 
L 6119 4666 
L 4947 0 
L 4153 0 
L 3169 4050 
L 2175 0 
L 1381 0 
L 213 4666 
z
" transform="scale(0.015625)"/>
       <path id="DejaVuSans-74" d="M 1172 4494 
L 1172 3500 
L 2356 3500 
L 2356 3053 
L 1172 3053 
L 1172 1153 
Q 1172 725 1289 603 
Q 1406 481 1766 481 
L 2356 481 
L 2356 0 
L 1766 0 
Q 1100 0 847 248 
Q 594 497 594 1153 
L 594 3053 
L 172 3053 
L 172 3500 
L 594 3500 
L 594 4494 
L 1172 4494 
z
" transform="scale(0.015625)"/>
       <path id="DejaVuSans-6e" d="M 3513 2113 
L 3513 0 
L 2938 0 
L 2938 2094 
Q 2938 2591 2744 2837 
Q 2550 3084 2163 3084 
Q 1697 3084 1428 2787 
Q 1159 2491 1159 1978 
L 1159 0 
L 581 0 
L 581 3500 
L 1159 3500 
L 1159 2956 
Q 1366 3272 1645 3428 
Q 1925 3584 2291 3584 
Q 2894 3584 3203 3211 
Q 3513 2838 3513 2113 
z
" transform="scale(0.015625)"/>
       <path id="DejaVuSans-67" d="M 2906 1791 
Q 2906 2416 2648 2759 
Q 2391 3103 1925 3103 
Q 1463 3103 1205 2759 
Q 947 2416 947 1791 
Q 947 1169 1205 825 
Q 1463 481 1925 481 
Q 2391 481 2648 825 
Q 2906 1169 2906 1791 
z
M 3481 434 
Q 3481 -459 3084 -895 
Q 2688 -1331 1869 -1331 
Q 1566 -1331 1297 -1286 
Q 1028 -1241 775 -1147 
L 775 -588 
Q 1028 -725 1275 -790 
Q 1522 -856 1778 -856 
Q 2344 -856 2625 -561 
Q 2906 -266 2906 331 
L 2906 616 
Q 2728 306 2450 153 
Q 2172 0 1784 0 
Q 1141 0 747 490 
Q 353 981 353 1791 
Q 353 2603 747 3093 
Q 1141 3584 1784 3584 
Q 2172 3584 2450 3431 
Q 2728 3278 2906 2969 
L 2906 3500 
L 3481 3500 
L 3481 434 
z
" transform="scale(0.015625)"/>
      </defs>
      <use xlink:href="#DejaVuSans-47"/>
      <use xlink:href="#DejaVuSans-65" x="77.490234"/>
      <use xlink:href="#DejaVuSans-6d" x="139.013672"/>
      <use xlink:href="#DejaVuSans-69" x="236.425781"/>
      <use xlink:href="#DejaVuSans-64" x="264.208984"/>
      <use xlink:href="#DejaVuSans-64" x="327.685547"/>
      <use xlink:href="#DejaVuSans-65" x="391.162109"/>
      <use xlink:href="#DejaVuSans-6c" x="452.685547"/>
      <use xlink:href="#DejaVuSans-64" x="480.46875"/>
      <use xlink:href="#DejaVuSans-65" x="543.945312"/>
      <use xlink:href="#DejaVuSans-20" x="605.46875"/>
      <use xlink:href="#DejaVuSans-57" x="637.255859"/>
      <use xlink:href="#DejaVuSans-61" x="729.757812"/>
      <use xlink:href="#DejaVuSans-61" x="791.037109"/>
      <use xlink:href="#DejaVuSans-72" x="852.316406"/>
      <use xlink:href="#DejaVuSans-64" x="891.679688"/>
      <use xlink:href="#DejaVuSans-65" x="955.15625"/>
      <use xlink:href="#DejaVuSans-20" x="1016.679688"/>
      <use xlink:href="#DejaVuSans-70" x="1048.466797"/>
      <use xlink:href="#DejaVuSans-65" x="1111.943359"/>
      <use xlink:href="#DejaVuSans-72" x="1173.466797"/>
      <use xlink:href="#DejaVuSans-20" x="1214.580078"/>
      <use xlink:href="#DejaVuSans-4d" x="1246.367188"/>
      <use xlink:href="#DejaVuSans-65" x="1332.646484"/>
      <use xlink:href="#DejaVuSans-74" x="1394.169922"/>
      <use xlink:href="#DejaVuSans-69" x="1433.378906"/>
      <use xlink:href="#DejaVuSans-6e" x="1461.162109"/>
      <use xlink:href="#DejaVuSans-67" x="1524.541016"/>
     </g>
    </g>
   </g>
   <g id="patch_3">
    <path d="M 74.283333 817.971267 
L 74.283333 41.1712 
" style="fill: none; stroke: #000000; stroke-width: 0.8; stroke-linejoin: miter; stroke-linecap: square"/>
   </g>
   <g id="patch_4">
    <path d="M 1422 817.971267 
L 1422 41.1712 
" style="fill: none; stroke: #000000; stroke-width: 0.8; stroke-linejoin: miter; stroke-linecap: square"/>
   </g>
   <g id="patch_5">
    <path d="M 74.283333 817.971267 
L 1422 817.971267 
" style="fill: none; stroke: #000000; stroke-width: 0.8; stroke-linejoin: miter; stroke-linecap: square"/>
   </g>
   <g id="patch_6">
    <path d="M 74.283333 41.1712 
L 1422 41.1712 
" style="fill: none; stroke: #000000; stroke-width: 0.8; stroke-linejoin: miter; stroke-linecap: square"/>
   </g>
   <g id="patch_7">
    <path d="M 85.046124 817.971267 
L 90.822155 817.971267 
L 90.822155 811.375639 
L 85.046124 811.375639 
z
" clip-path="url(#p1a713960ea)" style="fill: #d6b863"/>
   </g>
   <g id="patch_8">
    <path d="M 128.097287 817.971267 
L 133.873319 817.971267 
L 133.873319 796.535476 
L 128.097287 796.535476 
z
" clip-path="url(#p1a713960ea)" style="fill: #d6b863"/>
   </g>
   <g id="patch_9">
    <path d="M 171.148451 817.971267 
L 176.924482 817.971267 
L 176.924482 813.848999 
L 171.148451 813.848999 
z
" clip-path="url(#p1a713960ea)" style="fill: #d6b863"/>
   </g>
   <g id="patch_10">
    <path d="M 214.199614 817.971267 
L 219.975645 817.971267 
L 219.975645 806.978554 
L 214.199614 806.978554 
z
" clip-path="url(#p1a713960ea)" style="fill: #d6b863"/>
   </g>
   <g id="patch_11">
    <path d="M 257.250777 817.971267 
L 263.026808 817.971267 
L 263.026808 762.732884 
L 257.250777 762.732884 
z
" clip-path="url(#p1a713960ea)" style="fill: #d6b863"/>
   </g>
   <g id="patch_12">
    <path d="M 300.301941 817.971267 
L 306.077972 817.971267 
L 306.077972 786.642035 
L 300.301941 786.642035 
z
" clip-path="url(#p1a713960ea)" style="fill: #d6b863"/>
   </g>
   <g id="patch_13">
    <path d="M 343.353104 817.971267 
L 349.129135 817.971267 
L 349.129135 794.062116 
L 343.353104 794.062116 
z
" clip-path="url(#p1a713960ea)" style="fill: #d6b863"/>
   </g>
   <g id="patch_14">
    <path d="M 386.404267 817.971267 
L 392.180298 817.971267 
L 392.180298 778.3975 
L 386.404267 778.3975 
z
" clip-path="url(#p1a713960ea)" style="fill: #d6b863"/>
   </g>
   <g id="patch_15">
    <path d="M 429.45543 817.971267 
L 435.231462 817.971267 
L 435.231462 816.32236 
L 429.45543 816.32236 
z
" clip-path="url(#p1a713960ea)" style="fill: #d6b863"/>
   </g>
   <g id="patch_16">
    <path d="M 472.506594 817.971267 
L 478.282625 817.971267 
L 478.282625 815.497906 
L 472.506594 815.497906 
z
" clip-path="url(#p1a713960ea)" style="fill: #d6b863"/>
   </g>
   <g id="patch_17">
    <path d="M 515.557757 817.971267 
L 521.333788 817.971267 
L 521.333788 815.223088 
L 515.557757 815.223088 
z
" clip-path="url(#p1a713960ea)" style="fill: #d6b863"/>
   </g>
   <g id="patch_18">
    <path d="M 558.60892 817.971267 
L 564.384951 817.971267 
L 564.384951 815.497906 
L 558.60892 815.497906 
z
" clip-path="url(#p1a713960ea)" style="fill: #d6b863"/>
   </g>
   <g id="patch_19">
    <path d="M 601.660084 817.971267 
L 607.436115 817.971267 
L 607.436115 814.123817 
L 601.660084 814.123817 
z
" clip-path="url(#p1a713960ea)" style="fill: #d6b863"/>
   </g>
   <g id="patch_20">
    <path d="M 644.711247 817.971267 
L 650.487278 817.971267 
L 650.487278 805.329647 
L 644.711247 805.329647 
z
" clip-path="url(#p1a713960ea)" style="fill: #d6b863"/>
   </g>
   <g id="patch_21">
    <path d="M 687.76241 817.971267 
L 693.538441 817.971267 
L 693.538441 808.902278 
L 687.76241 808.902278 
z
" clip-path="url(#p1a713960ea)" style="fill: #d6b863"/>
   </g>
   <g id="patch_22">
    <path d="M 730.813573 817.971267 
L 736.589605 817.971267 
L 736.589605 806.1541 
L 730.813573 806.1541 
z
" clip-path="url(#p1a713960ea)" style="fill: #d6b863"/>
   </g>
   <g id="patch_23">
    <path d="M 773.864737 817.971267 
L 779.640768 817.971267 
L 779.640768 804.505193 
L 773.864737 804.505193 
z
" clip-path="url(#p1a713960ea)" style="fill: #d6b863"/>
   </g>
   <g id="patch_24">
    <path d="M 816.9159 817.971267 
L 822.691931 817.971267 
L 822.691931 813.848999 
L 816.9159 813.848999 
z
" clip-path="url(#p1a713960ea)" style="fill: #d6b863"/>
   </g>
   <g id="patch_25">
    <path d="M 859.967063 817.971267 
L 865.743094 817.971267 
L 865.743094 797.634748 
L 859.967063 797.634748 
z
" clip-path="url(#p1a713960ea)" style="fill: #d6b863"/>
   </g>
   <g id="patch_26">
    <path d="M 903.018227 817.971267 
L 908.794258 817.971267 
L 908.794258 813.299364 
L 903.018227 813.299364 
z
" clip-path="url(#p1a713960ea)" style="fill: #d6b863"/>
   </g>
   <g id="patch_27">
    <path d="M 946.06939 817.971267 
L 951.845421 817.971267 
L 951.845421 774.275232 
L 946.06939 774.275232 
z
" clip-path="url(#p1a713960ea)" style="fill: #d6b863"/>
   </g>
   <g id="patch_28">
    <path d="M 989.120553 817.971267 
L 994.896584 817.971267 
L 994.896584 642.087858 
L 989.120553 642.087858 
z
" clip-path="url(#p1a713960ea)" style="fill: #d6b863"/>
   </g>
   <g id="patch_29">
    <path d="M 1032.171716 817.971267 
L 1037.947748 817.971267 
L 1037.947748 739.373368 
L 1032.171716 739.373368 
z
" clip-path="url(#p1a713960ea)" style="fill: #d6b863"/>
   </g>
   <g id="patch_30">
    <path d="M 1075.22288 817.971267 
L 1080.998911 817.971267 
L 1080.998911 766.030698 
L 1075.22288 766.030698 
z
" clip-path="url(#p1a713960ea)" style="fill: #d6b863"/>
   </g>
   <g id="patch_31">
    <path d="M 1118.274043 817.971267 
L 1124.050074 817.971267 
L 1124.050074 766.580333 
L 1118.274043 766.580333 
z
" clip-path="url(#p1a713960ea)" style="fill: #d6b863"/>
   </g>
   <g id="patch_32">
    <path d="M 1161.325206 817.971267 
L 1167.101237 817.971267 
L 1167.101237 781.145678 
L 1161.325206 781.145678 
z
" clip-path="url(#p1a713960ea)" style="fill: #d6b863"/>
   </g>
   <g id="patch_33">
    <path d="M 1204.37637 817.971267 
L 1210.152401 817.971267 
L 1210.152401 613.781622 
L 1204.37637 613.781622 
z
" clip-path="url(#p1a713960ea)" style="fill: #d6b863"/>
   </g>
   <g id="patch_34">
    <path d="M 1247.427533 817.971267 
L 1253.203564 817.971267 
L 1253.203564 799.008837 
L 1247.427533 799.008837 
z
" clip-path="url(#p1a713960ea)" style="fill: #d6b863"/>
   </g>
   <g id="patch_35">
    <path d="M 1290.478696 817.971267 
L 1296.254727 817.971267 
L 1296.254727 713.540493 
L 1290.478696 713.540493 
z
" clip-path="url(#p1a713960ea)" style="fill: #d6b863"/>
   </g>
   <g id="patch_36">
    <path d="M 1333.529859 817.971267 
L 1339.305891 817.971267 
L 1339.305891 485.991333 
L 1333.529859 485.991333 
z
" clip-path="url(#p1a713960ea)" style="fill: #d6b863"/>
   </g>
   <g id="patch_37">
    <path d="M 1376.581023 817.971267 
L 1382.357054 817.971267 
L 1382.357054 592.620649 
L 1376.581023 592.620649 
z
" clip-path="url(#p1a713960ea)" style="fill: #d6b863"/>
   </g>
   <g id="patch_38">
    <path d="M 90.822155 817.971267 
L 96.598186 817.971267 
L 96.598186 747.892721 
L 90.822155 747.892721 
z
" clip-path="url(#p1a713960ea)" style="fill: #cf4c48"/>
   </g>
   <g id="patch_39">
    <path d="M 133.873319 817.971267 
L 139.64935 817.971267 
L 139.64935 681.386807 
L 133.873319 681.386807 
z
" clip-path="url(#p1a713960ea)" style="fill: #cf4c48"/>
   </g>
   <g id="patch_40">
    <path d="M 176.924482 817.971267 
L 182.700513 817.971267 
L 182.700513 770.702601 
L 176.924482 770.702601 
z
" clip-path="url(#p1a713960ea)" style="fill: #cf4c48"/>
   </g>
   <g id="patch_41">
    <path d="M 219.975645 817.971267 
L 225.751676 817.971267 
L 225.751676 715.739035 
L 219.975645 715.739035 
z
" clip-path="url(#p1a713960ea)" style="fill: #cf4c48"/>
   </g>
   <g id="patch_42">
    <path d="M 263.026808 817.971267 
L 268.802839 817.971267 
L 268.802839 581.078301 
L 263.026808 581.078301 
z
" clip-path="url(#p1a713960ea)" style="fill: #cf4c48"/>
   </g>
   <g id="patch_43">
    <path d="M 306.077972 817.971267 
L 311.854003 817.971267 
L 311.854003 610.483808 
L 306.077972 610.483808 
z
" clip-path="url(#p1a713960ea)" style="fill: #cf4c48"/>
   </g>
   <g id="patch_44">
    <path d="M 349.129135 817.971267 
L 354.905166 817.971267 
L 354.905166 654.45466 
L 349.129135 654.45466 
z
" clip-path="url(#p1a713960ea)" style="fill: #cf4c48"/>
   </g>
   <g id="patch_45">
    <path d="M 392.180298 817.971267 
L 397.956329 817.971267 
L 397.956329 593.719921 
L 392.180298 593.719921 
z
" clip-path="url(#p1a713960ea)" style="fill: #cf4c48"/>
   </g>
   <g id="patch_46">
    <path d="M 435.231462 817.971267 
L 441.007493 817.971267 
L 441.007493 796.535476 
L 435.231462 796.535476 
z
" clip-path="url(#p1a713960ea)" style="fill: #cf4c48"/>
   </g>
   <g id="patch_47">
    <path d="M 478.282625 817.971267 
L 484.058656 817.971267 
L 484.058656 786.367217 
L 478.282625 786.367217 
z
" clip-path="url(#p1a713960ea)" style="fill: #cf4c48"/>
   </g>
   <g id="patch_48">
    <path d="M 521.333788 817.971267 
L 527.109819 817.971267 
L 527.109819 780.321225 
L 521.333788 780.321225 
z
" clip-path="url(#p1a713960ea)" style="fill: #cf4c48"/>
   </g>
   <g id="patch_49">
    <path d="M 564.384951 817.971267 
L 570.160982 817.971267 
L 570.160982 783.344221 
L 564.384951 783.344221 
z
" clip-path="url(#p1a713960ea)" style="fill: #cf4c48"/>
   </g>
   <g id="patch_50">
    <path d="M 607.436115 817.971267 
L 613.212146 817.971267 
L 613.212146 778.3975 
L 607.436115 778.3975 
z
" clip-path="url(#p1a713960ea)" style="fill: #cf4c48"/>
   </g>
   <g id="patch_51">
    <path d="M 650.487278 817.971267 
L 656.263309 817.971267 
L 656.263309 699.799602 
L 650.487278 699.799602 
z
" clip-path="url(#p1a713960ea)" style="fill: #cf4c48"/>
   </g>
   <g id="patch_52">
    <path d="M 693.538441 817.971267 
L 699.314472 817.971267 
L 699.314472 703.647051 
L 693.538441 703.647051 
z
" clip-path="url(#p1a713960ea)" style="fill: #cf4c48"/>
   </g>
   <g id="patch_53">
    <path d="M 736.589605 817.971267 
L 742.365636 817.971267 
L 742.365636 693.753609 
L 736.589605 693.753609 
z
" clip-path="url(#p1a713960ea)" style="fill: #cf4c48"/>
   </g>
   <g id="patch_54">
    <path d="M 779.640768 817.971267 
L 785.416799 817.971267 
L 785.416799 667.645916 
L 779.640768 667.645916 
z
" clip-path="url(#p1a713960ea)" style="fill: #cf4c48"/>
   </g>
   <g id="patch_55">
    <path d="M 822.691931 817.971267 
L 828.467962 817.971267 
L 828.467962 758.885434 
L 822.691931 758.885434 
z
" clip-path="url(#p1a713960ea)" style="fill: #cf4c48"/>
   </g>
   <g id="patch_56">
    <path d="M 865.743094 817.971267 
L 871.519125 817.971267 
L 871.519125 631.644781 
L 865.743094 631.644781 
z
" clip-path="url(#p1a713960ea)" style="fill: #cf4c48"/>
   </g>
   <g id="patch_57">
    <path d="M 908.794258 817.971267 
L 914.570289 817.971267 
L 914.570289 750.091264 
L 908.794258 750.091264 
z
" clip-path="url(#p1a713960ea)" style="fill: #cf4c48"/>
   </g>
   <g id="patch_58">
    <path d="M 951.845421 817.971267 
L 957.621452 817.971267 
L 957.621452 572.009312 
L 951.845421 572.009312 
z
" clip-path="url(#p1a713960ea)" style="fill: #cf4c48"/>
   </g>
   <g id="patch_59">
    <path d="M 994.896584 817.971267 
L 1000.672615 817.971267 
L 1000.672615 395.576268 
L 994.896584 395.576268 
z
" clip-path="url(#p1a713960ea)" style="fill: #cf4c48"/>
   </g>
   <g id="patch_60">
    <path d="M 1037.947748 817.971267 
L 1043.723779 817.971267 
L 1043.723779 479.945341 
L 1037.947748 479.945341 
z
" clip-path="url(#p1a713960ea)" style="fill: #cf4c48"/>
   </g>
   <g id="patch_61">
    <path d="M 1080.998911 817.971267 
L 1086.774942 817.971267 
L 1086.774942 517.045747 
L 1080.998911 517.045747 
z
" clip-path="url(#p1a713960ea)" style="fill: #cf4c48"/>
   </g>
   <g id="patch_62">
    <path d="M 1124.050074 817.971267 
L 1129.826105 817.971267 
L 1129.826105 591.521378 
L 1124.050074 591.521378 
z
" clip-path="url(#p1a713960ea)" style="fill: #cf4c48"/>
   </g>
   <g id="patch_63">
    <path d="M 1167.101237 817.971267 
L 1172.877268 817.971267 
L 1172.877268 706.670047 
L 1167.101237 706.670047 
z
" clip-path="url(#p1a713960ea)" style="fill: #cf4c48"/>
   </g>
   <g id="patch_64">
    <path d="M 1210.152401 817.971267 
L 1215.928432 817.971267 
L 1215.928432 382.385013 
L 1210.152401 382.385013 
z
" clip-path="url(#p1a713960ea)" style="fill: #cf4c48"/>
   </g>
   <g id="patch_65">
    <path d="M 1253.203564 817.971267 
L 1258.979595 817.971267 
L 1258.979595 687.707617 
L 1253.203564 687.707617 
z
" clip-path="url(#p1a713960ea)" style="fill: #cf4c48"/>
   </g>
   <g id="patch_66">
    <path d="M 1296.254727 817.971267 
L 1302.030758 817.971267 
L 1302.030758 450.539833 
L 1296.254727 450.539833 
z
" clip-path="url(#p1a713960ea)" style="fill: #cf4c48"/>
   </g>
   <g id="patch_67">
    <path d="M 1339.305891 817.971267 
L 1345.081922 817.971267 
L 1345.081922 78.161679 
L 1339.305891 78.161679 
z
" clip-path="url(#p1a713960ea)" style="fill: #cf4c48"/>
   </g>
   <g id="patch_68">
    <path d="M 1382.357054 817.971267 
L 1388.133085 817.971267 
L 1388.133085 239.204925 
L 1382.357054 239.204925 
z
" clip-path="url(#p1a713960ea)" style="fill: #cf4c48"/>
   </g>
   <g id="patch_69">
    <path d="M 96.598186 817.971267 
L 102.374217 817.971267 
L 102.374217 814.948271 
L 96.598186 814.948271 
z
" clip-path="url(#p1a713960ea)" style="fill: #242b5f"/>
   </g>
   <g id="patch_70">
    <path d="M 139.64935 817.971267 
L 145.425381 817.971267 
L 145.425381 814.948271 
L 139.64935 814.948271 
z
" clip-path="url(#p1a713960ea)" style="fill: #242b5f"/>
   </g>
   <g id="patch_71">
    <path d="M 182.700513 817.971267 
L 188.476544 817.971267 
L 188.476544 816.047542 
L 182.700513 816.047542 
z
" clip-path="url(#p1a713960ea)" style="fill: #242b5f"/>
   </g>
   <g id="patch_72">
    <path d="M 225.751676 817.971267 
L 231.527707 817.971267 
L 231.527707 814.398635 
L 225.751676 814.398635 
z
" clip-path="url(#p1a713960ea)" style="fill: #242b5f"/>
   </g>
   <g id="patch_73">
    <path d="M 268.802839 817.971267 
L 274.578871 817.971267 
L 274.578871 804.505193 
L 268.802839 804.505193 
z
" clip-path="url(#p1a713960ea)" style="fill: #242b5f"/>
   </g>
   <g id="patch_74">
    <path d="M 311.854003 817.971267 
L 317.630034 817.971267 
L 317.630034 802.856286 
L 311.854003 802.856286 
z
" clip-path="url(#p1a713960ea)" style="fill: #242b5f"/>
   </g>
   <g id="patch_75">
    <path d="M 354.905166 817.971267 
L 360.681197 817.971267 
L 360.681197 808.627461 
L 354.905166 808.627461 
z
" clip-path="url(#p1a713960ea)" style="fill: #242b5f"/>
   </g>
   <g id="patch_76">
    <path d="M 397.956329 817.971267 
L 403.73236 817.971267 
L 403.73236 806.703736 
L 397.956329 806.703736 
z
" clip-path="url(#p1a713960ea)" style="fill: #242b5f"/>
   </g>
   <g id="patch_77">
    <path d="M 441.007493 817.971267 
L 446.783524 817.971267 
L 446.783524 814.398635 
L 441.007493 814.398635 
z
" clip-path="url(#p1a713960ea)" style="fill: #242b5f"/>
   </g>
   <g id="patch_78">
    <path d="M 484.058656 817.971267 
L 489.834687 817.971267 
L 489.834687 814.673453 
L 484.058656 814.673453 
z
" clip-path="url(#p1a713960ea)" style="fill: #242b5f"/>
   </g>
   <g id="patch_79">
    <path d="M 527.109819 817.971267 
L 532.88585 817.971267 
L 532.88585 815.772724 
L 527.109819 815.772724 
z
" clip-path="url(#p1a713960ea)" style="fill: #242b5f"/>
   </g>
   <g id="patch_80">
    <path d="M 570.160982 817.971267 
L 575.937014 817.971267 
L 575.937014 814.673453 
L 570.160982 814.673453 
z
" clip-path="url(#p1a713960ea)" style="fill: #242b5f"/>
   </g>
   <g id="patch_81">
    <path d="M 613.212146 817.971267 
L 618.988177 817.971267 
L 618.988177 812.200092 
L 613.212146 812.200092 
z
" clip-path="url(#p1a713960ea)" style="fill: #242b5f"/>
   </g>
   <g id="patch_82">
    <path d="M 656.263309 817.971267 
L 662.03934 817.971267 
L 662.03934 812.749728 
L 656.263309 812.749728 
z
" clip-path="url(#p1a713960ea)" style="fill: #242b5f"/>
   </g>
   <g id="patch_83">
    <path d="M 699.314472 817.971267 
L 705.090503 817.971267 
L 705.090503 811.100821 
L 699.314472 811.100821 
z
" clip-path="url(#p1a713960ea)" style="fill: #242b5f"/>
   </g>
   <g id="patch_84">
    <path d="M 742.365636 817.971267 
L 748.141667 817.971267 
L 748.141667 811.925274 
L 742.365636 811.925274 
z
" clip-path="url(#p1a713960ea)" style="fill: #242b5f"/>
   </g>
   <g id="patch_85">
    <path d="M 785.416799 817.971267 
L 791.19283 817.971267 
L 791.19283 809.177096 
L 785.416799 809.177096 
z
" clip-path="url(#p1a713960ea)" style="fill: #242b5f"/>
   </g>
   <g id="patch_86">
    <path d="M 828.467962 817.971267 
L 834.243993 817.971267 
L 834.243993 814.948271 
L 828.467962 814.948271 
z
" clip-path="url(#p1a713960ea)" style="fill: #242b5f"/>
   </g>
   <g id="patch_87">
    <path d="M 871.519125 817.971267 
L 877.295157 817.971267 
L 877.295157 812.47491 
L 871.519125 812.47491 
z
" clip-path="url(#p1a713960ea)" style="fill: #242b5f"/>
   </g>
   <g id="patch_88">
    <path d="M 914.570289 817.971267 
L 920.34632 817.971267 
L 920.34632 811.650457 
L 914.570289 811.650457 
z
" clip-path="url(#p1a713960ea)" style="fill: #242b5f"/>
   </g>
   <g id="patch_89">
    <path d="M 957.621452 817.971267 
L 963.397483 817.971267 
L 963.397483 800.932561 
L 957.621452 800.932561 
z
" clip-path="url(#p1a713960ea)" style="fill: #242b5f"/>
   </g>
   <g id="patch_90">
    <path d="M 1000.672615 817.971267 
L 1006.448646 817.971267 
L 1006.448646 799.008837 
L 1000.672615 799.008837 
z
" clip-path="url(#p1a713960ea)" style="fill: #242b5f"/>
   </g>
   <g id="patch_91">
    <path d="M 1043.723779 817.971267 
L 1049.49981 817.971267 
L 1049.49981 811.650457 
L 1043.723779 811.650457 
z
" clip-path="url(#p1a713960ea)" style="fill: #242b5f"/>
   </g>
   <g id="patch_92">
    <path d="M 1086.774942 817.971267 
L 1092.550973 817.971267 
L 1092.550973 811.650457 
L 1086.774942 811.650457 
z
" clip-path="url(#p1a713960ea)" style="fill: #242b5f"/>
   </g>
   <g id="patch_93">
    <path d="M 1129.826105 817.971267 
L 1135.602136 817.971267 
L 1135.602136 814.123817 
L 1129.826105 814.123817 
z
" clip-path="url(#p1a713960ea)" style="fill: #242b5f"/>
   </g>
   <g id="patch_94">
    <path d="M 1172.877268 817.971267 
L 1178.6533 817.971267 
L 1178.6533 805.329647 
L 1172.877268 805.329647 
z
" clip-path="url(#p1a713960ea)" style="fill: #242b5f"/>
   </g>
   <g id="patch_95">
    <path d="M 1215.928432 817.971267 
L 1221.704463 817.971267 
L 1221.704463 812.749728 
L 1215.928432 812.749728 
z
" clip-path="url(#p1a713960ea)" style="fill: #242b5f"/>
   </g>
   <g id="patch_96">
    <path d="M 1258.979595 817.971267 
L 1264.755626 817.971267 
L 1264.755626 813.848999 
L 1258.979595 813.848999 
z
" clip-path="url(#p1a713960ea)" style="fill: #242b5f"/>
   </g>
   <g id="patch_97">
    <path d="M 1302.030758 817.971267 
L 1307.806789 817.971267 
L 1307.806789 808.902278 
L 1302.030758 808.902278 
z
" clip-path="url(#p1a713960ea)" style="fill: #242b5f"/>
   </g>
   <g id="patch_98">
    <path d="M 1345.081922 817.971267 
L 1350.857953 817.971267 
L 1350.857953 780.046407 
L 1345.081922 780.046407 
z
" clip-path="url(#p1a713960ea)" style="fill: #242b5f"/>
   </g>
   <g id="patch_99">
    <path d="M 1388.133085 817.971267 
L 1393.909116 817.971267 
L 1393.909116 808.077825 
L 1388.133085 808.077825 
z
" clip-path="url(#p1a713960ea)" style="fill: #242b5f"/>
   </g>
   <g id="patch_100">
    <path d="M 102.374217 817.971267 
L 108.150248 817.971267 
L 108.150248 817.971267 
L 102.374217 817.971267 
z
" clip-path="url(#p1a713960ea)" style="fill: #cfcfcf"/>
   </g>
   <g id="patch_101">
    <path d="M 145.425381 817.971267 
L 151.201412 817.971267 
L 151.201412 790.489484 
L 145.425381 790.489484 
z
" clip-path="url(#p1a713960ea)" style="fill: #cfcfcf"/>
   </g>
   <g id="patch_102">
    <path d="M 188.476544 817.971267 
L 194.252575 817.971267 
L 194.252575 817.971267 
L 188.476544 817.971267 
z
" clip-path="url(#p1a713960ea)" style="fill: #cfcfcf"/>
   </g>
   <g id="patch_103">
    <path d="M 231.527707 817.971267 
L 237.303738 817.971267 
L 237.303738 794.336934 
L 231.527707 794.336934 
z
" clip-path="url(#p1a713960ea)" style="fill: #cfcfcf"/>
   </g>
   <g id="patch_104">
    <path d="M 274.578871 817.971267 
L 280.354902 817.971267 
L 280.354902 792.138391 
L 274.578871 792.138391 
z
" clip-path="url(#p1a713960ea)" style="fill: #cfcfcf"/>
   </g>
   <g id="patch_105">
    <path d="M 317.630034 817.971267 
L 323.406065 817.971267 
L 323.406065 806.978554 
L 317.630034 806.978554 
z
" clip-path="url(#p1a713960ea)" style="fill: #cfcfcf"/>
   </g>
   <g id="patch_106">
    <path d="M 360.681197 817.971267 
L 366.457228 817.971267 
L 366.457228 799.283655 
L 360.681197 799.283655 
z
" clip-path="url(#p1a713960ea)" style="fill: #cfcfcf"/>
   </g>
   <g id="patch_107">
    <path d="M 403.73236 817.971267 
L 409.508391 817.971267 
L 409.508391 800.657744 
L 403.73236 800.657744 
z
" clip-path="url(#p1a713960ea)" style="fill: #cfcfcf"/>
   </g>
   <g id="patch_108">
    <path d="M 446.783524 817.971267 
L 452.559555 817.971267 
L 452.559555 817.971267 
L 446.783524 817.971267 
z
" clip-path="url(#p1a713960ea)" style="fill: #cfcfcf"/>
   </g>
   <g id="patch_109">
    <path d="M 489.834687 817.971267 
L 495.610718 817.971267 
L 495.610718 817.971267 
L 489.834687 817.971267 
z
" clip-path="url(#p1a713960ea)" style="fill: #cfcfcf"/>
   </g>
   <g id="patch_110">
    <path d="M 532.88585 817.971267 
L 538.661881 817.971267 
L 538.661881 817.971267 
L 532.88585 817.971267 
z
" clip-path="url(#p1a713960ea)" style="fill: #cfcfcf"/>
   </g>
   <g id="patch_111">
    <path d="M 575.937014 817.971267 
L 581.713045 817.971267 
L 581.713045 817.971267 
L 575.937014 817.971267 
z
" clip-path="url(#p1a713960ea)" style="fill: #cfcfcf"/>
   </g>
   <g id="patch_112">
    <path d="M 618.988177 817.971267 
L 624.764208 817.971267 
L 624.764208 817.971267 
L 618.988177 817.971267 
z
" clip-path="url(#p1a713960ea)" style="fill: #cfcfcf"/>
   </g>
   <g id="patch_113">
    <path d="M 662.03934 817.971267 
L 667.815371 817.971267 
L 667.815371 806.703736 
L 662.03934 806.703736 
z
" clip-path="url(#p1a713960ea)" style="fill: #cfcfcf"/>
   </g>
   <g id="patch_114">
    <path d="M 705.090503 817.971267 
L 710.866534 817.971267 
L 710.866534 805.054829 
L 705.090503 805.054829 
z
" clip-path="url(#p1a713960ea)" style="fill: #cfcfcf"/>
   </g>
   <g id="patch_115">
    <path d="M 748.141667 817.971267 
L 753.917698 817.971267 
L 753.917698 806.978554 
L 748.141667 806.978554 
z
" clip-path="url(#p1a713960ea)" style="fill: #cfcfcf"/>
   </g>
   <g id="patch_116">
    <path d="M 791.19283 817.971267 
L 796.968861 817.971267 
L 796.968861 801.207379 
L 791.19283 801.207379 
z
" clip-path="url(#p1a713960ea)" style="fill: #cfcfcf"/>
   </g>
   <g id="patch_117">
    <path d="M 834.243993 817.971267 
L 840.020024 817.971267 
L 840.020024 817.971267 
L 834.243993 817.971267 
z
" clip-path="url(#p1a713960ea)" style="fill: #cfcfcf"/>
   </g>
   <g id="patch_118">
    <path d="M 877.295157 817.971267 
L 883.071188 817.971267 
L 883.071188 797.909565 
L 877.295157 797.909565 
z
" clip-path="url(#p1a713960ea)" style="fill: #cfcfcf"/>
   </g>
   <g id="patch_119">
    <path d="M 920.34632 817.971267 
L 926.122351 817.971267 
L 926.122351 817.971267 
L 920.34632 817.971267 
z
" clip-path="url(#p1a713960ea)" style="fill: #cfcfcf"/>
   </g>
   <g id="patch_120">
    <path d="M 963.397483 817.971267 
L 969.173514 817.971267 
L 969.173514 784.443492 
L 963.397483 784.443492 
z
" clip-path="url(#p1a713960ea)" style="fill: #cfcfcf"/>
   </g>
   <g id="patch_121">
    <path d="M 1006.448646 817.971267 
L 1012.224677 817.971267 
L 1012.224677 736.62519 
L 1006.448646 736.62519 
z
" clip-path="url(#p1a713960ea)" style="fill: #cfcfcf"/>
   </g>
   <g id="patch_122">
    <path d="M 1049.49981 817.971267 
L 1055.275841 817.971267 
L 1055.275841 778.947135 
L 1049.49981 778.947135 
z
" clip-path="url(#p1a713960ea)" style="fill: #cfcfcf"/>
   </g>
   <g id="patch_123">
    <path d="M 1092.550973 817.971267 
L 1098.327004 817.971267 
L 1098.327004 785.817581 
L 1092.550973 785.817581 
z
" clip-path="url(#p1a713960ea)" style="fill: #cfcfcf"/>
   </g>
   <g id="patch_124">
    <path d="M 1135.602136 817.971267 
L 1141.378167 817.971267 
L 1141.378167 711.891586 
L 1135.602136 711.891586 
z
" clip-path="url(#p1a713960ea)" style="fill: #cfcfcf"/>
   </g>
   <g id="patch_125">
    <path d="M 1178.6533 817.971267 
L 1184.429331 817.971267 
L 1184.429331 685.783892 
L 1178.6533 685.783892 
z
" clip-path="url(#p1a713960ea)" style="fill: #cfcfcf"/>
   </g>
   <g id="patch_126">
    <path d="M 1221.704463 817.971267 
L 1227.480494 817.971267 
L 1227.480494 784.443492 
L 1221.704463 784.443492 
z
" clip-path="url(#p1a713960ea)" style="fill: #cfcfcf"/>
   </g>
   <g id="patch_127">
    <path d="M 1264.755626 817.971267 
L 1270.531657 817.971267 
L 1270.531657 787.741306 
L 1264.755626 787.741306 
z
" clip-path="url(#p1a713960ea)" style="fill: #cfcfcf"/>
   </g>
   <g id="patch_128">
    <path d="M 1307.806789 817.971267 
L 1313.58282 817.971267 
L 1313.58282 797.634748 
L 1307.806789 797.634748 
z
" clip-path="url(#p1a713960ea)" style="fill: #cfcfcf"/>
   </g>
   <g id="patch_129">
    <path d="M 1350.857953 817.971267 
L 1356.633984 817.971267 
L 1356.633984 731.953287 
L 1350.857953 731.953287 
z
" clip-path="url(#p1a713960ea)" style="fill: #cfcfcf"/>
   </g>
   <g id="patch_130">
    <path d="M 1393.909116 817.971267 
L 1399.685147 817.971267 
L 1399.685147 745.419361 
L 1393.909116 745.419361 
z
" clip-path="url(#p1a713960ea)" style="fill: #cfcfcf"/>
   </g>
   <g id="patch_131">
    <path d="M 108.150248 817.971267 
L 113.92628 817.971267 
L 113.92628 803.68074 
L 108.150248 803.68074 
z
" clip-path="url(#p1a713960ea)" style="fill: #a0a0a0"/>
   </g>
   <g id="patch_132">
    <path d="M 151.201412 817.971267 
L 156.977443 817.971267 
L 156.977443 775.374504 
L 151.201412 775.374504 
z
" clip-path="url(#p1a713960ea)" style="fill: #a0a0a0"/>
   </g>
   <g id="patch_133">
    <path d="M 194.252575 817.971267 
L 200.028606 817.971267 
L 200.028606 809.726732 
L 194.252575 809.726732 
z
" clip-path="url(#p1a713960ea)" style="fill: #a0a0a0"/>
   </g>
   <g id="patch_134">
    <path d="M 237.303738 817.971267 
L 243.079769 817.971267 
L 243.079769 794.336934 
L 237.303738 794.336934 
z
" clip-path="url(#p1a713960ea)" style="fill: #a0a0a0"/>
   </g>
   <g id="patch_135">
    <path d="M 280.354902 817.971267 
L 286.130933 817.971267 
L 286.130933 752.289806 
L 280.354902 752.289806 
z
" clip-path="url(#p1a713960ea)" style="fill: #a0a0a0"/>
   </g>
   <g id="patch_136">
    <path d="M 323.406065 817.971267 
L 329.182096 817.971267 
L 329.182096 763.832155 
L 323.406065 763.832155 
z
" clip-path="url(#p1a713960ea)" style="fill: #a0a0a0"/>
   </g>
   <g id="patch_137">
    <path d="M 366.457228 817.971267 
L 372.233259 817.971267 
L 372.233259 778.672318 
L 366.457228 778.672318 
z
" clip-path="url(#p1a713960ea)" style="fill: #a0a0a0"/>
   </g>
   <g id="patch_138">
    <path d="M 409.508391 817.971267 
L 415.284423 817.971267 
L 415.284423 753.663895 
L 409.508391 753.663895 
z
" clip-path="url(#p1a713960ea)" style="fill: #a0a0a0"/>
   </g>
   <g id="patch_139">
    <path d="M 452.559555 817.971267 
L 458.335586 817.971267 
L 458.335586 817.696449 
L 452.559555 817.696449 
z
" clip-path="url(#p1a713960ea)" style="fill: #a0a0a0"/>
   </g>
   <g id="patch_140">
    <path d="M 495.610718 817.971267 
L 501.386749 817.971267 
L 501.386749 816.32236 
L 495.610718 816.32236 
z
" clip-path="url(#p1a713960ea)" style="fill: #a0a0a0"/>
   </g>
   <g id="patch_141">
    <path d="M 538.661881 817.971267 
L 544.437912 817.971267 
L 544.437912 814.123817 
L 538.661881 814.123817 
z
" clip-path="url(#p1a713960ea)" style="fill: #a0a0a0"/>
   </g>
   <g id="patch_142">
    <path d="M 581.713045 817.971267 
L 587.489076 817.971267 
L 587.489076 814.948271 
L 581.713045 814.948271 
z
" clip-path="url(#p1a713960ea)" style="fill: #a0a0a0"/>
   </g>
   <g id="patch_143">
    <path d="M 624.764208 817.971267 
L 630.540239 817.971267 
L 630.540239 810.551185 
L 624.764208 810.551185 
z
" clip-path="url(#p1a713960ea)" style="fill: #a0a0a0"/>
   </g>
   <g id="patch_144">
    <path d="M 667.815371 817.971267 
L 673.591402 817.971267 
L 673.591402 786.916852 
L 667.815371 786.916852 
z
" clip-path="url(#p1a713960ea)" style="fill: #a0a0a0"/>
   </g>
   <g id="patch_145">
    <path d="M 710.866534 817.971267 
L 716.642566 817.971267 
L 716.642566 801.207379 
L 710.866534 801.207379 
z
" clip-path="url(#p1a713960ea)" style="fill: #a0a0a0"/>
   </g>
   <g id="patch_146">
    <path d="M 753.917698 817.971267 
L 759.693729 817.971267 
L 759.693729 788.290941 
L 753.917698 788.290941 
z
" clip-path="url(#p1a713960ea)" style="fill: #a0a0a0"/>
   </g>
   <g id="patch_147">
    <path d="M 796.968861 817.971267 
L 802.744892 817.971267 
L 802.744892 789.115395 
L 796.968861 789.115395 
z
" clip-path="url(#p1a713960ea)" style="fill: #a0a0a0"/>
   </g>
   <g id="patch_148">
    <path d="M 840.020024 817.971267 
L 845.796055 817.971267 
L 845.796055 809.177096 
L 840.020024 809.177096 
z
" clip-path="url(#p1a713960ea)" style="fill: #a0a0a0"/>
   </g>
   <g id="patch_149">
    <path d="M 883.071188 817.971267 
L 888.847219 817.971267 
L 888.847219 778.672318 
L 883.071188 778.672318 
z
" clip-path="url(#p1a713960ea)" style="fill: #a0a0a0"/>
   </g>
   <g id="patch_150">
    <path d="M 926.122351 817.971267 
L 931.898382 817.971267 
L 931.898382 807.253371 
L 926.122351 807.253371 
z
" clip-path="url(#p1a713960ea)" style="fill: #a0a0a0"/>
   </g>
   <g id="patch_151">
    <path d="M 969.173514 817.971267 
L 974.949545 817.971267 
L 974.949545 766.305515 
L 969.173514 766.305515 
z
" clip-path="url(#p1a713960ea)" style="fill: #a0a0a0"/>
   </g>
   <g id="patch_152">
    <path d="M 1012.224677 817.971267 
L 1018.000709 817.971267 
L 1018.000709 747.892721 
L 1012.224677 747.892721 
z
" clip-path="url(#p1a713960ea)" style="fill: #a0a0a0"/>
   </g>
   <g id="patch_153">
    <path d="M 1055.275841 817.971267 
L 1061.051872 817.971267 
L 1061.051872 750.366081 
L 1055.275841 750.366081 
z
" clip-path="url(#p1a713960ea)" style="fill: #a0a0a0"/>
   </g>
   <g id="patch_154">
    <path d="M 1098.327004 817.971267 
L 1104.103035 817.971267 
L 1104.103035 764.106973 
L 1098.327004 764.106973 
z
" clip-path="url(#p1a713960ea)" style="fill: #a0a0a0"/>
   </g>
   <g id="patch_155">
    <path d="M 1141.378167 817.971267 
L 1147.154198 817.971267 
L 1147.154198 796.535476 
L 1141.378167 796.535476 
z
" clip-path="url(#p1a713960ea)" style="fill: #a0a0a0"/>
   </g>
   <g id="patch_156">
    <path d="M 1184.429331 817.971267 
L 1190.205362 817.971267 
L 1190.205362 801.757015 
L 1184.429331 801.757015 
z
" clip-path="url(#p1a713960ea)" style="fill: #a0a0a0"/>
   </g>
   <g id="patch_157">
    <path d="M 1227.480494 817.971267 
L 1233.256525 817.971267 
L 1233.256525 750.366081 
L 1227.480494 750.366081 
z
" clip-path="url(#p1a713960ea)" style="fill: #a0a0a0"/>
   </g>
   <g id="patch_158">
    <path d="M 1270.531657 817.971267 
L 1276.307688 817.971267 
L 1276.307688 790.764302 
L 1270.531657 790.764302 
z
" clip-path="url(#p1a713960ea)" style="fill: #a0a0a0"/>
   </g>
   <g id="patch_159">
    <path d="M 1313.58282 817.971267 
L 1319.358852 817.971267 
L 1319.358852 669.020005 
L 1313.58282 669.020005 
z
" clip-path="url(#p1a713960ea)" style="fill: #a0a0a0"/>
   </g>
   <g id="patch_160">
    <path d="M 1356.633984 817.971267 
L 1362.410015 817.971267 
L 1362.410015 670.119276 
L 1356.633984 670.119276 
z
" clip-path="url(#p1a713960ea)" style="fill: #a0a0a0"/>
   </g>
   <g id="patch_161">
    <path d="M 1399.685147 817.971267 
L 1405.461178 817.971267 
L 1405.461178 659.676199 
L 1399.685147 659.676199 
z
" clip-path="url(#p1a713960ea)" style="fill: #a0a0a0"/>
   </g>
   <g id="patch_162">
    <path d="M 113.92628 817.971267 
L 119.702311 817.971267 
L 119.702311 816.597178 
L 113.92628 816.597178 
z
" clip-path="url(#p1a713960ea)" style="fill: #767676"/>
   </g>
   <g id="patch_163">
    <path d="M 156.977443 817.971267 
L 162.753474 817.971267 
L 162.753474 814.123817 
L 156.977443 814.123817 
z
" clip-path="url(#p1a713960ea)" style="fill: #767676"/>
   </g>
   <g id="patch_164">
    <path d="M 200.028606 817.971267 
L 205.804637 817.971267 
L 205.804637 817.146813 
L 200.028606 817.146813 
z
" clip-path="url(#p1a713960ea)" style="fill: #767676"/>
   </g>
   <g id="patch_165">
    <path d="M 243.079769 817.971267 
L 248.8558 817.971267 
L 248.8558 815.497906 
L 243.079769 815.497906 
z
" clip-path="url(#p1a713960ea)" style="fill: #767676"/>
   </g>
   <g id="patch_166">
    <path d="M 286.130933 817.971267 
L 291.906964 817.971267 
L 291.906964 809.451914 
L 286.130933 809.451914 
z
" clip-path="url(#p1a713960ea)" style="fill: #767676"/>
   </g>
   <g id="patch_167">
    <path d="M 329.182096 817.971267 
L 334.958127 817.971267 
L 334.958127 812.749728 
L 329.182096 812.749728 
z
" clip-path="url(#p1a713960ea)" style="fill: #767676"/>
   </g>
   <g id="patch_168">
    <path d="M 372.233259 817.971267 
L 378.00929 817.971267 
L 378.00929 813.848999 
L 372.233259 813.848999 
z
" clip-path="url(#p1a713960ea)" style="fill: #767676"/>
   </g>
   <g id="patch_169">
    <path d="M 415.284423 817.971267 
L 421.060454 817.971267 
L 421.060454 811.650457 
L 415.284423 811.650457 
z
" clip-path="url(#p1a713960ea)" style="fill: #767676"/>
   </g>
   <g id="patch_170">
    <path d="M 458.335586 817.971267 
L 464.111617 817.971267 
L 464.111617 817.971267 
L 458.335586 817.971267 
z
" clip-path="url(#p1a713960ea)" style="fill: #767676"/>
   </g>
   <g id="patch_171">
    <path d="M 501.386749 817.971267 
L 507.16278 817.971267 
L 507.16278 817.146813 
L 501.386749 817.146813 
z
" clip-path="url(#p1a713960ea)" style="fill: #767676"/>
   </g>
   <g id="patch_172">
    <path d="M 544.437912 817.971267 
L 550.213943 817.971267 
L 550.213943 817.146813 
L 544.437912 817.146813 
z
" clip-path="url(#p1a713960ea)" style="fill: #767676"/>
   </g>
   <g id="patch_173">
    <path d="M 587.489076 817.971267 
L 593.265107 817.971267 
L 593.265107 817.146813 
L 587.489076 817.146813 
z
" clip-path="url(#p1a713960ea)" style="fill: #767676"/>
   </g>
   <g id="patch_174">
    <path d="M 630.540239 817.971267 
L 636.31627 817.971267 
L 636.31627 817.146813 
L 630.540239 817.146813 
z
" clip-path="url(#p1a713960ea)" style="fill: #767676"/>
   </g>
   <g id="patch_175">
    <path d="M 673.591402 817.971267 
L 679.367433 817.971267 
L 679.367433 815.497906 
L 673.591402 815.497906 
z
" clip-path="url(#p1a713960ea)" style="fill: #767676"/>
   </g>
   <g id="patch_176">
    <path d="M 716.642566 817.971267 
L 722.418597 817.971267 
L 722.418597 816.32236 
L 716.642566 816.32236 
z
" clip-path="url(#p1a713960ea)" style="fill: #767676"/>
   </g>
   <g id="patch_177">
    <path d="M 759.693729 817.971267 
L 765.46976 817.971267 
L 765.46976 815.772724 
L 759.693729 815.772724 
z
" clip-path="url(#p1a713960ea)" style="fill: #767676"/>
   </g>
   <g id="patch_178">
    <path d="M 802.744892 817.971267 
L 808.520923 817.971267 
L 808.520923 815.223088 
L 802.744892 815.223088 
z
" clip-path="url(#p1a713960ea)" style="fill: #767676"/>
   </g>
   <g id="patch_179">
    <path d="M 845.796055 817.971267 
L 851.572086 817.971267 
L 851.572086 817.146813 
L 845.796055 817.146813 
z
" clip-path="url(#p1a713960ea)" style="fill: #767676"/>
   </g>
   <g id="patch_180">
    <path d="M 888.847219 817.971267 
L 894.62325 817.971267 
L 894.62325 814.398635 
L 888.847219 814.398635 
z
" clip-path="url(#p1a713960ea)" style="fill: #767676"/>
   </g>
   <g id="patch_181">
    <path d="M 931.898382 817.971267 
L 937.674413 817.971267 
L 937.674413 817.146813 
L 931.898382 817.146813 
z
" clip-path="url(#p1a713960ea)" style="fill: #767676"/>
   </g>
   <g id="patch_182">
    <path d="M 974.949545 817.971267 
L 980.725576 817.971267 
L 980.725576 810.826003 
L 974.949545 810.826003 
z
" clip-path="url(#p1a713960ea)" style="fill: #767676"/>
   </g>
   <g id="patch_183">
    <path d="M 1018.000709 817.971267 
L 1023.77674 817.971267 
L 1023.77674 789.939848 
L 1018.000709 789.939848 
z
" clip-path="url(#p1a713960ea)" style="fill: #767676"/>
   </g>
   <g id="patch_184">
    <path d="M 1061.051872 817.971267 
L 1066.827903 817.971267 
L 1066.827903 805.604465 
L 1061.051872 805.604465 
z
" clip-path="url(#p1a713960ea)" style="fill: #767676"/>
   </g>
   <g id="patch_185">
    <path d="M 1104.103035 817.971267 
L 1109.879066 817.971267 
L 1109.879066 810.826003 
L 1104.103035 810.826003 
z
" clip-path="url(#p1a713960ea)" style="fill: #767676"/>
   </g>
   <g id="patch_186">
    <path d="M 1147.154198 817.971267 
L 1152.930229 817.971267 
L 1152.930229 808.627461 
L 1147.154198 808.627461 
z
" clip-path="url(#p1a713960ea)" style="fill: #767676"/>
   </g>
   <g id="patch_187">
    <path d="M 1190.205362 817.971267 
L 1195.981393 817.971267 
L 1195.981393 811.375639 
L 1190.205362 811.375639 
z
" clip-path="url(#p1a713960ea)" style="fill: #767676"/>
   </g>
   <g id="patch_188">
    <path d="M 1233.256525 817.971267 
L 1239.032556 817.971267 
L 1239.032556 788.565759 
L 1233.256525 788.565759 
z
" clip-path="url(#p1a713960ea)" style="fill: #767676"/>
   </g>
   <g id="patch_189">
    <path d="M 1276.307688 817.971267 
L 1282.083719 817.971267 
L 1282.083719 814.673453 
L 1276.307688 814.673453 
z
" clip-path="url(#p1a713960ea)" style="fill: #767676"/>
   </g>
   <g id="patch_190">
    <path d="M 1319.358852 817.971267 
L 1325.134883 817.971267 
L 1325.134883 801.757015 
L 1319.358852 801.757015 
z
" clip-path="url(#p1a713960ea)" style="fill: #767676"/>
   </g>
   <g id="patch_191">
    <path d="M 1362.410015 817.971267 
L 1368.186046 817.971267 
L 1368.186046 764.381791 
L 1362.410015 764.381791 
z
" clip-path="url(#p1a713960ea)" style="fill: #767676"/>
   </g>
   <g id="patch_192">
    <path d="M 1405.461178 817.971267 
L 1411.237209 817.971267 
L 1411.237209 783.893856 
L 1405.461178 783.893856 
z
" clip-path="url(#p1a713960ea)" style="fill: #767676"/>
   </g>
   <g id="text_39">
    <!-- Gemiddelde Glans Metingen per Mock-up -->
    <g transform="translate(623.904167 35.1712) scale(0.12 -0.12)">
     <defs>
      <path id="DejaVuSans-73" d="M 2834 3397 
L 2834 2853 
Q 2591 2978 2328 3040 
Q 2066 3103 1784 3103 
Q 1356 3103 1142 2972 
Q 928 2841 928 2578 
Q 928 2378 1081 2264 
Q 1234 2150 1697 2047 
L 1894 2003 
Q 2506 1872 2764 1633 
Q 3022 1394 3022 966 
Q 3022 478 2636 193 
Q 2250 -91 1575 -91 
Q 1294 -91 989 -36 
Q 684 19 347 128 
L 347 722 
Q 666 556 975 473 
Q 1284 391 1588 391 
Q 1994 391 2212 530 
Q 2431 669 2431 922 
Q 2431 1156 2273 1281 
Q 2116 1406 1581 1522 
L 1381 1569 
Q 847 1681 609 1914 
Q 372 2147 372 2553 
Q 372 3047 722 3315 
Q 1072 3584 1716 3584 
Q 2034 3584 2315 3537 
Q 2597 3491 2834 3397 
z
" transform="scale(0.015625)"/>
     </defs>
     <use xlink:href="#DejaVuSans-47"/>
     <use xlink:href="#DejaVuSans-65" x="77.490234"/>
     <use xlink:href="#DejaVuSans-6d" x="139.013672"/>
     <use xlink:href="#DejaVuSans-69" x="236.425781"/>
     <use xlink:href="#DejaVuSans-64" x="264.208984"/>
     <use xlink:href="#DejaVuSans-64" x="327.685547"/>
     <use xlink:href="#DejaVuSans-65" x="391.162109"/>
     <use xlink:href="#DejaVuSans-6c" x="452.685547"/>
     <use xlink:href="#DejaVuSans-64" x="480.46875"/>
     <use xlink:href="#DejaVuSans-65" x="543.945312"/>
     <use xlink:href="#DejaVuSans-20" x="605.46875"/>
     <use xlink:href="#DejaVuSans-47" x="637.255859"/>
     <use xlink:href="#DejaVuSans-6c" x="714.746094"/>
     <use xlink:href="#DejaVuSans-61" x="742.529297"/>
     <use xlink:href="#DejaVuSans-6e" x="803.808594"/>
     <use xlink:href="#DejaVuSans-73" x="867.1875"/>
     <use xlink:href="#DejaVuSans-20" x="919.287109"/>
     <use xlink:href="#DejaVuSans-4d" x="951.074219"/>
     <use xlink:href="#DejaVuSans-65" x="1037.353516"/>
     <use xlink:href="#DejaVuSans-74" x="1098.876953"/>
     <use xlink:href="#DejaVuSans-69" x="1138.085938"/>
     <use xlink:href="#DejaVuSans-6e" x="1165.869141"/>
     <use xlink:href="#DejaVuSans-67" x="1229.248047"/>
     <use xlink:href="#DejaVuSans-65" x="1292.724609"/>
     <use xlink:href="#DejaVuSans-6e" x="1354.248047"/>
     <use xlink:href="#DejaVuSans-20" x="1417.626953"/>
     <use xlink:href="#DejaVuSans-70" x="1449.414062"/>
     <use xlink:href="#DejaVuSans-65" x="1512.890625"/>
     <use xlink:href="#DejaVuSans-72" x="1574.414062"/>
     <use xlink:href="#DejaVuSans-20" x="1615.527344"/>
     <use xlink:href="#DejaVuSans-4d" x="1647.314453"/>
     <use xlink:href="#DejaVuSans-6f" x="1733.59375"/>
     <use xlink:href="#DejaVuSans-63" x="1794.775391"/>
     <use xlink:href="#DejaVuSans-6b" x="1849.755859"/>
     <use xlink:href="#DejaVuSans-2d" x="1907.666016"/>
     <use xlink:href="#DejaVuSans-75" x="1943.75"/>
     <use xlink:href="#DejaVuSans-70" x="2007.128906"/>
    </g>
   </g>
   <g id="legend_1">
    <g id="patch_193">
     <path d="M 81.283333 151.918075 
L 143.441146 151.918075 
Q 145.441146 151.918075 145.441146 149.918075 
L 145.441146 48.1712 
Q 145.441146 46.1712 143.441146 46.1712 
L 81.283333 46.1712 
Q 79.283333 46.1712 79.283333 48.1712 
L 79.283333 149.918075 
Q 79.283333 151.918075 81.283333 151.918075 
z
" style="fill: #ffffff; opacity: 0.8; stroke: #cccccc; stroke-linejoin: miter"/>
    </g>
    <g id="text_40">
     <!-- Metingen -->
     <g transform="translate(89.034115 57.769638) scale(0.1 -0.1)">
      <use xlink:href="#DejaVuSans-4d"/>
      <use xlink:href="#DejaVuSans-65" x="86.279297"/>
      <use xlink:href="#DejaVuSans-74" x="147.802734"/>
      <use xlink:href="#DejaVuSans-69" x="187.011719"/>
      <use xlink:href="#DejaVuSans-6e" x="214.794922"/>
      <use xlink:href="#DejaVuSans-67" x="278.173828"/>
      <use xlink:href="#DejaVuSans-65" x="341.650391"/>
      <use xlink:href="#DejaVuSans-6e" x="403.173828"/>
     </g>
    </g>
    <g id="patch_194">
     <path d="M 83.283333 72.447763 
L 103.283333 72.447763 
L 103.283333 65.447763 
L 83.283333 65.447763 
z
" style="fill: #d6b863"/>
    </g>
    <g id="text_41">
     <!-- 20 -->
     <g transform="translate(111.283333 72.447763) scale(0.1 -0.1)">
      <use xlink:href="#DejaVuSans-32"/>
      <use xlink:href="#DejaVuSans-30" x="63.623047"/>
     </g>
    </g>
    <g id="patch_195">
     <path d="M 83.283333 87.125888 
L 103.283333 87.125888 
L 103.283333 80.125888 
L 83.283333 80.125888 
z
" style="fill: #cf4c48"/>
    </g>
    <g id="text_42">
     <!-- 60 -->
     <g transform="translate(111.283333 87.125888) scale(0.1 -0.1)">
      <use xlink:href="#DejaVuSans-36"/>
      <use xlink:href="#DejaVuSans-30" x="63.623047"/>
     </g>
    </g>
    <g id="patch_196">
     <path d="M 83.283333 101.804013 
L 103.283333 101.804013 
L 103.283333 94.804013 
L 83.283333 94.804013 
z
" style="fill: #242b5f"/>
    </g>
    <g id="text_43">
     <!-- 85 -->
     <g transform="translate(111.283333 101.804013) scale(0.1 -0.1)">
      <use xlink:href="#DejaVuSans-38"/>
      <use xlink:href="#DejaVuSans-35" x="63.623047"/>
     </g>
    </g>
    <g id="patch_197">
     <path d="M 83.283333 116.482138 
L 103.283333 116.482138 
L 103.283333 109.482138 
L 83.283333 109.482138 
z
" style="fill: #cfcfcf"/>
    </g>
    <g id="text_44">
     <!-- DOI -->
     <g transform="translate(111.283333 116.482138) scale(0.1 -0.1)">
      <defs>
       <path id="DejaVuSans-44" d="M 1259 4147 
L 1259 519 
L 2022 519 
Q 2988 519 3436 956 
Q 3884 1394 3884 2338 
Q 3884 3275 3436 3711 
Q 2988 4147 2022 4147 
L 1259 4147 
z
M 628 4666 
L 1925 4666 
Q 3281 4666 3915 4102 
Q 4550 3538 4550 2338 
Q 4550 1131 3912 565 
Q 3275 0 1925 0 
L 628 0 
L 628 4666 
z
" transform="scale(0.015625)"/>
       <path id="DejaVuSans-4f" d="M 2522 4238 
Q 1834 4238 1429 3725 
Q 1025 3213 1025 2328 
Q 1025 1447 1429 934 
Q 1834 422 2522 422 
Q 3209 422 3611 934 
Q 4013 1447 4013 2328 
Q 4013 3213 3611 3725 
Q 3209 4238 2522 4238 
z
M 2522 4750 
Q 3503 4750 4090 4092 
Q 4678 3434 4678 2328 
Q 4678 1225 4090 567 
Q 3503 -91 2522 -91 
Q 1538 -91 948 565 
Q 359 1222 359 2328 
Q 359 3434 948 4092 
Q 1538 4750 2522 4750 
z
" transform="scale(0.015625)"/>
       <path id="DejaVuSans-49" d="M 628 4666 
L 1259 4666 
L 1259 0 
L 628 0 
L 628 4666 
z
" transform="scale(0.015625)"/>
      </defs>
      <use xlink:href="#DejaVuSans-44"/>
      <use xlink:href="#DejaVuSans-4f" x="77.001953"/>
      <use xlink:href="#DejaVuSans-49" x="155.712891"/>
     </g>
    </g>
    <g id="patch_198">
     <path d="M 83.283333 131.160263 
L 103.283333 131.160263 
L 103.283333 124.160263 
L 83.283333 124.160263 
z
" style="fill: #a0a0a0"/>
    </g>
    <g id="text_45">
     <!-- Haze -->
     <g transform="translate(111.283333 131.160263) scale(0.1 -0.1)">
      <defs>
       <path id="DejaVuSans-48" d="M 628 4666 
L 1259 4666 
L 1259 2753 
L 3553 2753 
L 3553 4666 
L 4184 4666 
L 4184 0 
L 3553 0 
L 3553 2222 
L 1259 2222 
L 1259 0 
L 628 0 
L 628 4666 
z
" transform="scale(0.015625)"/>
       <path id="DejaVuSans-7a" d="M 353 3500 
L 3084 3500 
L 3084 2975 
L 922 459 
L 3084 459 
L 3084 0 
L 275 0 
L 275 525 
L 2438 3041 
L 353 3041 
L 353 3500 
z
" transform="scale(0.015625)"/>
      </defs>
      <use xlink:href="#DejaVuSans-48"/>
      <use xlink:href="#DejaVuSans-61" x="75.195312"/>
      <use xlink:href="#DejaVuSans-7a" x="136.474609"/>
      <use xlink:href="#DejaVuSans-65" x="188.964844"/>
     </g>
    </g>
    <g id="patch_199">
     <path d="M 83.283333 145.838388 
L 103.283333 145.838388 
L 103.283333 138.838388 
L 83.283333 138.838388 
z
" style="fill: #767676"/>
    </g>
    <g id="text_46">
     <!-- Rspec -->
     <g transform="translate(111.283333 145.838388) scale(0.1 -0.1)">
      <defs>
       <path id="DejaVuSans-52" d="M 2841 2188 
Q 3044 2119 3236 1894 
Q 3428 1669 3622 1275 
L 4263 0 
L 3584 0 
L 2988 1197 
Q 2756 1666 2539 1819 
Q 2322 1972 1947 1972 
L 1259 1972 
L 1259 0 
L 628 0 
L 628 4666 
L 2053 4666 
Q 2853 4666 3247 4331 
Q 3641 3997 3641 3322 
Q 3641 2881 3436 2590 
Q 3231 2300 2841 2188 
z
M 1259 4147 
L 1259 2491 
L 2053 2491 
Q 2509 2491 2742 2702 
Q 2975 2913 2975 3322 
Q 2975 3731 2742 3939 
Q 2509 4147 2053 4147 
L 1259 4147 
z
" transform="scale(0.015625)"/>
      </defs>
      <use xlink:href="#DejaVuSans-52"/>
      <use xlink:href="#DejaVuSans-73" x="69.482422"/>
      <use xlink:href="#DejaVuSans-70" x="121.582031"/>
      <use xlink:href="#DejaVuSans-65" x="185.058594"/>
      <use xlink:href="#DejaVuSans-63" x="246.582031"/>
     </g>
    </g>
   </g>
  </g>
 </g>
 <defs>
  <clipPath id="p1a713960ea">
   <rect x="74.283333" y="41.1712" width="1347.716667" height="776.800067"/>
  </clipPath>
 </defs>
</svg>
